M48
; DRILL file {KiCad (5.1.5)-3} date 2/21/2020 1:09:41 PM
; FORMAT={-:-/ absolute / inch / decimal}
; #@! TF.CreationDate,2020-02-21T13:09:41+01:00
; #@! TF.GenerationSoftware,Kicad,Pcbnew,(5.1.5)-3
FMAT,2
INCH
T1C0.1260
T2C0.2657
T3C0.0236
%
G90
G05
T1
X2.1407Y-2.1152
X2.1407Y-3.3376
X4.749Y-3.3376
X2.1407Y-3.8868
X4.749Y-3.8868
X4.749Y-2.1152
X4.749Y-5.1093
X2.1407Y-5.1093
T2
X2.4606Y-2.7559
T3
X4.7244Y-3.4843
X3.5039Y-3.7402
X2.3425Y-3.4843
X2.4213Y-3.4843
X4.685Y-3.4843
X4.685Y-3.7402
X2.2638Y-3.4843
X3.5433Y-3.481
X4.5669Y-3.7402
X2.2638Y-3.7402
X3.4646Y-3.481
X3.3858Y-3.481
X2.4213Y-3.7402
X4.7244Y-3.7402
X4.5276Y-3.4843
X4.6457Y-3.4843
X2.3031Y-3.7402
X3.5039Y-3.481
X2.4606Y-3.4843
X2.3425Y-3.7402
X4.6063Y-3.4843
X4.5669Y-3.4843
X2.3819Y-3.4843
X3.3858Y-3.7402
X3.4252Y-3.7402
X2.3819Y-3.7402
X4.6063Y-3.7402
X2.4606Y-3.7402
X3.4646Y-3.7402
X3.4252Y-3.481
X3.5433Y-3.7402
X4.6457Y-3.7402
X3.3465Y-3.481
X4.5276Y-3.7402
X3.3465Y-3.7402
X2.3031Y-3.4843
T0
M30
