G04 #@! TF.GenerationSoftware,KiCad,Pcbnew,(5.1.5)-3*
G04 #@! TF.CreationDate,2020-02-21T13:09:46+01:00*
G04 #@! TF.ProjectId,radiointerface-panel,72616469-6f69-46e7-9465-72666163652d,rev?*
G04 #@! TF.SameCoordinates,Original*
G04 #@! TF.FileFunction,Profile,NP*
%FSLAX46Y46*%
G04 Gerber Fmt 4.6, Leading zero omitted, Abs format (unit mm)*
G04 Created by KiCad (PCBNEW (5.1.5)-3) date 2020-02-21 13:09:46*
%MOMM*%
%LPD*%
G04 APERTURE LIST*
%ADD10C,0.150000*%
G04 APERTURE END LIST*
D10*
X122000000Y-95000000D02*
G75*
G02X125000000Y-98000000I0J-3000000D01*
G01*
X50000000Y-98000000D02*
G75*
G02X53000000Y-95000000I3000000J0D01*
G01*
X122000000Y-50000000D02*
G75*
G02X125000000Y-53000000I0J-3000000D01*
G01*
X50000000Y-53000000D02*
G75*
G02X53000000Y-50000000I3000000J0D01*
G01*
X103500000Y-68000000D02*
X77000000Y-68000000D01*
X103500000Y-83500000D02*
X103500000Y-68000000D01*
X77000000Y-83500000D02*
X103500000Y-83500000D01*
X77000000Y-68000000D02*
X77000000Y-83500000D01*
X57500000Y-125500000D02*
X57500000Y-110500000D01*
X117500000Y-125500000D02*
X57500000Y-125500000D01*
X117500000Y-110500000D02*
X117500000Y-125500000D01*
X57500000Y-110500000D02*
X117500000Y-110500000D01*
X121500000Y-88500000D02*
X125000000Y-88500000D01*
X121500000Y-95000000D02*
X122000000Y-95000000D01*
X120000000Y-90000000D02*
X120000000Y-93500000D01*
X121500000Y-95000000D02*
G75*
G02X120000000Y-93500000I0J1500000D01*
G01*
X120000000Y-90000000D02*
G75*
G02X121500000Y-88500000I1500000J0D01*
G01*
X56000000Y-95000000D02*
X53000000Y-95000000D01*
X57500000Y-90000000D02*
X57500000Y-93500000D01*
X50000000Y-88500000D02*
X56000000Y-88500000D01*
X57500000Y-93500000D02*
G75*
G02X56000000Y-95000000I-1500000J0D01*
G01*
X56000000Y-88500000D02*
G75*
G02X57500000Y-90000000I0J-1500000D01*
G01*
X85000000Y-93500000D02*
X85000000Y-90000000D01*
X64000000Y-95000000D02*
X83500000Y-95000000D01*
X62500000Y-90000000D02*
X62500000Y-93500000D01*
X83500000Y-88500000D02*
X64000000Y-88500000D01*
X85000000Y-93500000D02*
G75*
G02X83500000Y-95000000I-1500000J0D01*
G01*
X83500000Y-88500000D02*
G75*
G02X85000000Y-90000000I0J-1500000D01*
G01*
X62500000Y-90000000D02*
G75*
G02X64000000Y-88500000I1500000J0D01*
G01*
X64000000Y-95000000D02*
G75*
G02X62500000Y-93500000I0J1500000D01*
G01*
X113500000Y-88500000D02*
X91500000Y-88500000D01*
X115000000Y-93500000D02*
X115000000Y-90000000D01*
X91500000Y-95000000D02*
X113500000Y-95000000D01*
X90000000Y-90000000D02*
X90000000Y-93500000D01*
X90000000Y-90000000D02*
G75*
G02X91500000Y-88500000I1500000J0D01*
G01*
X113500000Y-88500000D02*
G75*
G02X115000000Y-90000000I0J-1500000D01*
G01*
X115000000Y-93500000D02*
G75*
G02X113500000Y-95000000I-1500000J0D01*
G01*
X91500000Y-95000000D02*
G75*
G02X90000000Y-93500000I0J1500000D01*
G01*
X125000000Y-133500000D02*
X50000000Y-133500000D01*
X50000000Y-53000000D02*
X50000000Y-88500000D01*
X50000000Y-98000000D02*
X50000000Y-133500000D01*
X125000000Y-53000000D02*
X125000000Y-88500000D01*
X125000000Y-98000000D02*
X125000000Y-133500000D01*
X53000000Y-50000000D02*
X122000000Y-50000000D01*
M02*
