G04 #@! TF.GenerationSoftware,KiCad,Pcbnew,(5.1.5)-3*
G04 #@! TF.CreationDate,2020-02-21T13:09:46+01:00*
G04 #@! TF.ProjectId,radiointerface-panel,72616469-6f69-46e7-9465-72666163652d,rev?*
G04 #@! TF.SameCoordinates,Original*
G04 #@! TF.FileFunction,Soldermask,Top*
G04 #@! TF.FilePolarity,Negative*
%FSLAX46Y46*%
G04 Gerber Fmt 4.6, Leading zero omitted, Abs format (unit mm)*
G04 Created by KiCad (PCBNEW (5.1.5)-3) date 2020-02-21 13:09:46*
%MOMM*%
%LPD*%
G04 APERTURE LIST*
%ADD10C,0.100000*%
G04 APERTURE END LIST*
D10*
G36*
X121259239Y-126586467D02*
G01*
X121573282Y-126648934D01*
X122164926Y-126894001D01*
X122697392Y-127249784D01*
X123150216Y-127702608D01*
X123505999Y-128235074D01*
X123751066Y-128826718D01*
X123876000Y-129454804D01*
X123876000Y-130095196D01*
X123751066Y-130723282D01*
X123505999Y-131314926D01*
X123150216Y-131847392D01*
X122697392Y-132300216D01*
X122164926Y-132655999D01*
X121573282Y-132901066D01*
X121259239Y-132963533D01*
X120945197Y-133026000D01*
X120304803Y-133026000D01*
X119990761Y-132963533D01*
X119676718Y-132901066D01*
X119085074Y-132655999D01*
X118552608Y-132300216D01*
X118099784Y-131847392D01*
X117744001Y-131314926D01*
X117498934Y-130723282D01*
X117374000Y-130095196D01*
X117374000Y-129454804D01*
X117498934Y-128826718D01*
X117744001Y-128235074D01*
X118099784Y-127702608D01*
X118552608Y-127249784D01*
X119085074Y-126894001D01*
X119676718Y-126648934D01*
X119990761Y-126586467D01*
X120304803Y-126524000D01*
X120945197Y-126524000D01*
X121259239Y-126586467D01*
G37*
G36*
X55009239Y-126586467D02*
G01*
X55323282Y-126648934D01*
X55914926Y-126894001D01*
X56447392Y-127249784D01*
X56900216Y-127702608D01*
X57255999Y-128235074D01*
X57501066Y-128826718D01*
X57626000Y-129454804D01*
X57626000Y-130095196D01*
X57501066Y-130723282D01*
X57255999Y-131314926D01*
X56900216Y-131847392D01*
X56447392Y-132300216D01*
X55914926Y-132655999D01*
X55323282Y-132901066D01*
X55009239Y-132963533D01*
X54695197Y-133026000D01*
X54054803Y-133026000D01*
X53740761Y-132963533D01*
X53426718Y-132901066D01*
X52835074Y-132655999D01*
X52302608Y-132300216D01*
X51849784Y-131847392D01*
X51494001Y-131314926D01*
X51248934Y-130723282D01*
X51124000Y-130095196D01*
X51124000Y-129454804D01*
X51248934Y-128826718D01*
X51494001Y-128235074D01*
X51849784Y-127702608D01*
X52302608Y-127249784D01*
X52835074Y-126894001D01*
X53426718Y-126648934D01*
X53740761Y-126586467D01*
X54054803Y-126524000D01*
X54695197Y-126524000D01*
X55009239Y-126586467D01*
G37*
G36*
X120102383Y-94662489D02*
G01*
X120102386Y-94662490D01*
X120102385Y-94662490D01*
X120166258Y-94688946D01*
X120223748Y-94727360D01*
X120272640Y-94776252D01*
X120311054Y-94833742D01*
X120332624Y-94885818D01*
X120337511Y-94897617D01*
X120351000Y-94965430D01*
X120351000Y-95034570D01*
X120337511Y-95102383D01*
X120337510Y-95102385D01*
X120311054Y-95166258D01*
X120272640Y-95223748D01*
X120235775Y-95260613D01*
X120220230Y-95279555D01*
X120208679Y-95301166D01*
X120201566Y-95324615D01*
X120199164Y-95349001D01*
X120201566Y-95373387D01*
X120208679Y-95396836D01*
X120220230Y-95418447D01*
X120235775Y-95437389D01*
X120254717Y-95452934D01*
X120276328Y-95464485D01*
X120299777Y-95471598D01*
X120324163Y-95474000D01*
X120945197Y-95474000D01*
X121229839Y-95530619D01*
X121573282Y-95598934D01*
X122164926Y-95844001D01*
X122697392Y-96199784D01*
X123150216Y-96652608D01*
X123505999Y-97185074D01*
X123751066Y-97776718D01*
X123876000Y-98404804D01*
X123876000Y-99045196D01*
X123751066Y-99673282D01*
X123505999Y-100264926D01*
X123150216Y-100797392D01*
X122697392Y-101250216D01*
X122164926Y-101605999D01*
X121573282Y-101851066D01*
X121259239Y-101913533D01*
X120945197Y-101976000D01*
X120304803Y-101976000D01*
X119990761Y-101913533D01*
X119676718Y-101851066D01*
X119085074Y-101605999D01*
X118552608Y-101250216D01*
X118099784Y-100797392D01*
X117744001Y-100264926D01*
X117498934Y-99673282D01*
X117374000Y-99045196D01*
X117374000Y-98404804D01*
X117498934Y-97776718D01*
X117744001Y-97185074D01*
X118099784Y-96652608D01*
X118552608Y-96199784D01*
X119085074Y-95844001D01*
X119676718Y-95598934D01*
X119848182Y-95564828D01*
X119871630Y-95557715D01*
X119893241Y-95546164D01*
X119912183Y-95530619D01*
X119927728Y-95511677D01*
X119939279Y-95490066D01*
X119946392Y-95466617D01*
X119948794Y-95442231D01*
X119946392Y-95417845D01*
X119939279Y-95394396D01*
X119927728Y-95372785D01*
X119912183Y-95353843D01*
X119893241Y-95338298D01*
X119871630Y-95326747D01*
X119833741Y-95311053D01*
X119833740Y-95311053D01*
X119833739Y-95311052D01*
X119776251Y-95272639D01*
X119727361Y-95223749D01*
X119688948Y-95166261D01*
X119688946Y-95166258D01*
X119662490Y-95102385D01*
X119662489Y-95102383D01*
X119649000Y-95034570D01*
X119649000Y-94965430D01*
X119662489Y-94897617D01*
X119667376Y-94885818D01*
X119688946Y-94833742D01*
X119727360Y-94776252D01*
X119776252Y-94727360D01*
X119833742Y-94688946D01*
X119897615Y-94662490D01*
X119897614Y-94662490D01*
X119897617Y-94662489D01*
X119965430Y-94649000D01*
X120034570Y-94649000D01*
X120102383Y-94662489D01*
G37*
G36*
X54979839Y-95530619D02*
G01*
X55323282Y-95598934D01*
X55914926Y-95844001D01*
X56447392Y-96199784D01*
X56900216Y-96652608D01*
X57255999Y-97185074D01*
X57501066Y-97776718D01*
X57626000Y-98404804D01*
X57626000Y-99045196D01*
X57501066Y-99673282D01*
X57255999Y-100264926D01*
X56900216Y-100797392D01*
X56447392Y-101250216D01*
X55914926Y-101605999D01*
X55323282Y-101851066D01*
X55009239Y-101913533D01*
X54695197Y-101976000D01*
X54054803Y-101976000D01*
X53740761Y-101913533D01*
X53426718Y-101851066D01*
X52835074Y-101605999D01*
X52302608Y-101250216D01*
X51849784Y-100797392D01*
X51494001Y-100264926D01*
X51248934Y-99673282D01*
X51124000Y-99045196D01*
X51124000Y-98404804D01*
X51248934Y-97776718D01*
X51494001Y-97185074D01*
X51849784Y-96652608D01*
X52302608Y-96199784D01*
X52835074Y-95844001D01*
X53426718Y-95598934D01*
X53770161Y-95530619D01*
X54054803Y-95474000D01*
X54695197Y-95474000D01*
X54979839Y-95530619D01*
G37*
G36*
X58602383Y-94662489D02*
G01*
X58602386Y-94662490D01*
X58602385Y-94662490D01*
X58666258Y-94688946D01*
X58723748Y-94727360D01*
X58772640Y-94776252D01*
X58811054Y-94833742D01*
X58832624Y-94885818D01*
X58837511Y-94897617D01*
X58851000Y-94965430D01*
X58851000Y-95034570D01*
X58837511Y-95102383D01*
X58837510Y-95102385D01*
X58811054Y-95166258D01*
X58772640Y-95223748D01*
X58723748Y-95272640D01*
X58666258Y-95311054D01*
X58628370Y-95326747D01*
X58602383Y-95337511D01*
X58534570Y-95351000D01*
X58465430Y-95351000D01*
X58397617Y-95337511D01*
X58371630Y-95326747D01*
X58333742Y-95311054D01*
X58276252Y-95272640D01*
X58227360Y-95223748D01*
X58188946Y-95166258D01*
X58162490Y-95102385D01*
X58162489Y-95102383D01*
X58149000Y-95034570D01*
X58149000Y-94965430D01*
X58162489Y-94897617D01*
X58167376Y-94885818D01*
X58188946Y-94833742D01*
X58227360Y-94776252D01*
X58276252Y-94727360D01*
X58333742Y-94688946D01*
X58397615Y-94662490D01*
X58397614Y-94662490D01*
X58397617Y-94662489D01*
X58465430Y-94649000D01*
X58534570Y-94649000D01*
X58602383Y-94662489D01*
G37*
G36*
X85102383Y-94662489D02*
G01*
X85102386Y-94662490D01*
X85102385Y-94662490D01*
X85166258Y-94688946D01*
X85223748Y-94727360D01*
X85272640Y-94776252D01*
X85311054Y-94833742D01*
X85332624Y-94885818D01*
X85337511Y-94897617D01*
X85351000Y-94965430D01*
X85351000Y-95034570D01*
X85337511Y-95102383D01*
X85337510Y-95102385D01*
X85311054Y-95166258D01*
X85272640Y-95223748D01*
X85223748Y-95272640D01*
X85166258Y-95311054D01*
X85128370Y-95326747D01*
X85102383Y-95337511D01*
X85034570Y-95351000D01*
X84965430Y-95351000D01*
X84897617Y-95337511D01*
X84871630Y-95326747D01*
X84833742Y-95311054D01*
X84776252Y-95272640D01*
X84727360Y-95223748D01*
X84688946Y-95166258D01*
X84662490Y-95102385D01*
X84662489Y-95102383D01*
X84649000Y-95034570D01*
X84649000Y-94965430D01*
X84662489Y-94897617D01*
X84667376Y-94885818D01*
X84688946Y-94833742D01*
X84727360Y-94776252D01*
X84776252Y-94727360D01*
X84833742Y-94688946D01*
X84897615Y-94662490D01*
X84897614Y-94662490D01*
X84897617Y-94662489D01*
X84965430Y-94649000D01*
X85034570Y-94649000D01*
X85102383Y-94662489D01*
G37*
G36*
X86102383Y-94662489D02*
G01*
X86102386Y-94662490D01*
X86102385Y-94662490D01*
X86166258Y-94688946D01*
X86223748Y-94727360D01*
X86272640Y-94776252D01*
X86311054Y-94833742D01*
X86332624Y-94885818D01*
X86337511Y-94897617D01*
X86351000Y-94965430D01*
X86351000Y-95034570D01*
X86337511Y-95102383D01*
X86337510Y-95102385D01*
X86311054Y-95166258D01*
X86272640Y-95223748D01*
X86223748Y-95272640D01*
X86166258Y-95311054D01*
X86128370Y-95326747D01*
X86102383Y-95337511D01*
X86034570Y-95351000D01*
X85965430Y-95351000D01*
X85897617Y-95337511D01*
X85871630Y-95326747D01*
X85833742Y-95311054D01*
X85776252Y-95272640D01*
X85727360Y-95223748D01*
X85688946Y-95166258D01*
X85662490Y-95102385D01*
X85662489Y-95102383D01*
X85649000Y-95034570D01*
X85649000Y-94965430D01*
X85662489Y-94897617D01*
X85667376Y-94885818D01*
X85688946Y-94833742D01*
X85727360Y-94776252D01*
X85776252Y-94727360D01*
X85833742Y-94688946D01*
X85897615Y-94662490D01*
X85897614Y-94662490D01*
X85897617Y-94662489D01*
X85965430Y-94649000D01*
X86034570Y-94649000D01*
X86102383Y-94662489D01*
G37*
G36*
X87102383Y-94662489D02*
G01*
X87102386Y-94662490D01*
X87102385Y-94662490D01*
X87166258Y-94688946D01*
X87223748Y-94727360D01*
X87272640Y-94776252D01*
X87311054Y-94833742D01*
X87332624Y-94885818D01*
X87337511Y-94897617D01*
X87351000Y-94965430D01*
X87351000Y-95034570D01*
X87337511Y-95102383D01*
X87337510Y-95102385D01*
X87311054Y-95166258D01*
X87272640Y-95223748D01*
X87223748Y-95272640D01*
X87166258Y-95311054D01*
X87128370Y-95326747D01*
X87102383Y-95337511D01*
X87034570Y-95351000D01*
X86965430Y-95351000D01*
X86897617Y-95337511D01*
X86871630Y-95326747D01*
X86833742Y-95311054D01*
X86776252Y-95272640D01*
X86727360Y-95223748D01*
X86688946Y-95166258D01*
X86662490Y-95102385D01*
X86662489Y-95102383D01*
X86649000Y-95034570D01*
X86649000Y-94965430D01*
X86662489Y-94897617D01*
X86667376Y-94885818D01*
X86688946Y-94833742D01*
X86727360Y-94776252D01*
X86776252Y-94727360D01*
X86833742Y-94688946D01*
X86897615Y-94662490D01*
X86897614Y-94662490D01*
X86897617Y-94662489D01*
X86965430Y-94649000D01*
X87034570Y-94649000D01*
X87102383Y-94662489D01*
G37*
G36*
X88102383Y-94662489D02*
G01*
X88102386Y-94662490D01*
X88102385Y-94662490D01*
X88166258Y-94688946D01*
X88223748Y-94727360D01*
X88272640Y-94776252D01*
X88311054Y-94833742D01*
X88332624Y-94885818D01*
X88337511Y-94897617D01*
X88351000Y-94965430D01*
X88351000Y-95034570D01*
X88337511Y-95102383D01*
X88337510Y-95102385D01*
X88311054Y-95166258D01*
X88272640Y-95223748D01*
X88223748Y-95272640D01*
X88166258Y-95311054D01*
X88128370Y-95326747D01*
X88102383Y-95337511D01*
X88034570Y-95351000D01*
X87965430Y-95351000D01*
X87897617Y-95337511D01*
X87871630Y-95326747D01*
X87833742Y-95311054D01*
X87776252Y-95272640D01*
X87727360Y-95223748D01*
X87688946Y-95166258D01*
X87662490Y-95102385D01*
X87662489Y-95102383D01*
X87649000Y-95034570D01*
X87649000Y-94965430D01*
X87662489Y-94897617D01*
X87667376Y-94885818D01*
X87688946Y-94833742D01*
X87727360Y-94776252D01*
X87776252Y-94727360D01*
X87833742Y-94688946D01*
X87897615Y-94662490D01*
X87897614Y-94662490D01*
X87897617Y-94662489D01*
X87965430Y-94649000D01*
X88034570Y-94649000D01*
X88102383Y-94662489D01*
G37*
G36*
X89102383Y-94662489D02*
G01*
X89102386Y-94662490D01*
X89102385Y-94662490D01*
X89166258Y-94688946D01*
X89223748Y-94727360D01*
X89272640Y-94776252D01*
X89311054Y-94833742D01*
X89332624Y-94885818D01*
X89337511Y-94897617D01*
X89351000Y-94965430D01*
X89351000Y-95034570D01*
X89337511Y-95102383D01*
X89337510Y-95102385D01*
X89311054Y-95166258D01*
X89272640Y-95223748D01*
X89223748Y-95272640D01*
X89166258Y-95311054D01*
X89128370Y-95326747D01*
X89102383Y-95337511D01*
X89034570Y-95351000D01*
X88965430Y-95351000D01*
X88897617Y-95337511D01*
X88871630Y-95326747D01*
X88833742Y-95311054D01*
X88776252Y-95272640D01*
X88727360Y-95223748D01*
X88688946Y-95166258D01*
X88662490Y-95102385D01*
X88662489Y-95102383D01*
X88649000Y-95034570D01*
X88649000Y-94965430D01*
X88662489Y-94897617D01*
X88667376Y-94885818D01*
X88688946Y-94833742D01*
X88727360Y-94776252D01*
X88776252Y-94727360D01*
X88833742Y-94688946D01*
X88897615Y-94662490D01*
X88897614Y-94662490D01*
X88897617Y-94662489D01*
X88965430Y-94649000D01*
X89034570Y-94649000D01*
X89102383Y-94662489D01*
G37*
G36*
X90102383Y-94662489D02*
G01*
X90102386Y-94662490D01*
X90102385Y-94662490D01*
X90166258Y-94688946D01*
X90223748Y-94727360D01*
X90272640Y-94776252D01*
X90311054Y-94833742D01*
X90332624Y-94885818D01*
X90337511Y-94897617D01*
X90351000Y-94965430D01*
X90351000Y-95034570D01*
X90337511Y-95102383D01*
X90337510Y-95102385D01*
X90311054Y-95166258D01*
X90272640Y-95223748D01*
X90223748Y-95272640D01*
X90166258Y-95311054D01*
X90128370Y-95326747D01*
X90102383Y-95337511D01*
X90034570Y-95351000D01*
X89965430Y-95351000D01*
X89897617Y-95337511D01*
X89871630Y-95326747D01*
X89833742Y-95311054D01*
X89776252Y-95272640D01*
X89727360Y-95223748D01*
X89688946Y-95166258D01*
X89662490Y-95102385D01*
X89662489Y-95102383D01*
X89649000Y-95034570D01*
X89649000Y-94965430D01*
X89662489Y-94897617D01*
X89667376Y-94885818D01*
X89688946Y-94833742D01*
X89727360Y-94776252D01*
X89776252Y-94727360D01*
X89833742Y-94688946D01*
X89897615Y-94662490D01*
X89897614Y-94662490D01*
X89897617Y-94662489D01*
X89965430Y-94649000D01*
X90034570Y-94649000D01*
X90102383Y-94662489D01*
G37*
G36*
X57602383Y-94662489D02*
G01*
X57602386Y-94662490D01*
X57602385Y-94662490D01*
X57666258Y-94688946D01*
X57723748Y-94727360D01*
X57772640Y-94776252D01*
X57811054Y-94833742D01*
X57832624Y-94885818D01*
X57837511Y-94897617D01*
X57851000Y-94965430D01*
X57851000Y-95034570D01*
X57837511Y-95102383D01*
X57837510Y-95102385D01*
X57811054Y-95166258D01*
X57772640Y-95223748D01*
X57723748Y-95272640D01*
X57666258Y-95311054D01*
X57628370Y-95326747D01*
X57602383Y-95337511D01*
X57534570Y-95351000D01*
X57465430Y-95351000D01*
X57397617Y-95337511D01*
X57371630Y-95326747D01*
X57333742Y-95311054D01*
X57276252Y-95272640D01*
X57227360Y-95223748D01*
X57188946Y-95166258D01*
X57162490Y-95102385D01*
X57162489Y-95102383D01*
X57149000Y-95034570D01*
X57149000Y-94965430D01*
X57162489Y-94897617D01*
X57167376Y-94885818D01*
X57188946Y-94833742D01*
X57227360Y-94776252D01*
X57276252Y-94727360D01*
X57333742Y-94688946D01*
X57397615Y-94662490D01*
X57397614Y-94662490D01*
X57397617Y-94662489D01*
X57465430Y-94649000D01*
X57534570Y-94649000D01*
X57602383Y-94662489D01*
G37*
G36*
X59602383Y-94662489D02*
G01*
X59602386Y-94662490D01*
X59602385Y-94662490D01*
X59666258Y-94688946D01*
X59723748Y-94727360D01*
X59772640Y-94776252D01*
X59811054Y-94833742D01*
X59832624Y-94885818D01*
X59837511Y-94897617D01*
X59851000Y-94965430D01*
X59851000Y-95034570D01*
X59837511Y-95102383D01*
X59837510Y-95102385D01*
X59811054Y-95166258D01*
X59772640Y-95223748D01*
X59723748Y-95272640D01*
X59666258Y-95311054D01*
X59628370Y-95326747D01*
X59602383Y-95337511D01*
X59534570Y-95351000D01*
X59465430Y-95351000D01*
X59397617Y-95337511D01*
X59371630Y-95326747D01*
X59333742Y-95311054D01*
X59276252Y-95272640D01*
X59227360Y-95223748D01*
X59188946Y-95166258D01*
X59162490Y-95102385D01*
X59162489Y-95102383D01*
X59149000Y-95034570D01*
X59149000Y-94965430D01*
X59162489Y-94897617D01*
X59167376Y-94885818D01*
X59188946Y-94833742D01*
X59227360Y-94776252D01*
X59276252Y-94727360D01*
X59333742Y-94688946D01*
X59397615Y-94662490D01*
X59397614Y-94662490D01*
X59397617Y-94662489D01*
X59465430Y-94649000D01*
X59534570Y-94649000D01*
X59602383Y-94662489D01*
G37*
G36*
X60602383Y-94662489D02*
G01*
X60602386Y-94662490D01*
X60602385Y-94662490D01*
X60666258Y-94688946D01*
X60723748Y-94727360D01*
X60772640Y-94776252D01*
X60811054Y-94833742D01*
X60832624Y-94885818D01*
X60837511Y-94897617D01*
X60851000Y-94965430D01*
X60851000Y-95034570D01*
X60837511Y-95102383D01*
X60837510Y-95102385D01*
X60811054Y-95166258D01*
X60772640Y-95223748D01*
X60723748Y-95272640D01*
X60666258Y-95311054D01*
X60628370Y-95326747D01*
X60602383Y-95337511D01*
X60534570Y-95351000D01*
X60465430Y-95351000D01*
X60397617Y-95337511D01*
X60371630Y-95326747D01*
X60333742Y-95311054D01*
X60276252Y-95272640D01*
X60227360Y-95223748D01*
X60188946Y-95166258D01*
X60162490Y-95102385D01*
X60162489Y-95102383D01*
X60149000Y-95034570D01*
X60149000Y-94965430D01*
X60162489Y-94897617D01*
X60167376Y-94885818D01*
X60188946Y-94833742D01*
X60227360Y-94776252D01*
X60276252Y-94727360D01*
X60333742Y-94688946D01*
X60397615Y-94662490D01*
X60397614Y-94662490D01*
X60397617Y-94662489D01*
X60465430Y-94649000D01*
X60534570Y-94649000D01*
X60602383Y-94662489D01*
G37*
G36*
X61602383Y-94662489D02*
G01*
X61602386Y-94662490D01*
X61602385Y-94662490D01*
X61666258Y-94688946D01*
X61723748Y-94727360D01*
X61772640Y-94776252D01*
X61811054Y-94833742D01*
X61832624Y-94885818D01*
X61837511Y-94897617D01*
X61851000Y-94965430D01*
X61851000Y-95034570D01*
X61837511Y-95102383D01*
X61837510Y-95102385D01*
X61811054Y-95166258D01*
X61772640Y-95223748D01*
X61723748Y-95272640D01*
X61666258Y-95311054D01*
X61628370Y-95326747D01*
X61602383Y-95337511D01*
X61534570Y-95351000D01*
X61465430Y-95351000D01*
X61397617Y-95337511D01*
X61371630Y-95326747D01*
X61333742Y-95311054D01*
X61276252Y-95272640D01*
X61227360Y-95223748D01*
X61188946Y-95166258D01*
X61162490Y-95102385D01*
X61162489Y-95102383D01*
X61149000Y-95034570D01*
X61149000Y-94965430D01*
X61162489Y-94897617D01*
X61167376Y-94885818D01*
X61188946Y-94833742D01*
X61227360Y-94776252D01*
X61276252Y-94727360D01*
X61333742Y-94688946D01*
X61397615Y-94662490D01*
X61397614Y-94662490D01*
X61397617Y-94662489D01*
X61465430Y-94649000D01*
X61534570Y-94649000D01*
X61602383Y-94662489D01*
G37*
G36*
X62602383Y-94662489D02*
G01*
X62602386Y-94662490D01*
X62602385Y-94662490D01*
X62666258Y-94688946D01*
X62723748Y-94727360D01*
X62772640Y-94776252D01*
X62811054Y-94833742D01*
X62832624Y-94885818D01*
X62837511Y-94897617D01*
X62851000Y-94965430D01*
X62851000Y-95034570D01*
X62837511Y-95102383D01*
X62837510Y-95102385D01*
X62811054Y-95166258D01*
X62772640Y-95223748D01*
X62723748Y-95272640D01*
X62666258Y-95311054D01*
X62628370Y-95326747D01*
X62602383Y-95337511D01*
X62534570Y-95351000D01*
X62465430Y-95351000D01*
X62397617Y-95337511D01*
X62371630Y-95326747D01*
X62333742Y-95311054D01*
X62276252Y-95272640D01*
X62227360Y-95223748D01*
X62188946Y-95166258D01*
X62162490Y-95102385D01*
X62162489Y-95102383D01*
X62149000Y-95034570D01*
X62149000Y-94965430D01*
X62162489Y-94897617D01*
X62167376Y-94885818D01*
X62188946Y-94833742D01*
X62227360Y-94776252D01*
X62276252Y-94727360D01*
X62333742Y-94688946D01*
X62397615Y-94662490D01*
X62397614Y-94662490D01*
X62397617Y-94662489D01*
X62465430Y-94649000D01*
X62534570Y-94649000D01*
X62602383Y-94662489D01*
G37*
G36*
X115102383Y-94662489D02*
G01*
X115102386Y-94662490D01*
X115102385Y-94662490D01*
X115166258Y-94688946D01*
X115223748Y-94727360D01*
X115272640Y-94776252D01*
X115311054Y-94833742D01*
X115332624Y-94885818D01*
X115337511Y-94897617D01*
X115351000Y-94965430D01*
X115351000Y-95034570D01*
X115337511Y-95102383D01*
X115337510Y-95102385D01*
X115311054Y-95166258D01*
X115272640Y-95223748D01*
X115223748Y-95272640D01*
X115166258Y-95311054D01*
X115128370Y-95326747D01*
X115102383Y-95337511D01*
X115034570Y-95351000D01*
X114965430Y-95351000D01*
X114897617Y-95337511D01*
X114871630Y-95326747D01*
X114833742Y-95311054D01*
X114776252Y-95272640D01*
X114727360Y-95223748D01*
X114688946Y-95166258D01*
X114662490Y-95102385D01*
X114662489Y-95102383D01*
X114649000Y-95034570D01*
X114649000Y-94965430D01*
X114662489Y-94897617D01*
X114667376Y-94885818D01*
X114688946Y-94833742D01*
X114727360Y-94776252D01*
X114776252Y-94727360D01*
X114833742Y-94688946D01*
X114897615Y-94662490D01*
X114897614Y-94662490D01*
X114897617Y-94662489D01*
X114965430Y-94649000D01*
X115034570Y-94649000D01*
X115102383Y-94662489D01*
G37*
G36*
X116102383Y-94662489D02*
G01*
X116102386Y-94662490D01*
X116102385Y-94662490D01*
X116166258Y-94688946D01*
X116223748Y-94727360D01*
X116272640Y-94776252D01*
X116311054Y-94833742D01*
X116332624Y-94885818D01*
X116337511Y-94897617D01*
X116351000Y-94965430D01*
X116351000Y-95034570D01*
X116337511Y-95102383D01*
X116337510Y-95102385D01*
X116311054Y-95166258D01*
X116272640Y-95223748D01*
X116223748Y-95272640D01*
X116166258Y-95311054D01*
X116128370Y-95326747D01*
X116102383Y-95337511D01*
X116034570Y-95351000D01*
X115965430Y-95351000D01*
X115897617Y-95337511D01*
X115871630Y-95326747D01*
X115833742Y-95311054D01*
X115776252Y-95272640D01*
X115727360Y-95223748D01*
X115688946Y-95166258D01*
X115662490Y-95102385D01*
X115662489Y-95102383D01*
X115649000Y-95034570D01*
X115649000Y-94965430D01*
X115662489Y-94897617D01*
X115667376Y-94885818D01*
X115688946Y-94833742D01*
X115727360Y-94776252D01*
X115776252Y-94727360D01*
X115833742Y-94688946D01*
X115897615Y-94662490D01*
X115897614Y-94662490D01*
X115897617Y-94662489D01*
X115965430Y-94649000D01*
X116034570Y-94649000D01*
X116102383Y-94662489D01*
G37*
G36*
X117102383Y-94662489D02*
G01*
X117102386Y-94662490D01*
X117102385Y-94662490D01*
X117166258Y-94688946D01*
X117223748Y-94727360D01*
X117272640Y-94776252D01*
X117311054Y-94833742D01*
X117332624Y-94885818D01*
X117337511Y-94897617D01*
X117351000Y-94965430D01*
X117351000Y-95034570D01*
X117337511Y-95102383D01*
X117337510Y-95102385D01*
X117311054Y-95166258D01*
X117272640Y-95223748D01*
X117223748Y-95272640D01*
X117166258Y-95311054D01*
X117128370Y-95326747D01*
X117102383Y-95337511D01*
X117034570Y-95351000D01*
X116965430Y-95351000D01*
X116897617Y-95337511D01*
X116871630Y-95326747D01*
X116833742Y-95311054D01*
X116776252Y-95272640D01*
X116727360Y-95223748D01*
X116688946Y-95166258D01*
X116662490Y-95102385D01*
X116662489Y-95102383D01*
X116649000Y-95034570D01*
X116649000Y-94965430D01*
X116662489Y-94897617D01*
X116667376Y-94885818D01*
X116688946Y-94833742D01*
X116727360Y-94776252D01*
X116776252Y-94727360D01*
X116833742Y-94688946D01*
X116897615Y-94662490D01*
X116897614Y-94662490D01*
X116897617Y-94662489D01*
X116965430Y-94649000D01*
X117034570Y-94649000D01*
X117102383Y-94662489D01*
G37*
G36*
X118102383Y-94662489D02*
G01*
X118102386Y-94662490D01*
X118102385Y-94662490D01*
X118166258Y-94688946D01*
X118223748Y-94727360D01*
X118272640Y-94776252D01*
X118311054Y-94833742D01*
X118332624Y-94885818D01*
X118337511Y-94897617D01*
X118351000Y-94965430D01*
X118351000Y-95034570D01*
X118337511Y-95102383D01*
X118337510Y-95102385D01*
X118311054Y-95166258D01*
X118272640Y-95223748D01*
X118223748Y-95272640D01*
X118166258Y-95311054D01*
X118128370Y-95326747D01*
X118102383Y-95337511D01*
X118034570Y-95351000D01*
X117965430Y-95351000D01*
X117897617Y-95337511D01*
X117871630Y-95326747D01*
X117833742Y-95311054D01*
X117776252Y-95272640D01*
X117727360Y-95223748D01*
X117688946Y-95166258D01*
X117662490Y-95102385D01*
X117662489Y-95102383D01*
X117649000Y-95034570D01*
X117649000Y-94965430D01*
X117662489Y-94897617D01*
X117667376Y-94885818D01*
X117688946Y-94833742D01*
X117727360Y-94776252D01*
X117776252Y-94727360D01*
X117833742Y-94688946D01*
X117897615Y-94662490D01*
X117897614Y-94662490D01*
X117897617Y-94662489D01*
X117965430Y-94649000D01*
X118034570Y-94649000D01*
X118102383Y-94662489D01*
G37*
G36*
X119102383Y-94662489D02*
G01*
X119102386Y-94662490D01*
X119102385Y-94662490D01*
X119166258Y-94688946D01*
X119223748Y-94727360D01*
X119272640Y-94776252D01*
X119311054Y-94833742D01*
X119332624Y-94885818D01*
X119337511Y-94897617D01*
X119351000Y-94965430D01*
X119351000Y-95034570D01*
X119337511Y-95102383D01*
X119337510Y-95102385D01*
X119311054Y-95166258D01*
X119272640Y-95223748D01*
X119223748Y-95272640D01*
X119166258Y-95311054D01*
X119128370Y-95326747D01*
X119102383Y-95337511D01*
X119034570Y-95351000D01*
X118965430Y-95351000D01*
X118897617Y-95337511D01*
X118871630Y-95326747D01*
X118833742Y-95311054D01*
X118776252Y-95272640D01*
X118727360Y-95223748D01*
X118688946Y-95166258D01*
X118662490Y-95102385D01*
X118662489Y-95102383D01*
X118649000Y-95034570D01*
X118649000Y-94965430D01*
X118662489Y-94897617D01*
X118667376Y-94885818D01*
X118688946Y-94833742D01*
X118727360Y-94776252D01*
X118776252Y-94727360D01*
X118833742Y-94688946D01*
X118897615Y-94662490D01*
X118897614Y-94662490D01*
X118897617Y-94662489D01*
X118965430Y-94649000D01*
X119034570Y-94649000D01*
X119102383Y-94662489D01*
G37*
G36*
X117102383Y-88162489D02*
G01*
X117102386Y-88162490D01*
X117102385Y-88162490D01*
X117166258Y-88188946D01*
X117223748Y-88227360D01*
X117272640Y-88276252D01*
X117311054Y-88333742D01*
X117332624Y-88385818D01*
X117337511Y-88397617D01*
X117351000Y-88465430D01*
X117351000Y-88534570D01*
X117337511Y-88602383D01*
X117337510Y-88602385D01*
X117311054Y-88666258D01*
X117272640Y-88723748D01*
X117223748Y-88772640D01*
X117166258Y-88811054D01*
X117114182Y-88832624D01*
X117102383Y-88837511D01*
X117034570Y-88851000D01*
X116965430Y-88851000D01*
X116897617Y-88837511D01*
X116885818Y-88832624D01*
X116833742Y-88811054D01*
X116776252Y-88772640D01*
X116727360Y-88723748D01*
X116688946Y-88666258D01*
X116662490Y-88602385D01*
X116662489Y-88602383D01*
X116649000Y-88534570D01*
X116649000Y-88465430D01*
X116662489Y-88397617D01*
X116667376Y-88385818D01*
X116688946Y-88333742D01*
X116727360Y-88276252D01*
X116776252Y-88227360D01*
X116833742Y-88188946D01*
X116897615Y-88162490D01*
X116897614Y-88162490D01*
X116897617Y-88162489D01*
X116965430Y-88149000D01*
X117034570Y-88149000D01*
X117102383Y-88162489D01*
G37*
G36*
X121259239Y-81586467D02*
G01*
X121573282Y-81648934D01*
X122164926Y-81894001D01*
X122697392Y-82249784D01*
X123150216Y-82702608D01*
X123505999Y-83235074D01*
X123751066Y-83826718D01*
X123876000Y-84454804D01*
X123876000Y-85095196D01*
X123751066Y-85723282D01*
X123505999Y-86314926D01*
X123150216Y-86847392D01*
X122697392Y-87300216D01*
X122164926Y-87655999D01*
X121573282Y-87901066D01*
X121401819Y-87935172D01*
X120945197Y-88026000D01*
X120324163Y-88026000D01*
X120299777Y-88028402D01*
X120276328Y-88035515D01*
X120254717Y-88047066D01*
X120235775Y-88062611D01*
X120220230Y-88081553D01*
X120208679Y-88103164D01*
X120201566Y-88126613D01*
X120199164Y-88150999D01*
X120201566Y-88175385D01*
X120208679Y-88198834D01*
X120220230Y-88220445D01*
X120235775Y-88239387D01*
X120272640Y-88276252D01*
X120311054Y-88333742D01*
X120332624Y-88385818D01*
X120337511Y-88397617D01*
X120351000Y-88465430D01*
X120351000Y-88534570D01*
X120337511Y-88602383D01*
X120337510Y-88602385D01*
X120311054Y-88666258D01*
X120272640Y-88723748D01*
X120223748Y-88772640D01*
X120166258Y-88811054D01*
X120114182Y-88832624D01*
X120102383Y-88837511D01*
X120034570Y-88851000D01*
X119965430Y-88851000D01*
X119897617Y-88837511D01*
X119885818Y-88832624D01*
X119833742Y-88811054D01*
X119776252Y-88772640D01*
X119727360Y-88723748D01*
X119688946Y-88666258D01*
X119662490Y-88602385D01*
X119662489Y-88602383D01*
X119649000Y-88534570D01*
X119649000Y-88465430D01*
X119662489Y-88397617D01*
X119667376Y-88385818D01*
X119688946Y-88333742D01*
X119727360Y-88276252D01*
X119776252Y-88227360D01*
X119818944Y-88198834D01*
X119833739Y-88188948D01*
X119833744Y-88188946D01*
X119871630Y-88173253D01*
X119893240Y-88161702D01*
X119912182Y-88146157D01*
X119927728Y-88127215D01*
X119939279Y-88105605D01*
X119946392Y-88082156D01*
X119948794Y-88057770D01*
X119946392Y-88033383D01*
X119939279Y-88009934D01*
X119927728Y-87988324D01*
X119912183Y-87969382D01*
X119893241Y-87953836D01*
X119871631Y-87942285D01*
X119848181Y-87935172D01*
X119676718Y-87901066D01*
X119085074Y-87655999D01*
X118552608Y-87300216D01*
X118099784Y-86847392D01*
X117744001Y-86314926D01*
X117498934Y-85723282D01*
X117374000Y-85095196D01*
X117374000Y-84454804D01*
X117498934Y-83826718D01*
X117744001Y-83235074D01*
X118099784Y-82702608D01*
X118552608Y-82249784D01*
X119085074Y-81894001D01*
X119676718Y-81648934D01*
X119990761Y-81586467D01*
X120304803Y-81524000D01*
X120945197Y-81524000D01*
X121259239Y-81586467D01*
G37*
G36*
X119102383Y-88162489D02*
G01*
X119102386Y-88162490D01*
X119102385Y-88162490D01*
X119166258Y-88188946D01*
X119223748Y-88227360D01*
X119272640Y-88276252D01*
X119311054Y-88333742D01*
X119332624Y-88385818D01*
X119337511Y-88397617D01*
X119351000Y-88465430D01*
X119351000Y-88534570D01*
X119337511Y-88602383D01*
X119337510Y-88602385D01*
X119311054Y-88666258D01*
X119272640Y-88723748D01*
X119223748Y-88772640D01*
X119166258Y-88811054D01*
X119114182Y-88832624D01*
X119102383Y-88837511D01*
X119034570Y-88851000D01*
X118965430Y-88851000D01*
X118897617Y-88837511D01*
X118885818Y-88832624D01*
X118833742Y-88811054D01*
X118776252Y-88772640D01*
X118727360Y-88723748D01*
X118688946Y-88666258D01*
X118662490Y-88602385D01*
X118662489Y-88602383D01*
X118649000Y-88534570D01*
X118649000Y-88465430D01*
X118662489Y-88397617D01*
X118667376Y-88385818D01*
X118688946Y-88333742D01*
X118727360Y-88276252D01*
X118776252Y-88227360D01*
X118833742Y-88188946D01*
X118897615Y-88162490D01*
X118897614Y-88162490D01*
X118897617Y-88162489D01*
X118965430Y-88149000D01*
X119034570Y-88149000D01*
X119102383Y-88162489D01*
G37*
G36*
X118102383Y-88162489D02*
G01*
X118102386Y-88162490D01*
X118102385Y-88162490D01*
X118166258Y-88188946D01*
X118223748Y-88227360D01*
X118272640Y-88276252D01*
X118311054Y-88333742D01*
X118332624Y-88385818D01*
X118337511Y-88397617D01*
X118351000Y-88465430D01*
X118351000Y-88534570D01*
X118337511Y-88602383D01*
X118337510Y-88602385D01*
X118311054Y-88666258D01*
X118272640Y-88723748D01*
X118223748Y-88772640D01*
X118166258Y-88811054D01*
X118114182Y-88832624D01*
X118102383Y-88837511D01*
X118034570Y-88851000D01*
X117965430Y-88851000D01*
X117897617Y-88837511D01*
X117885818Y-88832624D01*
X117833742Y-88811054D01*
X117776252Y-88772640D01*
X117727360Y-88723748D01*
X117688946Y-88666258D01*
X117662490Y-88602385D01*
X117662489Y-88602383D01*
X117649000Y-88534570D01*
X117649000Y-88465430D01*
X117662489Y-88397617D01*
X117667376Y-88385818D01*
X117688946Y-88333742D01*
X117727360Y-88276252D01*
X117776252Y-88227360D01*
X117833742Y-88188946D01*
X117897615Y-88162490D01*
X117897614Y-88162490D01*
X117897617Y-88162489D01*
X117965430Y-88149000D01*
X118034570Y-88149000D01*
X118102383Y-88162489D01*
G37*
G36*
X61602383Y-88162489D02*
G01*
X61602386Y-88162490D01*
X61602385Y-88162490D01*
X61666258Y-88188946D01*
X61723748Y-88227360D01*
X61772640Y-88276252D01*
X61811054Y-88333742D01*
X61832624Y-88385818D01*
X61837511Y-88397617D01*
X61851000Y-88465430D01*
X61851000Y-88534570D01*
X61837511Y-88602383D01*
X61837510Y-88602385D01*
X61811054Y-88666258D01*
X61772640Y-88723748D01*
X61723748Y-88772640D01*
X61666258Y-88811054D01*
X61614182Y-88832624D01*
X61602383Y-88837511D01*
X61534570Y-88851000D01*
X61465430Y-88851000D01*
X61397617Y-88837511D01*
X61385818Y-88832624D01*
X61333742Y-88811054D01*
X61276252Y-88772640D01*
X61227360Y-88723748D01*
X61188946Y-88666258D01*
X61162490Y-88602385D01*
X61162489Y-88602383D01*
X61149000Y-88534570D01*
X61149000Y-88465430D01*
X61162489Y-88397617D01*
X61167376Y-88385818D01*
X61188946Y-88333742D01*
X61227360Y-88276252D01*
X61276252Y-88227360D01*
X61333742Y-88188946D01*
X61397615Y-88162490D01*
X61397614Y-88162490D01*
X61397617Y-88162489D01*
X61465430Y-88149000D01*
X61534570Y-88149000D01*
X61602383Y-88162489D01*
G37*
G36*
X60602383Y-88162489D02*
G01*
X60602386Y-88162490D01*
X60602385Y-88162490D01*
X60666258Y-88188946D01*
X60723748Y-88227360D01*
X60772640Y-88276252D01*
X60811054Y-88333742D01*
X60832624Y-88385818D01*
X60837511Y-88397617D01*
X60851000Y-88465430D01*
X60851000Y-88534570D01*
X60837511Y-88602383D01*
X60837510Y-88602385D01*
X60811054Y-88666258D01*
X60772640Y-88723748D01*
X60723748Y-88772640D01*
X60666258Y-88811054D01*
X60614182Y-88832624D01*
X60602383Y-88837511D01*
X60534570Y-88851000D01*
X60465430Y-88851000D01*
X60397617Y-88837511D01*
X60385818Y-88832624D01*
X60333742Y-88811054D01*
X60276252Y-88772640D01*
X60227360Y-88723748D01*
X60188946Y-88666258D01*
X60162490Y-88602385D01*
X60162489Y-88602383D01*
X60149000Y-88534570D01*
X60149000Y-88465430D01*
X60162489Y-88397617D01*
X60167376Y-88385818D01*
X60188946Y-88333742D01*
X60227360Y-88276252D01*
X60276252Y-88227360D01*
X60333742Y-88188946D01*
X60397615Y-88162490D01*
X60397614Y-88162490D01*
X60397617Y-88162489D01*
X60465430Y-88149000D01*
X60534570Y-88149000D01*
X60602383Y-88162489D01*
G37*
G36*
X59602383Y-88162489D02*
G01*
X59602386Y-88162490D01*
X59602385Y-88162490D01*
X59666258Y-88188946D01*
X59723748Y-88227360D01*
X59772640Y-88276252D01*
X59811054Y-88333742D01*
X59832624Y-88385818D01*
X59837511Y-88397617D01*
X59851000Y-88465430D01*
X59851000Y-88534570D01*
X59837511Y-88602383D01*
X59837510Y-88602385D01*
X59811054Y-88666258D01*
X59772640Y-88723748D01*
X59723748Y-88772640D01*
X59666258Y-88811054D01*
X59614182Y-88832624D01*
X59602383Y-88837511D01*
X59534570Y-88851000D01*
X59465430Y-88851000D01*
X59397617Y-88837511D01*
X59385818Y-88832624D01*
X59333742Y-88811054D01*
X59276252Y-88772640D01*
X59227360Y-88723748D01*
X59188946Y-88666258D01*
X59162490Y-88602385D01*
X59162489Y-88602383D01*
X59149000Y-88534570D01*
X59149000Y-88465430D01*
X59162489Y-88397617D01*
X59167376Y-88385818D01*
X59188946Y-88333742D01*
X59227360Y-88276252D01*
X59276252Y-88227360D01*
X59333742Y-88188946D01*
X59397615Y-88162490D01*
X59397614Y-88162490D01*
X59397617Y-88162489D01*
X59465430Y-88149000D01*
X59534570Y-88149000D01*
X59602383Y-88162489D01*
G37*
G36*
X58602383Y-88162489D02*
G01*
X58602386Y-88162490D01*
X58602385Y-88162490D01*
X58666258Y-88188946D01*
X58723748Y-88227360D01*
X58772640Y-88276252D01*
X58811054Y-88333742D01*
X58832624Y-88385818D01*
X58837511Y-88397617D01*
X58851000Y-88465430D01*
X58851000Y-88534570D01*
X58837511Y-88602383D01*
X58837510Y-88602385D01*
X58811054Y-88666258D01*
X58772640Y-88723748D01*
X58723748Y-88772640D01*
X58666258Y-88811054D01*
X58614182Y-88832624D01*
X58602383Y-88837511D01*
X58534570Y-88851000D01*
X58465430Y-88851000D01*
X58397617Y-88837511D01*
X58385818Y-88832624D01*
X58333742Y-88811054D01*
X58276252Y-88772640D01*
X58227360Y-88723748D01*
X58188946Y-88666258D01*
X58162490Y-88602385D01*
X58162489Y-88602383D01*
X58149000Y-88534570D01*
X58149000Y-88465430D01*
X58162489Y-88397617D01*
X58167376Y-88385818D01*
X58188946Y-88333742D01*
X58227360Y-88276252D01*
X58276252Y-88227360D01*
X58333742Y-88188946D01*
X58397615Y-88162490D01*
X58397614Y-88162490D01*
X58397617Y-88162489D01*
X58465430Y-88149000D01*
X58534570Y-88149000D01*
X58602383Y-88162489D01*
G37*
G36*
X57602383Y-88162489D02*
G01*
X57602386Y-88162490D01*
X57602385Y-88162490D01*
X57666258Y-88188946D01*
X57723748Y-88227360D01*
X57772640Y-88276252D01*
X57811054Y-88333742D01*
X57832624Y-88385818D01*
X57837511Y-88397617D01*
X57851000Y-88465430D01*
X57851000Y-88534570D01*
X57837511Y-88602383D01*
X57837510Y-88602385D01*
X57811054Y-88666258D01*
X57772640Y-88723748D01*
X57723748Y-88772640D01*
X57666258Y-88811054D01*
X57614182Y-88832624D01*
X57602383Y-88837511D01*
X57534570Y-88851000D01*
X57465430Y-88851000D01*
X57397617Y-88837511D01*
X57385818Y-88832624D01*
X57333742Y-88811054D01*
X57276252Y-88772640D01*
X57227360Y-88723748D01*
X57188946Y-88666258D01*
X57162490Y-88602385D01*
X57162489Y-88602383D01*
X57149000Y-88534570D01*
X57149000Y-88465430D01*
X57162489Y-88397617D01*
X57167376Y-88385818D01*
X57188946Y-88333742D01*
X57227360Y-88276252D01*
X57276252Y-88227360D01*
X57333742Y-88188946D01*
X57397615Y-88162490D01*
X57397614Y-88162490D01*
X57397617Y-88162489D01*
X57465430Y-88149000D01*
X57534570Y-88149000D01*
X57602383Y-88162489D01*
G37*
G36*
X115102383Y-88162489D02*
G01*
X115102386Y-88162490D01*
X115102385Y-88162490D01*
X115166258Y-88188946D01*
X115223748Y-88227360D01*
X115272640Y-88276252D01*
X115311054Y-88333742D01*
X115332624Y-88385818D01*
X115337511Y-88397617D01*
X115351000Y-88465430D01*
X115351000Y-88534570D01*
X115337511Y-88602383D01*
X115337510Y-88602385D01*
X115311054Y-88666258D01*
X115272640Y-88723748D01*
X115223748Y-88772640D01*
X115166258Y-88811054D01*
X115114182Y-88832624D01*
X115102383Y-88837511D01*
X115034570Y-88851000D01*
X114965430Y-88851000D01*
X114897617Y-88837511D01*
X114885818Y-88832624D01*
X114833742Y-88811054D01*
X114776252Y-88772640D01*
X114727360Y-88723748D01*
X114688946Y-88666258D01*
X114662490Y-88602385D01*
X114662489Y-88602383D01*
X114649000Y-88534570D01*
X114649000Y-88465430D01*
X114662489Y-88397617D01*
X114667376Y-88385818D01*
X114688946Y-88333742D01*
X114727360Y-88276252D01*
X114776252Y-88227360D01*
X114833742Y-88188946D01*
X114897615Y-88162490D01*
X114897614Y-88162490D01*
X114897617Y-88162489D01*
X114965430Y-88149000D01*
X115034570Y-88149000D01*
X115102383Y-88162489D01*
G37*
G36*
X116102383Y-88162489D02*
G01*
X116102386Y-88162490D01*
X116102385Y-88162490D01*
X116166258Y-88188946D01*
X116223748Y-88227360D01*
X116272640Y-88276252D01*
X116311054Y-88333742D01*
X116332624Y-88385818D01*
X116337511Y-88397617D01*
X116351000Y-88465430D01*
X116351000Y-88534570D01*
X116337511Y-88602383D01*
X116337510Y-88602385D01*
X116311054Y-88666258D01*
X116272640Y-88723748D01*
X116223748Y-88772640D01*
X116166258Y-88811054D01*
X116114182Y-88832624D01*
X116102383Y-88837511D01*
X116034570Y-88851000D01*
X115965430Y-88851000D01*
X115897617Y-88837511D01*
X115885818Y-88832624D01*
X115833742Y-88811054D01*
X115776252Y-88772640D01*
X115727360Y-88723748D01*
X115688946Y-88666258D01*
X115662490Y-88602385D01*
X115662489Y-88602383D01*
X115649000Y-88534570D01*
X115649000Y-88465430D01*
X115662489Y-88397617D01*
X115667376Y-88385818D01*
X115688946Y-88333742D01*
X115727360Y-88276252D01*
X115776252Y-88227360D01*
X115833742Y-88188946D01*
X115897615Y-88162490D01*
X115897614Y-88162490D01*
X115897617Y-88162489D01*
X115965430Y-88149000D01*
X116034570Y-88149000D01*
X116102383Y-88162489D01*
G37*
G36*
X62602383Y-88162489D02*
G01*
X62602386Y-88162490D01*
X62602385Y-88162490D01*
X62666258Y-88188946D01*
X62723748Y-88227360D01*
X62772640Y-88276252D01*
X62811054Y-88333742D01*
X62832624Y-88385818D01*
X62837511Y-88397617D01*
X62851000Y-88465430D01*
X62851000Y-88534570D01*
X62837511Y-88602383D01*
X62837510Y-88602385D01*
X62811054Y-88666258D01*
X62772640Y-88723748D01*
X62723748Y-88772640D01*
X62666258Y-88811054D01*
X62614182Y-88832624D01*
X62602383Y-88837511D01*
X62534570Y-88851000D01*
X62465430Y-88851000D01*
X62397617Y-88837511D01*
X62385818Y-88832624D01*
X62333742Y-88811054D01*
X62276252Y-88772640D01*
X62227360Y-88723748D01*
X62188946Y-88666258D01*
X62162490Y-88602385D01*
X62162489Y-88602383D01*
X62149000Y-88534570D01*
X62149000Y-88465430D01*
X62162489Y-88397617D01*
X62167376Y-88385818D01*
X62188946Y-88333742D01*
X62227360Y-88276252D01*
X62276252Y-88227360D01*
X62333742Y-88188946D01*
X62397615Y-88162490D01*
X62397614Y-88162490D01*
X62397617Y-88162489D01*
X62465430Y-88149000D01*
X62534570Y-88149000D01*
X62602383Y-88162489D01*
G37*
G36*
X89102383Y-88079989D02*
G01*
X89114182Y-88084876D01*
X89166258Y-88106446D01*
X89223748Y-88144860D01*
X89272640Y-88193752D01*
X89311054Y-88251242D01*
X89321413Y-88276252D01*
X89337511Y-88315117D01*
X89351000Y-88382930D01*
X89351000Y-88452070D01*
X89337511Y-88519883D01*
X89337510Y-88519885D01*
X89311054Y-88583758D01*
X89272640Y-88641248D01*
X89223748Y-88690140D01*
X89166258Y-88728554D01*
X89114182Y-88750124D01*
X89102383Y-88755011D01*
X89034570Y-88768500D01*
X88965430Y-88768500D01*
X88897617Y-88755011D01*
X88885818Y-88750124D01*
X88833742Y-88728554D01*
X88776252Y-88690140D01*
X88727360Y-88641248D01*
X88688946Y-88583758D01*
X88662490Y-88519885D01*
X88662489Y-88519883D01*
X88649000Y-88452070D01*
X88649000Y-88382930D01*
X88662489Y-88315117D01*
X88678587Y-88276252D01*
X88688946Y-88251242D01*
X88727360Y-88193752D01*
X88776252Y-88144860D01*
X88833742Y-88106446D01*
X88885818Y-88084876D01*
X88897617Y-88079989D01*
X88965430Y-88066500D01*
X89034570Y-88066500D01*
X89102383Y-88079989D01*
G37*
G36*
X85102383Y-88079989D02*
G01*
X85114182Y-88084876D01*
X85166258Y-88106446D01*
X85223748Y-88144860D01*
X85272640Y-88193752D01*
X85311054Y-88251242D01*
X85321413Y-88276252D01*
X85337511Y-88315117D01*
X85351000Y-88382930D01*
X85351000Y-88452070D01*
X85337511Y-88519883D01*
X85337510Y-88519885D01*
X85311054Y-88583758D01*
X85272640Y-88641248D01*
X85223748Y-88690140D01*
X85166258Y-88728554D01*
X85114182Y-88750124D01*
X85102383Y-88755011D01*
X85034570Y-88768500D01*
X84965430Y-88768500D01*
X84897617Y-88755011D01*
X84885818Y-88750124D01*
X84833742Y-88728554D01*
X84776252Y-88690140D01*
X84727360Y-88641248D01*
X84688946Y-88583758D01*
X84662490Y-88519885D01*
X84662489Y-88519883D01*
X84649000Y-88452070D01*
X84649000Y-88382930D01*
X84662489Y-88315117D01*
X84678587Y-88276252D01*
X84688946Y-88251242D01*
X84727360Y-88193752D01*
X84776252Y-88144860D01*
X84833742Y-88106446D01*
X84885818Y-88084876D01*
X84897617Y-88079989D01*
X84965430Y-88066500D01*
X85034570Y-88066500D01*
X85102383Y-88079989D01*
G37*
G36*
X90102383Y-88079989D02*
G01*
X90114182Y-88084876D01*
X90166258Y-88106446D01*
X90223748Y-88144860D01*
X90272640Y-88193752D01*
X90311054Y-88251242D01*
X90321413Y-88276252D01*
X90337511Y-88315117D01*
X90351000Y-88382930D01*
X90351000Y-88452070D01*
X90337511Y-88519883D01*
X90337510Y-88519885D01*
X90311054Y-88583758D01*
X90272640Y-88641248D01*
X90223748Y-88690140D01*
X90166258Y-88728554D01*
X90114182Y-88750124D01*
X90102383Y-88755011D01*
X90034570Y-88768500D01*
X89965430Y-88768500D01*
X89897617Y-88755011D01*
X89885818Y-88750124D01*
X89833742Y-88728554D01*
X89776252Y-88690140D01*
X89727360Y-88641248D01*
X89688946Y-88583758D01*
X89662490Y-88519885D01*
X89662489Y-88519883D01*
X89649000Y-88452070D01*
X89649000Y-88382930D01*
X89662489Y-88315117D01*
X89678587Y-88276252D01*
X89688946Y-88251242D01*
X89727360Y-88193752D01*
X89776252Y-88144860D01*
X89833742Y-88106446D01*
X89885818Y-88084876D01*
X89897617Y-88079989D01*
X89965430Y-88066500D01*
X90034570Y-88066500D01*
X90102383Y-88079989D01*
G37*
G36*
X86102383Y-88079989D02*
G01*
X86114182Y-88084876D01*
X86166258Y-88106446D01*
X86223748Y-88144860D01*
X86272640Y-88193752D01*
X86311054Y-88251242D01*
X86321413Y-88276252D01*
X86337511Y-88315117D01*
X86351000Y-88382930D01*
X86351000Y-88452070D01*
X86337511Y-88519883D01*
X86337510Y-88519885D01*
X86311054Y-88583758D01*
X86272640Y-88641248D01*
X86223748Y-88690140D01*
X86166258Y-88728554D01*
X86114182Y-88750124D01*
X86102383Y-88755011D01*
X86034570Y-88768500D01*
X85965430Y-88768500D01*
X85897617Y-88755011D01*
X85885818Y-88750124D01*
X85833742Y-88728554D01*
X85776252Y-88690140D01*
X85727360Y-88641248D01*
X85688946Y-88583758D01*
X85662490Y-88519885D01*
X85662489Y-88519883D01*
X85649000Y-88452070D01*
X85649000Y-88382930D01*
X85662489Y-88315117D01*
X85678587Y-88276252D01*
X85688946Y-88251242D01*
X85727360Y-88193752D01*
X85776252Y-88144860D01*
X85833742Y-88106446D01*
X85885818Y-88084876D01*
X85897617Y-88079989D01*
X85965430Y-88066500D01*
X86034570Y-88066500D01*
X86102383Y-88079989D01*
G37*
G36*
X87102383Y-88079989D02*
G01*
X87114182Y-88084876D01*
X87166258Y-88106446D01*
X87223748Y-88144860D01*
X87272640Y-88193752D01*
X87311054Y-88251242D01*
X87321413Y-88276252D01*
X87337511Y-88315117D01*
X87351000Y-88382930D01*
X87351000Y-88452070D01*
X87337511Y-88519883D01*
X87337510Y-88519885D01*
X87311054Y-88583758D01*
X87272640Y-88641248D01*
X87223748Y-88690140D01*
X87166258Y-88728554D01*
X87114182Y-88750124D01*
X87102383Y-88755011D01*
X87034570Y-88768500D01*
X86965430Y-88768500D01*
X86897617Y-88755011D01*
X86885818Y-88750124D01*
X86833742Y-88728554D01*
X86776252Y-88690140D01*
X86727360Y-88641248D01*
X86688946Y-88583758D01*
X86662490Y-88519885D01*
X86662489Y-88519883D01*
X86649000Y-88452070D01*
X86649000Y-88382930D01*
X86662489Y-88315117D01*
X86678587Y-88276252D01*
X86688946Y-88251242D01*
X86727360Y-88193752D01*
X86776252Y-88144860D01*
X86833742Y-88106446D01*
X86885818Y-88084876D01*
X86897617Y-88079989D01*
X86965430Y-88066500D01*
X87034570Y-88066500D01*
X87102383Y-88079989D01*
G37*
G36*
X88102383Y-88079989D02*
G01*
X88114182Y-88084876D01*
X88166258Y-88106446D01*
X88223748Y-88144860D01*
X88272640Y-88193752D01*
X88311054Y-88251242D01*
X88321413Y-88276252D01*
X88337511Y-88315117D01*
X88351000Y-88382930D01*
X88351000Y-88452070D01*
X88337511Y-88519883D01*
X88337510Y-88519885D01*
X88311054Y-88583758D01*
X88272640Y-88641248D01*
X88223748Y-88690140D01*
X88166258Y-88728554D01*
X88114182Y-88750124D01*
X88102383Y-88755011D01*
X88034570Y-88768500D01*
X87965430Y-88768500D01*
X87897617Y-88755011D01*
X87885818Y-88750124D01*
X87833742Y-88728554D01*
X87776252Y-88690140D01*
X87727360Y-88641248D01*
X87688946Y-88583758D01*
X87662490Y-88519885D01*
X87662489Y-88519883D01*
X87649000Y-88452070D01*
X87649000Y-88382930D01*
X87662489Y-88315117D01*
X87678587Y-88276252D01*
X87688946Y-88251242D01*
X87727360Y-88193752D01*
X87776252Y-88144860D01*
X87833742Y-88106446D01*
X87885818Y-88084876D01*
X87897617Y-88079989D01*
X87965430Y-88066500D01*
X88034570Y-88066500D01*
X88102383Y-88079989D01*
G37*
G36*
X55009239Y-81586467D02*
G01*
X55323282Y-81648934D01*
X55914926Y-81894001D01*
X56447392Y-82249784D01*
X56900216Y-82702608D01*
X57255999Y-83235074D01*
X57501066Y-83826718D01*
X57626000Y-84454804D01*
X57626000Y-85095196D01*
X57501066Y-85723282D01*
X57255999Y-86314926D01*
X56900216Y-86847392D01*
X56447392Y-87300216D01*
X55914926Y-87655999D01*
X55323282Y-87901066D01*
X55151819Y-87935172D01*
X54695197Y-88026000D01*
X54054803Y-88026000D01*
X53598181Y-87935172D01*
X53426718Y-87901066D01*
X52835074Y-87655999D01*
X52302608Y-87300216D01*
X51849784Y-86847392D01*
X51494001Y-86314926D01*
X51248934Y-85723282D01*
X51124000Y-85095196D01*
X51124000Y-84454804D01*
X51248934Y-83826718D01*
X51494001Y-83235074D01*
X51849784Y-82702608D01*
X52302608Y-82249784D01*
X52835074Y-81894001D01*
X53426718Y-81648934D01*
X53740761Y-81586467D01*
X54054803Y-81524000D01*
X54695197Y-81524000D01*
X55009239Y-81586467D01*
G37*
G36*
X64119166Y-64662321D02*
G01*
X65129383Y-65080767D01*
X65129385Y-65080768D01*
X65358220Y-65233670D01*
X66038556Y-65688256D01*
X66811744Y-66461444D01*
X67419233Y-67370617D01*
X67837679Y-68380834D01*
X68051000Y-69453273D01*
X68051000Y-70546727D01*
X67837679Y-71619166D01*
X67419233Y-72629383D01*
X66811744Y-73538556D01*
X66038556Y-74311744D01*
X65358220Y-74766330D01*
X65129385Y-74919232D01*
X65129384Y-74919233D01*
X65129383Y-74919233D01*
X64119166Y-75337679D01*
X63046727Y-75551000D01*
X61953273Y-75551000D01*
X60880834Y-75337679D01*
X59870617Y-74919233D01*
X59870616Y-74919233D01*
X59870615Y-74919232D01*
X59641780Y-74766329D01*
X58961444Y-74311744D01*
X58188256Y-73538556D01*
X57580767Y-72629383D01*
X57162321Y-71619166D01*
X56949000Y-70546727D01*
X56949000Y-69453273D01*
X57162321Y-68380834D01*
X57580767Y-67370617D01*
X58188256Y-66461444D01*
X58961444Y-65688256D01*
X59641780Y-65233671D01*
X59870615Y-65080768D01*
X59870617Y-65080767D01*
X60880834Y-64662321D01*
X61953273Y-64449000D01*
X63046727Y-64449000D01*
X64119166Y-64662321D01*
G37*
G36*
X121259239Y-50536467D02*
G01*
X121573282Y-50598934D01*
X122164926Y-50844001D01*
X122697392Y-51199784D01*
X123150216Y-51652608D01*
X123505999Y-52185074D01*
X123751066Y-52776718D01*
X123876000Y-53404804D01*
X123876000Y-54045196D01*
X123751066Y-54673282D01*
X123505999Y-55264926D01*
X123150216Y-55797392D01*
X122697392Y-56250216D01*
X122164926Y-56605999D01*
X121573282Y-56851066D01*
X121259239Y-56913533D01*
X120945197Y-56976000D01*
X120304803Y-56976000D01*
X119990761Y-56913533D01*
X119676718Y-56851066D01*
X119085074Y-56605999D01*
X118552608Y-56250216D01*
X118099784Y-55797392D01*
X117744001Y-55264926D01*
X117498934Y-54673282D01*
X117374000Y-54045196D01*
X117374000Y-53404804D01*
X117498934Y-52776718D01*
X117744001Y-52185074D01*
X118099784Y-51652608D01*
X118552608Y-51199784D01*
X119085074Y-50844001D01*
X119676718Y-50598934D01*
X119990761Y-50536467D01*
X120304803Y-50474000D01*
X120945197Y-50474000D01*
X121259239Y-50536467D01*
G37*
G36*
X55009239Y-50536467D02*
G01*
X55323282Y-50598934D01*
X55914926Y-50844001D01*
X56447392Y-51199784D01*
X56900216Y-51652608D01*
X57255999Y-52185074D01*
X57501066Y-52776718D01*
X57626000Y-53404804D01*
X57626000Y-54045196D01*
X57501066Y-54673282D01*
X57255999Y-55264926D01*
X56900216Y-55797392D01*
X56447392Y-56250216D01*
X55914926Y-56605999D01*
X55323282Y-56851066D01*
X55009239Y-56913533D01*
X54695197Y-56976000D01*
X54054803Y-56976000D01*
X53740761Y-56913533D01*
X53426718Y-56851066D01*
X52835074Y-56605999D01*
X52302608Y-56250216D01*
X51849784Y-55797392D01*
X51494001Y-55264926D01*
X51248934Y-54673282D01*
X51124000Y-54045196D01*
X51124000Y-53404804D01*
X51248934Y-52776718D01*
X51494001Y-52185074D01*
X51849784Y-51652608D01*
X52302608Y-51199784D01*
X52835074Y-50844001D01*
X53426718Y-50598934D01*
X53740761Y-50536467D01*
X54054803Y-50474000D01*
X54695197Y-50474000D01*
X55009239Y-50536467D01*
G37*
M02*
