G04 #@! TF.GenerationSoftware,KiCad,Pcbnew,(5.1.5)-3*
G04 #@! TF.CreationDate,2020-02-21T13:09:46+01:00*
G04 #@! TF.ProjectId,radiointerface-panel,72616469-6f69-46e7-9465-72666163652d,rev?*
G04 #@! TF.SameCoordinates,Original*
G04 #@! TF.FileFunction,Soldermask,Bot*
G04 #@! TF.FilePolarity,Negative*
%FSLAX46Y46*%
G04 Gerber Fmt 4.6, Leading zero omitted, Abs format (unit mm)*
G04 Created by KiCad (PCBNEW (5.1.5)-3) date 2020-02-21 13:09:46*
%MOMM*%
%LPD*%
G04 APERTURE LIST*
%ADD10C,0.100000*%
G04 APERTURE END LIST*
D10*
G36*
X57602383Y-94662489D02*
G01*
X57602386Y-94662490D01*
X57602385Y-94662490D01*
X57666258Y-94688946D01*
X57723748Y-94727360D01*
X57772640Y-94776252D01*
X57811054Y-94833742D01*
X57832624Y-94885818D01*
X57837511Y-94897617D01*
X57837863Y-94899388D01*
X57844976Y-94922837D01*
X57856527Y-94944447D01*
X57872073Y-94963389D01*
X57891015Y-94978934D01*
X57912625Y-94990485D01*
X57936074Y-94997598D01*
X57960460Y-95000000D01*
X58039540Y-95000000D01*
X58063926Y-94997598D01*
X58087375Y-94990485D01*
X58108986Y-94978934D01*
X58127928Y-94963389D01*
X58143473Y-94944447D01*
X58155024Y-94922836D01*
X58162137Y-94899388D01*
X58162489Y-94897617D01*
X58167376Y-94885818D01*
X58188946Y-94833742D01*
X58227360Y-94776252D01*
X58276252Y-94727360D01*
X58333742Y-94688946D01*
X58397615Y-94662490D01*
X58397614Y-94662490D01*
X58397617Y-94662489D01*
X58465430Y-94649000D01*
X58534570Y-94649000D01*
X58602383Y-94662489D01*
X58602386Y-94662490D01*
X58602385Y-94662490D01*
X58666258Y-94688946D01*
X58723748Y-94727360D01*
X58772640Y-94776252D01*
X58811054Y-94833742D01*
X58832624Y-94885818D01*
X58837511Y-94897617D01*
X58837863Y-94899388D01*
X58844976Y-94922837D01*
X58856527Y-94944447D01*
X58872073Y-94963389D01*
X58891015Y-94978934D01*
X58912625Y-94990485D01*
X58936074Y-94997598D01*
X58960460Y-95000000D01*
X59039540Y-95000000D01*
X59063926Y-94997598D01*
X59087375Y-94990485D01*
X59108986Y-94978934D01*
X59127928Y-94963389D01*
X59143473Y-94944447D01*
X59155024Y-94922836D01*
X59162137Y-94899388D01*
X59162489Y-94897617D01*
X59167376Y-94885818D01*
X59188946Y-94833742D01*
X59227360Y-94776252D01*
X59276252Y-94727360D01*
X59333742Y-94688946D01*
X59397615Y-94662490D01*
X59397614Y-94662490D01*
X59397617Y-94662489D01*
X59465430Y-94649000D01*
X59534570Y-94649000D01*
X59602383Y-94662489D01*
X59602386Y-94662490D01*
X59602385Y-94662490D01*
X59666258Y-94688946D01*
X59723748Y-94727360D01*
X59772640Y-94776252D01*
X59811054Y-94833742D01*
X59832624Y-94885818D01*
X59837511Y-94897617D01*
X59837863Y-94899388D01*
X59844976Y-94922837D01*
X59856527Y-94944447D01*
X59872073Y-94963389D01*
X59891015Y-94978934D01*
X59912625Y-94990485D01*
X59936074Y-94997598D01*
X59960460Y-95000000D01*
X60039540Y-95000000D01*
X60063926Y-94997598D01*
X60087375Y-94990485D01*
X60108986Y-94978934D01*
X60127928Y-94963389D01*
X60143473Y-94944447D01*
X60155024Y-94922836D01*
X60162137Y-94899388D01*
X60162489Y-94897617D01*
X60167376Y-94885818D01*
X60188946Y-94833742D01*
X60227360Y-94776252D01*
X60276252Y-94727360D01*
X60333742Y-94688946D01*
X60397615Y-94662490D01*
X60397614Y-94662490D01*
X60397617Y-94662489D01*
X60465430Y-94649000D01*
X60534570Y-94649000D01*
X60602383Y-94662489D01*
X60602386Y-94662490D01*
X60602385Y-94662490D01*
X60666258Y-94688946D01*
X60723748Y-94727360D01*
X60772640Y-94776252D01*
X60811054Y-94833742D01*
X60832624Y-94885818D01*
X60837511Y-94897617D01*
X60837863Y-94899388D01*
X60844976Y-94922837D01*
X60856527Y-94944447D01*
X60872073Y-94963389D01*
X60891015Y-94978934D01*
X60912625Y-94990485D01*
X60936074Y-94997598D01*
X60960460Y-95000000D01*
X61039540Y-95000000D01*
X61063926Y-94997598D01*
X61087375Y-94990485D01*
X61108986Y-94978934D01*
X61127928Y-94963389D01*
X61143473Y-94944447D01*
X61155024Y-94922836D01*
X61162137Y-94899388D01*
X61162489Y-94897617D01*
X61167376Y-94885818D01*
X61188946Y-94833742D01*
X61227360Y-94776252D01*
X61276252Y-94727360D01*
X61333742Y-94688946D01*
X61397615Y-94662490D01*
X61397614Y-94662490D01*
X61397617Y-94662489D01*
X61465430Y-94649000D01*
X61534570Y-94649000D01*
X61602383Y-94662489D01*
X61602386Y-94662490D01*
X61602385Y-94662490D01*
X61666258Y-94688946D01*
X61723748Y-94727360D01*
X61772640Y-94776252D01*
X61811054Y-94833742D01*
X61832624Y-94885818D01*
X61837511Y-94897617D01*
X61837863Y-94899388D01*
X61844976Y-94922837D01*
X61856527Y-94944447D01*
X61872073Y-94963389D01*
X61891015Y-94978934D01*
X61912625Y-94990485D01*
X61936074Y-94997598D01*
X61960460Y-95000000D01*
X62039540Y-95000000D01*
X62063926Y-94997598D01*
X62087375Y-94990485D01*
X62108986Y-94978934D01*
X62127928Y-94963389D01*
X62143473Y-94944447D01*
X62155024Y-94922836D01*
X62162137Y-94899388D01*
X62162489Y-94897617D01*
X62167376Y-94885818D01*
X62188946Y-94833742D01*
X62227360Y-94776252D01*
X62276252Y-94727360D01*
X62333742Y-94688946D01*
X62397615Y-94662490D01*
X62397614Y-94662490D01*
X62397617Y-94662489D01*
X62465430Y-94649000D01*
X62534570Y-94649000D01*
X62602383Y-94662489D01*
X62602386Y-94662490D01*
X62602385Y-94662490D01*
X62666258Y-94688946D01*
X62723748Y-94727360D01*
X62772640Y-94776252D01*
X62811054Y-94833742D01*
X62832624Y-94885818D01*
X62837511Y-94897617D01*
X62837863Y-94899388D01*
X62844976Y-94922837D01*
X62856527Y-94944447D01*
X62872073Y-94963389D01*
X62891015Y-94978934D01*
X62912625Y-94990485D01*
X62936074Y-94997598D01*
X62960460Y-95000000D01*
X84539540Y-95000000D01*
X84563926Y-94997598D01*
X84587375Y-94990485D01*
X84608986Y-94978934D01*
X84627928Y-94963389D01*
X84643473Y-94944447D01*
X84655024Y-94922836D01*
X84662137Y-94899388D01*
X84662489Y-94897617D01*
X84667376Y-94885818D01*
X84688946Y-94833742D01*
X84727360Y-94776252D01*
X84776252Y-94727360D01*
X84833742Y-94688946D01*
X84897615Y-94662490D01*
X84897614Y-94662490D01*
X84897617Y-94662489D01*
X84965430Y-94649000D01*
X85034570Y-94649000D01*
X85102383Y-94662489D01*
X85102386Y-94662490D01*
X85102385Y-94662490D01*
X85166258Y-94688946D01*
X85223748Y-94727360D01*
X85272640Y-94776252D01*
X85311054Y-94833742D01*
X85332624Y-94885818D01*
X85337511Y-94897617D01*
X85337863Y-94899388D01*
X85344976Y-94922837D01*
X85356527Y-94944447D01*
X85372073Y-94963389D01*
X85391015Y-94978934D01*
X85412625Y-94990485D01*
X85436074Y-94997598D01*
X85460460Y-95000000D01*
X85539540Y-95000000D01*
X85563926Y-94997598D01*
X85587375Y-94990485D01*
X85608986Y-94978934D01*
X85627928Y-94963389D01*
X85643473Y-94944447D01*
X85655024Y-94922836D01*
X85662137Y-94899388D01*
X85662489Y-94897617D01*
X85667376Y-94885818D01*
X85688946Y-94833742D01*
X85727360Y-94776252D01*
X85776252Y-94727360D01*
X85833742Y-94688946D01*
X85897615Y-94662490D01*
X85897614Y-94662490D01*
X85897617Y-94662489D01*
X85965430Y-94649000D01*
X86034570Y-94649000D01*
X86102383Y-94662489D01*
X86102386Y-94662490D01*
X86102385Y-94662490D01*
X86166258Y-94688946D01*
X86223748Y-94727360D01*
X86272640Y-94776252D01*
X86311054Y-94833742D01*
X86332624Y-94885818D01*
X86337511Y-94897617D01*
X86337863Y-94899388D01*
X86344976Y-94922837D01*
X86356527Y-94944447D01*
X86372073Y-94963389D01*
X86391015Y-94978934D01*
X86412625Y-94990485D01*
X86436074Y-94997598D01*
X86460460Y-95000000D01*
X86539540Y-95000000D01*
X86563926Y-94997598D01*
X86587375Y-94990485D01*
X86608986Y-94978934D01*
X86627928Y-94963389D01*
X86643473Y-94944447D01*
X86655024Y-94922836D01*
X86662137Y-94899388D01*
X86662489Y-94897617D01*
X86667376Y-94885818D01*
X86688946Y-94833742D01*
X86727360Y-94776252D01*
X86776252Y-94727360D01*
X86833742Y-94688946D01*
X86897615Y-94662490D01*
X86897614Y-94662490D01*
X86897617Y-94662489D01*
X86965430Y-94649000D01*
X87034570Y-94649000D01*
X87102383Y-94662489D01*
X87102386Y-94662490D01*
X87102385Y-94662490D01*
X87166258Y-94688946D01*
X87223748Y-94727360D01*
X87272640Y-94776252D01*
X87311054Y-94833742D01*
X87332624Y-94885818D01*
X87337511Y-94897617D01*
X87337863Y-94899388D01*
X87344976Y-94922837D01*
X87356527Y-94944447D01*
X87372073Y-94963389D01*
X87391015Y-94978934D01*
X87412625Y-94990485D01*
X87436074Y-94997598D01*
X87460460Y-95000000D01*
X87539540Y-95000000D01*
X87563926Y-94997598D01*
X87587375Y-94990485D01*
X87608986Y-94978934D01*
X87627928Y-94963389D01*
X87643473Y-94944447D01*
X87655024Y-94922836D01*
X87662137Y-94899388D01*
X87662489Y-94897617D01*
X87667376Y-94885818D01*
X87688946Y-94833742D01*
X87727360Y-94776252D01*
X87776252Y-94727360D01*
X87833742Y-94688946D01*
X87897615Y-94662490D01*
X87897614Y-94662490D01*
X87897617Y-94662489D01*
X87965430Y-94649000D01*
X88034570Y-94649000D01*
X88102383Y-94662489D01*
X88102386Y-94662490D01*
X88102385Y-94662490D01*
X88166258Y-94688946D01*
X88223748Y-94727360D01*
X88272640Y-94776252D01*
X88311054Y-94833742D01*
X88332624Y-94885818D01*
X88337511Y-94897617D01*
X88337863Y-94899388D01*
X88344976Y-94922837D01*
X88356527Y-94944447D01*
X88372073Y-94963389D01*
X88391015Y-94978934D01*
X88412625Y-94990485D01*
X88436074Y-94997598D01*
X88460460Y-95000000D01*
X88539540Y-95000000D01*
X88563926Y-94997598D01*
X88587375Y-94990485D01*
X88608986Y-94978934D01*
X88627928Y-94963389D01*
X88643473Y-94944447D01*
X88655024Y-94922836D01*
X88662137Y-94899388D01*
X88662489Y-94897617D01*
X88667376Y-94885818D01*
X88688946Y-94833742D01*
X88727360Y-94776252D01*
X88776252Y-94727360D01*
X88833742Y-94688946D01*
X88897615Y-94662490D01*
X88897614Y-94662490D01*
X88897617Y-94662489D01*
X88965430Y-94649000D01*
X89034570Y-94649000D01*
X89102383Y-94662489D01*
X89102386Y-94662490D01*
X89102385Y-94662490D01*
X89166258Y-94688946D01*
X89223748Y-94727360D01*
X89272640Y-94776252D01*
X89311054Y-94833742D01*
X89332624Y-94885818D01*
X89337511Y-94897617D01*
X89337863Y-94899388D01*
X89344976Y-94922837D01*
X89356527Y-94944447D01*
X89372073Y-94963389D01*
X89391015Y-94978934D01*
X89412625Y-94990485D01*
X89436074Y-94997598D01*
X89460460Y-95000000D01*
X89539540Y-95000000D01*
X89563926Y-94997598D01*
X89587375Y-94990485D01*
X89608986Y-94978934D01*
X89627928Y-94963389D01*
X89643473Y-94944447D01*
X89655024Y-94922836D01*
X89662137Y-94899388D01*
X89662489Y-94897617D01*
X89667376Y-94885818D01*
X89688946Y-94833742D01*
X89727360Y-94776252D01*
X89776252Y-94727360D01*
X89833742Y-94688946D01*
X89897615Y-94662490D01*
X89897614Y-94662490D01*
X89897617Y-94662489D01*
X89965430Y-94649000D01*
X90034570Y-94649000D01*
X90102383Y-94662489D01*
X90102386Y-94662490D01*
X90102385Y-94662490D01*
X90166258Y-94688946D01*
X90223748Y-94727360D01*
X90272640Y-94776252D01*
X90311054Y-94833742D01*
X90332624Y-94885818D01*
X90337511Y-94897617D01*
X90337863Y-94899388D01*
X90344976Y-94922837D01*
X90356527Y-94944447D01*
X90372073Y-94963389D01*
X90391015Y-94978934D01*
X90412625Y-94990485D01*
X90436074Y-94997598D01*
X90460460Y-95000000D01*
X114539540Y-95000000D01*
X114563926Y-94997598D01*
X114587375Y-94990485D01*
X114608986Y-94978934D01*
X114627928Y-94963389D01*
X114643473Y-94944447D01*
X114655024Y-94922836D01*
X114662137Y-94899388D01*
X114662489Y-94897617D01*
X114667376Y-94885818D01*
X114688946Y-94833742D01*
X114727360Y-94776252D01*
X114776252Y-94727360D01*
X114833742Y-94688946D01*
X114897615Y-94662490D01*
X114897614Y-94662490D01*
X114897617Y-94662489D01*
X114965430Y-94649000D01*
X115034570Y-94649000D01*
X115102383Y-94662489D01*
X115102386Y-94662490D01*
X115102385Y-94662490D01*
X115166258Y-94688946D01*
X115223748Y-94727360D01*
X115272640Y-94776252D01*
X115311054Y-94833742D01*
X115332624Y-94885818D01*
X115337511Y-94897617D01*
X115337863Y-94899388D01*
X115344976Y-94922837D01*
X115356527Y-94944447D01*
X115372073Y-94963389D01*
X115391015Y-94978934D01*
X115412625Y-94990485D01*
X115436074Y-94997598D01*
X115460460Y-95000000D01*
X115539540Y-95000000D01*
X115563926Y-94997598D01*
X115587375Y-94990485D01*
X115608986Y-94978934D01*
X115627928Y-94963389D01*
X115643473Y-94944447D01*
X115655024Y-94922836D01*
X115662137Y-94899388D01*
X115662489Y-94897617D01*
X115667376Y-94885818D01*
X115688946Y-94833742D01*
X115727360Y-94776252D01*
X115776252Y-94727360D01*
X115833742Y-94688946D01*
X115897615Y-94662490D01*
X115897614Y-94662490D01*
X115897617Y-94662489D01*
X115965430Y-94649000D01*
X116034570Y-94649000D01*
X116102383Y-94662489D01*
X116102386Y-94662490D01*
X116102385Y-94662490D01*
X116166258Y-94688946D01*
X116223748Y-94727360D01*
X116272640Y-94776252D01*
X116311054Y-94833742D01*
X116332624Y-94885818D01*
X116337511Y-94897617D01*
X116337863Y-94899388D01*
X116344976Y-94922837D01*
X116356527Y-94944447D01*
X116372073Y-94963389D01*
X116391015Y-94978934D01*
X116412625Y-94990485D01*
X116436074Y-94997598D01*
X116460460Y-95000000D01*
X116539540Y-95000000D01*
X116563926Y-94997598D01*
X116587375Y-94990485D01*
X116608986Y-94978934D01*
X116627928Y-94963389D01*
X116643473Y-94944447D01*
X116655024Y-94922836D01*
X116662137Y-94899388D01*
X116662489Y-94897617D01*
X116667376Y-94885818D01*
X116688946Y-94833742D01*
X116727360Y-94776252D01*
X116776252Y-94727360D01*
X116833742Y-94688946D01*
X116897615Y-94662490D01*
X116897614Y-94662490D01*
X116897617Y-94662489D01*
X116965430Y-94649000D01*
X117034570Y-94649000D01*
X117102383Y-94662489D01*
X117102386Y-94662490D01*
X117102385Y-94662490D01*
X117166258Y-94688946D01*
X117223748Y-94727360D01*
X117272640Y-94776252D01*
X117311054Y-94833742D01*
X117332624Y-94885818D01*
X117337511Y-94897617D01*
X117337863Y-94899388D01*
X117344976Y-94922837D01*
X117356527Y-94944447D01*
X117372073Y-94963389D01*
X117391015Y-94978934D01*
X117412625Y-94990485D01*
X117436074Y-94997598D01*
X117460460Y-95000000D01*
X117539540Y-95000000D01*
X117563926Y-94997598D01*
X117587375Y-94990485D01*
X117608986Y-94978934D01*
X117627928Y-94963389D01*
X117643473Y-94944447D01*
X117655024Y-94922836D01*
X117662137Y-94899388D01*
X117662489Y-94897617D01*
X117667376Y-94885818D01*
X117688946Y-94833742D01*
X117727360Y-94776252D01*
X117776252Y-94727360D01*
X117833742Y-94688946D01*
X117897615Y-94662490D01*
X117897614Y-94662490D01*
X117897617Y-94662489D01*
X117965430Y-94649000D01*
X118034570Y-94649000D01*
X118102383Y-94662489D01*
X118102386Y-94662490D01*
X118102385Y-94662490D01*
X118166258Y-94688946D01*
X118223748Y-94727360D01*
X118272640Y-94776252D01*
X118311054Y-94833742D01*
X118332624Y-94885818D01*
X118337511Y-94897617D01*
X118337863Y-94899388D01*
X118344976Y-94922837D01*
X118356527Y-94944447D01*
X118372073Y-94963389D01*
X118391015Y-94978934D01*
X118412625Y-94990485D01*
X118436074Y-94997598D01*
X118460460Y-95000000D01*
X118539540Y-95000000D01*
X118563926Y-94997598D01*
X118587375Y-94990485D01*
X118608986Y-94978934D01*
X118627928Y-94963389D01*
X118643473Y-94944447D01*
X118655024Y-94922836D01*
X118662137Y-94899388D01*
X118662489Y-94897617D01*
X118667376Y-94885818D01*
X118688946Y-94833742D01*
X118727360Y-94776252D01*
X118776252Y-94727360D01*
X118833742Y-94688946D01*
X118897615Y-94662490D01*
X118897614Y-94662490D01*
X118897617Y-94662489D01*
X118965430Y-94649000D01*
X119034570Y-94649000D01*
X119102383Y-94662489D01*
X119102386Y-94662490D01*
X119102385Y-94662490D01*
X119166258Y-94688946D01*
X119223748Y-94727360D01*
X119272640Y-94776252D01*
X119311054Y-94833742D01*
X119332624Y-94885818D01*
X119337511Y-94897617D01*
X119337863Y-94899388D01*
X119344976Y-94922837D01*
X119356527Y-94944447D01*
X119372073Y-94963389D01*
X119391015Y-94978934D01*
X119412625Y-94990485D01*
X119436074Y-94997598D01*
X119460460Y-95000000D01*
X119539540Y-95000000D01*
X119563926Y-94997598D01*
X119587375Y-94990485D01*
X119608986Y-94978934D01*
X119627928Y-94963389D01*
X119643473Y-94944447D01*
X119655024Y-94922836D01*
X119662137Y-94899388D01*
X119662489Y-94897617D01*
X119667376Y-94885818D01*
X119688946Y-94833742D01*
X119727360Y-94776252D01*
X119776252Y-94727360D01*
X119833742Y-94688946D01*
X119897615Y-94662490D01*
X119897614Y-94662490D01*
X119897617Y-94662489D01*
X119965430Y-94649000D01*
X120034570Y-94649000D01*
X120102383Y-94662489D01*
X120102386Y-94662490D01*
X120102385Y-94662490D01*
X120166258Y-94688946D01*
X120223748Y-94727360D01*
X120272640Y-94776252D01*
X120311054Y-94833742D01*
X120332624Y-94885818D01*
X120337511Y-94897617D01*
X120337863Y-94899388D01*
X120344976Y-94922837D01*
X120356527Y-94944447D01*
X120372073Y-94963389D01*
X120391015Y-94978934D01*
X120412625Y-94990485D01*
X120436074Y-94997598D01*
X120460460Y-95000000D01*
X125000000Y-95000000D01*
X125000000Y-133500000D01*
X50000000Y-133500000D01*
X50000000Y-102100999D01*
X54000000Y-102100999D01*
X54000000Y-126399001D01*
X54002402Y-126423387D01*
X54009515Y-126446836D01*
X54021066Y-126468447D01*
X54036611Y-126487389D01*
X54055553Y-126502934D01*
X54077164Y-126514485D01*
X54100613Y-126521598D01*
X54124999Y-126524000D01*
X54695197Y-126524000D01*
X55009239Y-126586467D01*
X55323282Y-126648934D01*
X55914926Y-126894001D01*
X56447392Y-127249784D01*
X56900216Y-127702608D01*
X57255999Y-128235074D01*
X57501066Y-128826718D01*
X57501066Y-128826719D01*
X57626000Y-129454803D01*
X57626000Y-130095197D01*
X57575194Y-130350615D01*
X57572792Y-130375001D01*
X57575194Y-130399387D01*
X57582307Y-130422836D01*
X57593858Y-130444447D01*
X57609403Y-130463389D01*
X57628345Y-130478934D01*
X57649956Y-130490485D01*
X57673405Y-130497598D01*
X57697791Y-130500000D01*
X117302209Y-130500000D01*
X117326595Y-130497598D01*
X117350044Y-130490485D01*
X117371655Y-130478934D01*
X117390597Y-130463389D01*
X117406142Y-130444447D01*
X117417693Y-130422836D01*
X117424806Y-130399387D01*
X117427208Y-130375001D01*
X117424806Y-130350615D01*
X117374000Y-130095197D01*
X117374000Y-129454803D01*
X117498934Y-128826719D01*
X117498934Y-128826718D01*
X117744001Y-128235074D01*
X118099784Y-127702608D01*
X118552608Y-127249784D01*
X119085074Y-126894001D01*
X119676718Y-126648934D01*
X119990761Y-126586467D01*
X120304803Y-126524000D01*
X120875001Y-126524000D01*
X120899387Y-126521598D01*
X120922836Y-126514485D01*
X120944447Y-126502934D01*
X120963389Y-126487389D01*
X120978934Y-126468447D01*
X120990485Y-126446836D01*
X120997598Y-126423387D01*
X121000000Y-126399001D01*
X121000000Y-102100999D01*
X120997598Y-102076613D01*
X120990485Y-102053164D01*
X120978934Y-102031553D01*
X120963389Y-102012611D01*
X120944447Y-101997066D01*
X120922836Y-101985515D01*
X120899387Y-101978402D01*
X120875001Y-101976000D01*
X120304803Y-101976000D01*
X119990761Y-101913533D01*
X119676718Y-101851066D01*
X119085074Y-101605999D01*
X118552608Y-101250216D01*
X118099784Y-100797392D01*
X117744001Y-100264926D01*
X117498934Y-99673282D01*
X117374000Y-99045196D01*
X117374000Y-98404804D01*
X117424806Y-98149385D01*
X117427208Y-98124999D01*
X117424806Y-98100613D01*
X117417693Y-98077164D01*
X117406142Y-98055553D01*
X117390597Y-98036611D01*
X117371655Y-98021066D01*
X117350044Y-98009515D01*
X117326595Y-98002402D01*
X117302209Y-98000000D01*
X57697791Y-98000000D01*
X57673405Y-98002402D01*
X57649956Y-98009515D01*
X57628345Y-98021066D01*
X57609403Y-98036611D01*
X57593858Y-98055553D01*
X57582307Y-98077164D01*
X57575194Y-98100613D01*
X57572792Y-98124999D01*
X57575194Y-98149385D01*
X57626000Y-98404804D01*
X57626000Y-99045196D01*
X57501066Y-99673282D01*
X57255999Y-100264926D01*
X56900216Y-100797392D01*
X56447392Y-101250216D01*
X55914926Y-101605999D01*
X55323282Y-101851066D01*
X55009239Y-101913533D01*
X54695197Y-101976000D01*
X54124999Y-101976000D01*
X54100613Y-101978402D01*
X54077164Y-101985515D01*
X54055553Y-101997066D01*
X54036611Y-102012611D01*
X54021066Y-102031553D01*
X54009515Y-102053164D01*
X54002402Y-102076613D01*
X54000000Y-102100999D01*
X50000000Y-102100999D01*
X50000000Y-95000000D01*
X57039540Y-95000000D01*
X57063926Y-94997598D01*
X57087375Y-94990485D01*
X57108986Y-94978934D01*
X57127928Y-94963389D01*
X57143473Y-94944447D01*
X57155024Y-94922836D01*
X57162137Y-94899388D01*
X57162489Y-94897617D01*
X57167376Y-94885818D01*
X57188946Y-94833742D01*
X57227360Y-94776252D01*
X57276252Y-94727360D01*
X57333742Y-94688946D01*
X57397615Y-94662490D01*
X57397614Y-94662490D01*
X57397617Y-94662489D01*
X57465430Y-94649000D01*
X57534570Y-94649000D01*
X57602383Y-94662489D01*
G37*
G36*
X125000000Y-88500000D02*
G01*
X120460460Y-88500000D01*
X120436074Y-88502402D01*
X120412625Y-88509515D01*
X120391014Y-88521066D01*
X120372072Y-88536611D01*
X120356527Y-88555553D01*
X120344976Y-88577164D01*
X120337864Y-88600609D01*
X120337511Y-88602383D01*
X120337510Y-88602385D01*
X120311054Y-88666258D01*
X120272640Y-88723748D01*
X120223748Y-88772640D01*
X120166258Y-88811054D01*
X120114182Y-88832624D01*
X120102383Y-88837511D01*
X120034570Y-88851000D01*
X119965430Y-88851000D01*
X119897617Y-88837511D01*
X119885818Y-88832624D01*
X119833742Y-88811054D01*
X119776252Y-88772640D01*
X119727360Y-88723748D01*
X119688946Y-88666258D01*
X119662490Y-88602385D01*
X119662489Y-88602383D01*
X119662136Y-88600609D01*
X119655024Y-88577163D01*
X119643473Y-88555553D01*
X119627927Y-88536611D01*
X119608985Y-88521066D01*
X119587375Y-88509515D01*
X119563926Y-88502402D01*
X119539540Y-88500000D01*
X119460460Y-88500000D01*
X119436074Y-88502402D01*
X119412625Y-88509515D01*
X119391014Y-88521066D01*
X119372072Y-88536611D01*
X119356527Y-88555553D01*
X119344976Y-88577164D01*
X119337864Y-88600609D01*
X119337511Y-88602383D01*
X119337510Y-88602385D01*
X119311054Y-88666258D01*
X119272640Y-88723748D01*
X119223748Y-88772640D01*
X119166258Y-88811054D01*
X119114182Y-88832624D01*
X119102383Y-88837511D01*
X119034570Y-88851000D01*
X118965430Y-88851000D01*
X118897617Y-88837511D01*
X118885818Y-88832624D01*
X118833742Y-88811054D01*
X118776252Y-88772640D01*
X118727360Y-88723748D01*
X118688946Y-88666258D01*
X118662490Y-88602385D01*
X118662489Y-88602383D01*
X118662136Y-88600609D01*
X118655024Y-88577163D01*
X118643473Y-88555553D01*
X118627927Y-88536611D01*
X118608985Y-88521066D01*
X118587375Y-88509515D01*
X118563926Y-88502402D01*
X118539540Y-88500000D01*
X118460460Y-88500000D01*
X118436074Y-88502402D01*
X118412625Y-88509515D01*
X118391014Y-88521066D01*
X118372072Y-88536611D01*
X118356527Y-88555553D01*
X118344976Y-88577164D01*
X118337864Y-88600609D01*
X118337511Y-88602383D01*
X118337510Y-88602385D01*
X118311054Y-88666258D01*
X118272640Y-88723748D01*
X118223748Y-88772640D01*
X118166258Y-88811054D01*
X118114182Y-88832624D01*
X118102383Y-88837511D01*
X118034570Y-88851000D01*
X117965430Y-88851000D01*
X117897617Y-88837511D01*
X117885818Y-88832624D01*
X117833742Y-88811054D01*
X117776252Y-88772640D01*
X117727360Y-88723748D01*
X117688946Y-88666258D01*
X117662490Y-88602385D01*
X117662489Y-88602383D01*
X117662136Y-88600609D01*
X117655024Y-88577163D01*
X117643473Y-88555553D01*
X117627927Y-88536611D01*
X117608985Y-88521066D01*
X117587375Y-88509515D01*
X117563926Y-88502402D01*
X117539540Y-88500000D01*
X117460460Y-88500000D01*
X117436074Y-88502402D01*
X117412625Y-88509515D01*
X117391014Y-88521066D01*
X117372072Y-88536611D01*
X117356527Y-88555553D01*
X117344976Y-88577164D01*
X117337864Y-88600609D01*
X117337511Y-88602383D01*
X117337510Y-88602385D01*
X117311054Y-88666258D01*
X117272640Y-88723748D01*
X117223748Y-88772640D01*
X117166258Y-88811054D01*
X117114182Y-88832624D01*
X117102383Y-88837511D01*
X117034570Y-88851000D01*
X116965430Y-88851000D01*
X116897617Y-88837511D01*
X116885818Y-88832624D01*
X116833742Y-88811054D01*
X116776252Y-88772640D01*
X116727360Y-88723748D01*
X116688946Y-88666258D01*
X116662490Y-88602385D01*
X116662489Y-88602383D01*
X116662136Y-88600609D01*
X116655024Y-88577163D01*
X116643473Y-88555553D01*
X116627927Y-88536611D01*
X116608985Y-88521066D01*
X116587375Y-88509515D01*
X116563926Y-88502402D01*
X116539540Y-88500000D01*
X116460460Y-88500000D01*
X116436074Y-88502402D01*
X116412625Y-88509515D01*
X116391014Y-88521066D01*
X116372072Y-88536611D01*
X116356527Y-88555553D01*
X116344976Y-88577164D01*
X116337864Y-88600609D01*
X116337511Y-88602383D01*
X116337510Y-88602385D01*
X116311054Y-88666258D01*
X116272640Y-88723748D01*
X116223748Y-88772640D01*
X116166258Y-88811054D01*
X116114182Y-88832624D01*
X116102383Y-88837511D01*
X116034570Y-88851000D01*
X115965430Y-88851000D01*
X115897617Y-88837511D01*
X115885818Y-88832624D01*
X115833742Y-88811054D01*
X115776252Y-88772640D01*
X115727360Y-88723748D01*
X115688946Y-88666258D01*
X115662490Y-88602385D01*
X115662489Y-88602383D01*
X115662136Y-88600609D01*
X115655024Y-88577163D01*
X115643473Y-88555553D01*
X115627927Y-88536611D01*
X115608985Y-88521066D01*
X115587375Y-88509515D01*
X115563926Y-88502402D01*
X115539540Y-88500000D01*
X115460460Y-88500000D01*
X115436074Y-88502402D01*
X115412625Y-88509515D01*
X115391014Y-88521066D01*
X115372072Y-88536611D01*
X115356527Y-88555553D01*
X115344976Y-88577164D01*
X115337864Y-88600609D01*
X115337511Y-88602383D01*
X115337510Y-88602385D01*
X115311054Y-88666258D01*
X115272640Y-88723748D01*
X115223748Y-88772640D01*
X115166258Y-88811054D01*
X115114182Y-88832624D01*
X115102383Y-88837511D01*
X115034570Y-88851000D01*
X114965430Y-88851000D01*
X114897617Y-88837511D01*
X114885818Y-88832624D01*
X114833742Y-88811054D01*
X114776252Y-88772640D01*
X114727360Y-88723748D01*
X114688946Y-88666258D01*
X114662490Y-88602385D01*
X114662489Y-88602383D01*
X114662136Y-88600609D01*
X114655024Y-88577163D01*
X114643473Y-88555553D01*
X114627927Y-88536611D01*
X114608985Y-88521066D01*
X114587375Y-88509515D01*
X114563926Y-88502402D01*
X114539540Y-88500000D01*
X90429269Y-88500000D01*
X90404883Y-88502402D01*
X90381434Y-88509515D01*
X90359823Y-88521066D01*
X90340881Y-88536611D01*
X90325336Y-88555553D01*
X90313785Y-88577163D01*
X90311052Y-88583761D01*
X90285385Y-88622173D01*
X90272640Y-88641248D01*
X90223748Y-88690140D01*
X90166258Y-88728554D01*
X90114182Y-88750124D01*
X90102383Y-88755011D01*
X90034570Y-88768500D01*
X89965430Y-88768500D01*
X89897617Y-88755011D01*
X89885818Y-88750124D01*
X89833742Y-88728554D01*
X89776252Y-88690140D01*
X89727360Y-88641248D01*
X89714615Y-88622173D01*
X89688948Y-88583761D01*
X89686215Y-88577163D01*
X89674663Y-88555552D01*
X89659118Y-88536611D01*
X89640176Y-88521066D01*
X89618565Y-88509515D01*
X89595116Y-88502402D01*
X89570731Y-88500000D01*
X89429269Y-88500000D01*
X89404883Y-88502402D01*
X89381434Y-88509515D01*
X89359823Y-88521066D01*
X89340881Y-88536611D01*
X89325336Y-88555553D01*
X89313785Y-88577163D01*
X89311052Y-88583761D01*
X89285385Y-88622173D01*
X89272640Y-88641248D01*
X89223748Y-88690140D01*
X89166258Y-88728554D01*
X89114182Y-88750124D01*
X89102383Y-88755011D01*
X89034570Y-88768500D01*
X88965430Y-88768500D01*
X88897617Y-88755011D01*
X88885818Y-88750124D01*
X88833742Y-88728554D01*
X88776252Y-88690140D01*
X88727360Y-88641248D01*
X88714615Y-88622173D01*
X88688948Y-88583761D01*
X88686215Y-88577163D01*
X88674663Y-88555552D01*
X88659118Y-88536611D01*
X88640176Y-88521066D01*
X88618565Y-88509515D01*
X88595116Y-88502402D01*
X88570731Y-88500000D01*
X88429269Y-88500000D01*
X88404883Y-88502402D01*
X88381434Y-88509515D01*
X88359823Y-88521066D01*
X88340881Y-88536611D01*
X88325336Y-88555553D01*
X88313785Y-88577163D01*
X88311052Y-88583761D01*
X88285385Y-88622173D01*
X88272640Y-88641248D01*
X88223748Y-88690140D01*
X88166258Y-88728554D01*
X88114182Y-88750124D01*
X88102383Y-88755011D01*
X88034570Y-88768500D01*
X87965430Y-88768500D01*
X87897617Y-88755011D01*
X87885818Y-88750124D01*
X87833742Y-88728554D01*
X87776252Y-88690140D01*
X87727360Y-88641248D01*
X87714615Y-88622173D01*
X87688948Y-88583761D01*
X87686215Y-88577163D01*
X87674663Y-88555552D01*
X87659118Y-88536611D01*
X87640176Y-88521066D01*
X87618565Y-88509515D01*
X87595116Y-88502402D01*
X87570731Y-88500000D01*
X87429269Y-88500000D01*
X87404883Y-88502402D01*
X87381434Y-88509515D01*
X87359823Y-88521066D01*
X87340881Y-88536611D01*
X87325336Y-88555553D01*
X87313785Y-88577163D01*
X87311052Y-88583761D01*
X87285385Y-88622173D01*
X87272640Y-88641248D01*
X87223748Y-88690140D01*
X87166258Y-88728554D01*
X87114182Y-88750124D01*
X87102383Y-88755011D01*
X87034570Y-88768500D01*
X86965430Y-88768500D01*
X86897617Y-88755011D01*
X86885818Y-88750124D01*
X86833742Y-88728554D01*
X86776252Y-88690140D01*
X86727360Y-88641248D01*
X86714615Y-88622173D01*
X86688948Y-88583761D01*
X86686215Y-88577163D01*
X86674663Y-88555552D01*
X86659118Y-88536611D01*
X86640176Y-88521066D01*
X86618565Y-88509515D01*
X86595116Y-88502402D01*
X86570731Y-88500000D01*
X86429269Y-88500000D01*
X86404883Y-88502402D01*
X86381434Y-88509515D01*
X86359823Y-88521066D01*
X86340881Y-88536611D01*
X86325336Y-88555553D01*
X86313785Y-88577163D01*
X86311052Y-88583761D01*
X86285385Y-88622173D01*
X86272640Y-88641248D01*
X86223748Y-88690140D01*
X86166258Y-88728554D01*
X86114182Y-88750124D01*
X86102383Y-88755011D01*
X86034570Y-88768500D01*
X85965430Y-88768500D01*
X85897617Y-88755011D01*
X85885818Y-88750124D01*
X85833742Y-88728554D01*
X85776252Y-88690140D01*
X85727360Y-88641248D01*
X85714615Y-88622173D01*
X85688948Y-88583761D01*
X85686215Y-88577163D01*
X85674663Y-88555552D01*
X85659118Y-88536611D01*
X85640176Y-88521066D01*
X85618565Y-88509515D01*
X85595116Y-88502402D01*
X85570731Y-88500000D01*
X85429269Y-88500000D01*
X85404883Y-88502402D01*
X85381434Y-88509515D01*
X85359823Y-88521066D01*
X85340881Y-88536611D01*
X85325336Y-88555553D01*
X85313785Y-88577163D01*
X85311052Y-88583761D01*
X85285385Y-88622173D01*
X85272640Y-88641248D01*
X85223748Y-88690140D01*
X85166258Y-88728554D01*
X85114182Y-88750124D01*
X85102383Y-88755011D01*
X85034570Y-88768500D01*
X84965430Y-88768500D01*
X84897617Y-88755011D01*
X84885818Y-88750124D01*
X84833742Y-88728554D01*
X84776252Y-88690140D01*
X84727360Y-88641248D01*
X84714615Y-88622173D01*
X84688948Y-88583761D01*
X84686215Y-88577163D01*
X84674663Y-88555552D01*
X84659118Y-88536611D01*
X84640176Y-88521066D01*
X84618565Y-88509515D01*
X84595116Y-88502402D01*
X84570731Y-88500000D01*
X62960460Y-88500000D01*
X62936074Y-88502402D01*
X62912625Y-88509515D01*
X62891014Y-88521066D01*
X62872072Y-88536611D01*
X62856527Y-88555553D01*
X62844976Y-88577164D01*
X62837864Y-88600609D01*
X62837511Y-88602383D01*
X62837510Y-88602385D01*
X62811054Y-88666258D01*
X62772640Y-88723748D01*
X62723748Y-88772640D01*
X62666258Y-88811054D01*
X62614182Y-88832624D01*
X62602383Y-88837511D01*
X62534570Y-88851000D01*
X62465430Y-88851000D01*
X62397617Y-88837511D01*
X62385818Y-88832624D01*
X62333742Y-88811054D01*
X62276252Y-88772640D01*
X62227360Y-88723748D01*
X62188946Y-88666258D01*
X62162490Y-88602385D01*
X62162489Y-88602383D01*
X62162136Y-88600609D01*
X62155024Y-88577163D01*
X62143473Y-88555553D01*
X62127927Y-88536611D01*
X62108985Y-88521066D01*
X62087375Y-88509515D01*
X62063926Y-88502402D01*
X62039540Y-88500000D01*
X61960460Y-88500000D01*
X61936074Y-88502402D01*
X61912625Y-88509515D01*
X61891014Y-88521066D01*
X61872072Y-88536611D01*
X61856527Y-88555553D01*
X61844976Y-88577164D01*
X61837864Y-88600609D01*
X61837511Y-88602383D01*
X61837510Y-88602385D01*
X61811054Y-88666258D01*
X61772640Y-88723748D01*
X61723748Y-88772640D01*
X61666258Y-88811054D01*
X61614182Y-88832624D01*
X61602383Y-88837511D01*
X61534570Y-88851000D01*
X61465430Y-88851000D01*
X61397617Y-88837511D01*
X61385818Y-88832624D01*
X61333742Y-88811054D01*
X61276252Y-88772640D01*
X61227360Y-88723748D01*
X61188946Y-88666258D01*
X61162490Y-88602385D01*
X61162489Y-88602383D01*
X61162136Y-88600609D01*
X61155024Y-88577163D01*
X61143473Y-88555553D01*
X61127927Y-88536611D01*
X61108985Y-88521066D01*
X61087375Y-88509515D01*
X61063926Y-88502402D01*
X61039540Y-88500000D01*
X60960460Y-88500000D01*
X60936074Y-88502402D01*
X60912625Y-88509515D01*
X60891014Y-88521066D01*
X60872072Y-88536611D01*
X60856527Y-88555553D01*
X60844976Y-88577164D01*
X60837864Y-88600609D01*
X60837511Y-88602383D01*
X60837510Y-88602385D01*
X60811054Y-88666258D01*
X60772640Y-88723748D01*
X60723748Y-88772640D01*
X60666258Y-88811054D01*
X60614182Y-88832624D01*
X60602383Y-88837511D01*
X60534570Y-88851000D01*
X60465430Y-88851000D01*
X60397617Y-88837511D01*
X60385818Y-88832624D01*
X60333742Y-88811054D01*
X60276252Y-88772640D01*
X60227360Y-88723748D01*
X60188946Y-88666258D01*
X60162490Y-88602385D01*
X60162489Y-88602383D01*
X60162136Y-88600609D01*
X60155024Y-88577163D01*
X60143473Y-88555553D01*
X60127927Y-88536611D01*
X60108985Y-88521066D01*
X60087375Y-88509515D01*
X60063926Y-88502402D01*
X60039540Y-88500000D01*
X59960460Y-88500000D01*
X59936074Y-88502402D01*
X59912625Y-88509515D01*
X59891014Y-88521066D01*
X59872072Y-88536611D01*
X59856527Y-88555553D01*
X59844976Y-88577164D01*
X59837864Y-88600609D01*
X59837511Y-88602383D01*
X59837510Y-88602385D01*
X59811054Y-88666258D01*
X59772640Y-88723748D01*
X59723748Y-88772640D01*
X59666258Y-88811054D01*
X59614182Y-88832624D01*
X59602383Y-88837511D01*
X59534570Y-88851000D01*
X59465430Y-88851000D01*
X59397617Y-88837511D01*
X59385818Y-88832624D01*
X59333742Y-88811054D01*
X59276252Y-88772640D01*
X59227360Y-88723748D01*
X59188946Y-88666258D01*
X59162490Y-88602385D01*
X59162489Y-88602383D01*
X59162136Y-88600609D01*
X59155024Y-88577163D01*
X59143473Y-88555553D01*
X59127927Y-88536611D01*
X59108985Y-88521066D01*
X59087375Y-88509515D01*
X59063926Y-88502402D01*
X59039540Y-88500000D01*
X58960460Y-88500000D01*
X58936074Y-88502402D01*
X58912625Y-88509515D01*
X58891014Y-88521066D01*
X58872072Y-88536611D01*
X58856527Y-88555553D01*
X58844976Y-88577164D01*
X58837864Y-88600609D01*
X58837511Y-88602383D01*
X58837510Y-88602385D01*
X58811054Y-88666258D01*
X58772640Y-88723748D01*
X58723748Y-88772640D01*
X58666258Y-88811054D01*
X58614182Y-88832624D01*
X58602383Y-88837511D01*
X58534570Y-88851000D01*
X58465430Y-88851000D01*
X58397617Y-88837511D01*
X58385818Y-88832624D01*
X58333742Y-88811054D01*
X58276252Y-88772640D01*
X58227360Y-88723748D01*
X58188946Y-88666258D01*
X58162490Y-88602385D01*
X58162489Y-88602383D01*
X58162136Y-88600609D01*
X58155024Y-88577163D01*
X58143473Y-88555553D01*
X58127927Y-88536611D01*
X58108985Y-88521066D01*
X58087375Y-88509515D01*
X58063926Y-88502402D01*
X58039540Y-88500000D01*
X57960460Y-88500000D01*
X57936074Y-88502402D01*
X57912625Y-88509515D01*
X57891014Y-88521066D01*
X57872072Y-88536611D01*
X57856527Y-88555553D01*
X57844976Y-88577164D01*
X57837864Y-88600609D01*
X57837511Y-88602383D01*
X57837510Y-88602385D01*
X57811054Y-88666258D01*
X57772640Y-88723748D01*
X57723748Y-88772640D01*
X57666258Y-88811054D01*
X57614182Y-88832624D01*
X57602383Y-88837511D01*
X57534570Y-88851000D01*
X57465430Y-88851000D01*
X57397617Y-88837511D01*
X57385818Y-88832624D01*
X57333742Y-88811054D01*
X57276252Y-88772640D01*
X57227360Y-88723748D01*
X57188946Y-88666258D01*
X57162490Y-88602385D01*
X57162489Y-88602383D01*
X57162136Y-88600609D01*
X57155024Y-88577163D01*
X57143473Y-88555553D01*
X57127927Y-88536611D01*
X57108985Y-88521066D01*
X57087375Y-88509515D01*
X57063926Y-88502402D01*
X57039540Y-88500000D01*
X50000000Y-88500000D01*
X50000000Y-57100999D01*
X54000000Y-57100999D01*
X54000000Y-81399001D01*
X54002402Y-81423387D01*
X54009515Y-81446836D01*
X54021066Y-81468447D01*
X54036611Y-81487389D01*
X54055553Y-81502934D01*
X54077164Y-81514485D01*
X54100613Y-81521598D01*
X54124999Y-81524000D01*
X54695197Y-81524000D01*
X55009239Y-81586467D01*
X55323282Y-81648934D01*
X55914926Y-81894001D01*
X56447392Y-82249784D01*
X56900216Y-82702608D01*
X57255999Y-83235074D01*
X57501066Y-83826718D01*
X57501066Y-83826719D01*
X57626000Y-84454803D01*
X57626000Y-85095197D01*
X57575194Y-85350615D01*
X57572792Y-85375001D01*
X57575194Y-85399387D01*
X57582307Y-85422836D01*
X57593858Y-85444447D01*
X57609403Y-85463389D01*
X57628345Y-85478934D01*
X57649956Y-85490485D01*
X57673405Y-85497598D01*
X57697791Y-85500000D01*
X117302209Y-85500000D01*
X117326595Y-85497598D01*
X117350044Y-85490485D01*
X117371655Y-85478934D01*
X117390597Y-85463389D01*
X117406142Y-85444447D01*
X117417693Y-85422836D01*
X117424806Y-85399387D01*
X117427208Y-85375001D01*
X117424806Y-85350615D01*
X117374000Y-85095197D01*
X117374000Y-84454803D01*
X117498934Y-83826719D01*
X117498934Y-83826718D01*
X117744001Y-83235074D01*
X118099784Y-82702608D01*
X118552608Y-82249784D01*
X119085074Y-81894001D01*
X119676718Y-81648934D01*
X119990761Y-81586467D01*
X120304803Y-81524000D01*
X120875001Y-81524000D01*
X120899387Y-81521598D01*
X120922836Y-81514485D01*
X120944447Y-81502934D01*
X120963389Y-81487389D01*
X120978934Y-81468447D01*
X120990485Y-81446836D01*
X120997598Y-81423387D01*
X121000000Y-81399001D01*
X121000000Y-57100999D01*
X120997598Y-57076613D01*
X120990485Y-57053164D01*
X120978934Y-57031553D01*
X120963389Y-57012611D01*
X120944447Y-56997066D01*
X120922836Y-56985515D01*
X120899387Y-56978402D01*
X120875001Y-56976000D01*
X120304803Y-56976000D01*
X119990761Y-56913533D01*
X119676718Y-56851066D01*
X119085074Y-56605999D01*
X118552608Y-56250216D01*
X118099784Y-55797392D01*
X117744001Y-55264926D01*
X117498934Y-54673282D01*
X117374000Y-54045196D01*
X117374000Y-53404804D01*
X117424806Y-53149385D01*
X117427208Y-53124999D01*
X117424806Y-53100613D01*
X117417693Y-53077164D01*
X117406142Y-53055553D01*
X117390597Y-53036611D01*
X117371655Y-53021066D01*
X117350044Y-53009515D01*
X117326595Y-53002402D01*
X117302209Y-53000000D01*
X57697791Y-53000000D01*
X57673405Y-53002402D01*
X57649956Y-53009515D01*
X57628345Y-53021066D01*
X57609403Y-53036611D01*
X57593858Y-53055553D01*
X57582307Y-53077164D01*
X57575194Y-53100613D01*
X57572792Y-53124999D01*
X57575194Y-53149385D01*
X57626000Y-53404804D01*
X57626000Y-54045196D01*
X57501066Y-54673282D01*
X57255999Y-55264926D01*
X56900216Y-55797392D01*
X56447392Y-56250216D01*
X55914926Y-56605999D01*
X55323282Y-56851066D01*
X55009239Y-56913533D01*
X54695197Y-56976000D01*
X54124999Y-56976000D01*
X54100613Y-56978402D01*
X54077164Y-56985515D01*
X54055553Y-56997066D01*
X54036611Y-57012611D01*
X54021066Y-57031553D01*
X54009515Y-57053164D01*
X54002402Y-57076613D01*
X54000000Y-57100999D01*
X50000000Y-57100999D01*
X50000000Y-50000000D01*
X125000000Y-50000000D01*
X125000000Y-88500000D01*
G37*
G36*
X64119166Y-64662321D02*
G01*
X65129383Y-65080767D01*
X65129385Y-65080768D01*
X65358220Y-65233670D01*
X66038556Y-65688256D01*
X66811744Y-66461444D01*
X67419233Y-67370617D01*
X67837679Y-68380834D01*
X68051000Y-69453273D01*
X68051000Y-70546727D01*
X67837679Y-71619166D01*
X67419233Y-72629383D01*
X66811744Y-73538556D01*
X66038556Y-74311744D01*
X65358220Y-74766330D01*
X65129385Y-74919232D01*
X65129384Y-74919233D01*
X65129383Y-74919233D01*
X64119166Y-75337679D01*
X63046727Y-75551000D01*
X61953273Y-75551000D01*
X60880834Y-75337679D01*
X59870617Y-74919233D01*
X59870616Y-74919233D01*
X59870615Y-74919232D01*
X59641780Y-74766329D01*
X58961444Y-74311744D01*
X58188256Y-73538556D01*
X57580767Y-72629383D01*
X57162321Y-71619166D01*
X56949000Y-70546727D01*
X56949000Y-69453273D01*
X57162321Y-68380834D01*
X57580767Y-67370617D01*
X58188256Y-66461444D01*
X58961444Y-65688256D01*
X59641780Y-65233671D01*
X59870615Y-65080768D01*
X59870617Y-65080767D01*
X60880834Y-64662321D01*
X61953273Y-64449000D01*
X63046727Y-64449000D01*
X64119166Y-64662321D01*
G37*
M02*
