G04 #@! TF.GenerationSoftware,KiCad,Pcbnew,(5.1.5)-3*
G04 #@! TF.CreationDate,2020-02-21T13:09:46+01:00*
G04 #@! TF.ProjectId,radiointerface-panel,72616469-6f69-46e7-9465-72666163652d,rev?*
G04 #@! TF.SameCoordinates,Original*
G04 #@! TF.FileFunction,Legend,Bot*
G04 #@! TF.FilePolarity,Positive*
%FSLAX46Y46*%
G04 Gerber Fmt 4.6, Leading zero omitted, Abs format (unit mm)*
G04 Created by KiCad (PCBNEW (5.1.5)-3) date 2020-02-21 13:09:46*
%MOMM*%
%LPD*%
G04 APERTURE LIST*
%ADD10C,0.300000*%
G04 APERTURE END LIST*
D10*
X94428571Y-127178571D02*
X94428571Y-128250000D01*
X94500000Y-128464285D01*
X94642857Y-128607142D01*
X94857142Y-128678571D01*
X95000000Y-128678571D01*
X93000000Y-128678571D02*
X93714285Y-128678571D01*
X93714285Y-127178571D01*
X91642857Y-128535714D02*
X91714285Y-128607142D01*
X91928571Y-128678571D01*
X92071428Y-128678571D01*
X92285714Y-128607142D01*
X92428571Y-128464285D01*
X92500000Y-128321428D01*
X92571428Y-128035714D01*
X92571428Y-127821428D01*
X92500000Y-127535714D01*
X92428571Y-127392857D01*
X92285714Y-127250000D01*
X92071428Y-127178571D01*
X91928571Y-127178571D01*
X91714285Y-127250000D01*
X91642857Y-127321428D01*
X90571428Y-127178571D02*
X90571428Y-128250000D01*
X90642857Y-128464285D01*
X90785714Y-128607142D01*
X91000000Y-128678571D01*
X91142857Y-128678571D01*
X89142857Y-128678571D02*
X89857142Y-128678571D01*
X89857142Y-127178571D01*
X87785714Y-128535714D02*
X87857142Y-128607142D01*
X88071428Y-128678571D01*
X88214285Y-128678571D01*
X88428571Y-128607142D01*
X88571428Y-128464285D01*
X88642857Y-128321428D01*
X88714285Y-128035714D01*
X88714285Y-127821428D01*
X88642857Y-127535714D01*
X88571428Y-127392857D01*
X88428571Y-127250000D01*
X88214285Y-127178571D01*
X88071428Y-127178571D01*
X87857142Y-127250000D01*
X87785714Y-127321428D01*
X86714285Y-127178571D02*
X86714285Y-128250000D01*
X86785714Y-128464285D01*
X86928571Y-128607142D01*
X87142857Y-128678571D01*
X87285714Y-128678571D01*
X85285714Y-128678571D02*
X86000000Y-128678571D01*
X86000000Y-127178571D01*
X83928571Y-128535714D02*
X84000000Y-128607142D01*
X84214285Y-128678571D01*
X84357142Y-128678571D01*
X84571428Y-128607142D01*
X84714285Y-128464285D01*
X84785714Y-128321428D01*
X84857142Y-128035714D01*
X84857142Y-127821428D01*
X84785714Y-127535714D01*
X84714285Y-127392857D01*
X84571428Y-127250000D01*
X84357142Y-127178571D01*
X84214285Y-127178571D01*
X84000000Y-127250000D01*
X83928571Y-127321428D01*
X82857142Y-127178571D02*
X82857142Y-128250000D01*
X82928571Y-128464285D01*
X83071428Y-128607142D01*
X83285714Y-128678571D01*
X83428571Y-128678571D01*
X81428571Y-128678571D02*
X82142857Y-128678571D01*
X82142857Y-127178571D01*
X80071428Y-128535714D02*
X80142857Y-128607142D01*
X80357142Y-128678571D01*
X80500000Y-128678571D01*
X80714285Y-128607142D01*
X80857142Y-128464285D01*
X80928571Y-128321428D01*
X81000000Y-128035714D01*
X81000000Y-127821428D01*
X80928571Y-127535714D01*
X80857142Y-127392857D01*
X80714285Y-127250000D01*
X80500000Y-127178571D01*
X80357142Y-127178571D01*
X80142857Y-127250000D01*
X80071428Y-127321428D01*
M02*
