G04 #@! TF.GenerationSoftware,KiCad,Pcbnew,(5.1.5)-3*
G04 #@! TF.CreationDate,2020-02-21T13:09:46+01:00*
G04 #@! TF.ProjectId,radiointerface-panel,72616469-6f69-46e7-9465-72666163652d,rev?*
G04 #@! TF.SameCoordinates,Original*
G04 #@! TF.FileFunction,Copper,L2,Bot*
G04 #@! TF.FilePolarity,Positive*
%FSLAX46Y46*%
G04 Gerber Fmt 4.6, Leading zero omitted, Abs format (unit mm)*
G04 Created by KiCad (PCBNEW (5.1.5)-3) date 2020-02-21 13:09:46*
%MOMM*%
%LPD*%
G04 APERTURE LIST*
%ADD10C,11.000000*%
%ADD11C,6.400000*%
%ADD12C,0.250000*%
G04 APERTURE END LIST*
D10*
X62500000Y-70000000D03*
D11*
X120625000Y-98725000D03*
X54375000Y-98725000D03*
X120625000Y-129775000D03*
X54375000Y-129775000D03*
X54375000Y-53725000D03*
X120625000Y-53725000D03*
X54375000Y-84775000D03*
X120625000Y-84775000D03*
D12*
G36*
X57014531Y-95398414D02*
G01*
X57101586Y-95485469D01*
X57203952Y-95553868D01*
X57317694Y-95600981D01*
X57438443Y-95625000D01*
X57561557Y-95625000D01*
X57682306Y-95600981D01*
X57796048Y-95553868D01*
X57898414Y-95485469D01*
X57985469Y-95398414D01*
X58000000Y-95376667D01*
X58014531Y-95398414D01*
X58101586Y-95485469D01*
X58203952Y-95553868D01*
X58317694Y-95600981D01*
X58438443Y-95625000D01*
X58561557Y-95625000D01*
X58682306Y-95600981D01*
X58796048Y-95553868D01*
X58898414Y-95485469D01*
X58985469Y-95398414D01*
X59000000Y-95376667D01*
X59014531Y-95398414D01*
X59101586Y-95485469D01*
X59203952Y-95553868D01*
X59317694Y-95600981D01*
X59438443Y-95625000D01*
X59561557Y-95625000D01*
X59682306Y-95600981D01*
X59796048Y-95553868D01*
X59898414Y-95485469D01*
X59985469Y-95398414D01*
X60000000Y-95376667D01*
X60014531Y-95398414D01*
X60101586Y-95485469D01*
X60203952Y-95553868D01*
X60317694Y-95600981D01*
X60438443Y-95625000D01*
X60561557Y-95625000D01*
X60682306Y-95600981D01*
X60796048Y-95553868D01*
X60898414Y-95485469D01*
X60985469Y-95398414D01*
X61000000Y-95376667D01*
X61014531Y-95398414D01*
X61101586Y-95485469D01*
X61203952Y-95553868D01*
X61317694Y-95600981D01*
X61438443Y-95625000D01*
X61561557Y-95625000D01*
X61682306Y-95600981D01*
X61796048Y-95553868D01*
X61898414Y-95485469D01*
X61985469Y-95398414D01*
X62000000Y-95376667D01*
X62014531Y-95398414D01*
X62101586Y-95485469D01*
X62203952Y-95553868D01*
X62317694Y-95600981D01*
X62438443Y-95625000D01*
X62561557Y-95625000D01*
X62682306Y-95600981D01*
X62796048Y-95553868D01*
X62898414Y-95485469D01*
X62985469Y-95398414D01*
X63001114Y-95375000D01*
X84498886Y-95375000D01*
X84514531Y-95398414D01*
X84601586Y-95485469D01*
X84703952Y-95553868D01*
X84817694Y-95600981D01*
X84938443Y-95625000D01*
X85061557Y-95625000D01*
X85182306Y-95600981D01*
X85296048Y-95553868D01*
X85398414Y-95485469D01*
X85485469Y-95398414D01*
X85500000Y-95376667D01*
X85514531Y-95398414D01*
X85601586Y-95485469D01*
X85703952Y-95553868D01*
X85817694Y-95600981D01*
X85938443Y-95625000D01*
X86061557Y-95625000D01*
X86182306Y-95600981D01*
X86296048Y-95553868D01*
X86398414Y-95485469D01*
X86485469Y-95398414D01*
X86500000Y-95376667D01*
X86514531Y-95398414D01*
X86601586Y-95485469D01*
X86703952Y-95553868D01*
X86817694Y-95600981D01*
X86938443Y-95625000D01*
X87061557Y-95625000D01*
X87182306Y-95600981D01*
X87296048Y-95553868D01*
X87398414Y-95485469D01*
X87485469Y-95398414D01*
X87500000Y-95376667D01*
X87514531Y-95398414D01*
X87601586Y-95485469D01*
X87703952Y-95553868D01*
X87817694Y-95600981D01*
X87938443Y-95625000D01*
X88061557Y-95625000D01*
X88182306Y-95600981D01*
X88296048Y-95553868D01*
X88398414Y-95485469D01*
X88485469Y-95398414D01*
X88500000Y-95376667D01*
X88514531Y-95398414D01*
X88601586Y-95485469D01*
X88703952Y-95553868D01*
X88817694Y-95600981D01*
X88938443Y-95625000D01*
X89061557Y-95625000D01*
X89182306Y-95600981D01*
X89296048Y-95553868D01*
X89398414Y-95485469D01*
X89485469Y-95398414D01*
X89500000Y-95376667D01*
X89514531Y-95398414D01*
X89601586Y-95485469D01*
X89703952Y-95553868D01*
X89817694Y-95600981D01*
X89938443Y-95625000D01*
X90061557Y-95625000D01*
X90182306Y-95600981D01*
X90296048Y-95553868D01*
X90398414Y-95485469D01*
X90485469Y-95398414D01*
X90501114Y-95375000D01*
X114498886Y-95375000D01*
X114514531Y-95398414D01*
X114601586Y-95485469D01*
X114703952Y-95553868D01*
X114817694Y-95600981D01*
X114938443Y-95625000D01*
X115061557Y-95625000D01*
X115182306Y-95600981D01*
X115296048Y-95553868D01*
X115398414Y-95485469D01*
X115485469Y-95398414D01*
X115500000Y-95376667D01*
X115514531Y-95398414D01*
X115601586Y-95485469D01*
X115703952Y-95553868D01*
X115817694Y-95600981D01*
X115938443Y-95625000D01*
X116061557Y-95625000D01*
X116182306Y-95600981D01*
X116296048Y-95553868D01*
X116398414Y-95485469D01*
X116485469Y-95398414D01*
X116500000Y-95376667D01*
X116514531Y-95398414D01*
X116601586Y-95485469D01*
X116703952Y-95553868D01*
X116817694Y-95600981D01*
X116938443Y-95625000D01*
X117061557Y-95625000D01*
X117182306Y-95600981D01*
X117296048Y-95553868D01*
X117398414Y-95485469D01*
X117485469Y-95398414D01*
X117500000Y-95376667D01*
X117514531Y-95398414D01*
X117601586Y-95485469D01*
X117703952Y-95553868D01*
X117817694Y-95600981D01*
X117938443Y-95625000D01*
X118061557Y-95625000D01*
X118182306Y-95600981D01*
X118296048Y-95553868D01*
X118398414Y-95485469D01*
X118485469Y-95398414D01*
X118500000Y-95376667D01*
X118514531Y-95398414D01*
X118601586Y-95485469D01*
X118703952Y-95553868D01*
X118817694Y-95600981D01*
X118938443Y-95625000D01*
X119061557Y-95625000D01*
X119182306Y-95600981D01*
X119296048Y-95553868D01*
X119398414Y-95485469D01*
X119485469Y-95398414D01*
X119500000Y-95376667D01*
X119514531Y-95398414D01*
X119601586Y-95485469D01*
X119703952Y-95553868D01*
X119817694Y-95600981D01*
X119938443Y-95625000D01*
X120061557Y-95625000D01*
X120182306Y-95600981D01*
X120296048Y-95553868D01*
X120398414Y-95485469D01*
X120485469Y-95398414D01*
X120501114Y-95375000D01*
X122448224Y-95375000D01*
X124625000Y-97551776D01*
X124625000Y-133125000D01*
X50375000Y-133125000D01*
X50375000Y-110500000D01*
X57299033Y-110500000D01*
X57300001Y-110509827D01*
X57300000Y-125490183D01*
X57299033Y-125500000D01*
X57302895Y-125539207D01*
X57314331Y-125576907D01*
X57332902Y-125611651D01*
X57357895Y-125642105D01*
X57388349Y-125667098D01*
X57423093Y-125685669D01*
X57460793Y-125697105D01*
X57500000Y-125700967D01*
X57509817Y-125700000D01*
X117490183Y-125700000D01*
X117500000Y-125700967D01*
X117539207Y-125697105D01*
X117576907Y-125685669D01*
X117611651Y-125667098D01*
X117642105Y-125642105D01*
X117667098Y-125611651D01*
X117685669Y-125576907D01*
X117697105Y-125539207D01*
X117700000Y-125509817D01*
X117700000Y-125509816D01*
X117700967Y-125500000D01*
X117700000Y-125490183D01*
X117700000Y-110509817D01*
X117700967Y-110500000D01*
X117697105Y-110460793D01*
X117685669Y-110423093D01*
X117667098Y-110388349D01*
X117642105Y-110357895D01*
X117611651Y-110332902D01*
X117576907Y-110314331D01*
X117539207Y-110302895D01*
X117509817Y-110300000D01*
X117500000Y-110299033D01*
X117490183Y-110300000D01*
X57509817Y-110300000D01*
X57500000Y-110299033D01*
X57490183Y-110300000D01*
X57460793Y-110302895D01*
X57423093Y-110314331D01*
X57388349Y-110332902D01*
X57357895Y-110357895D01*
X57332902Y-110388349D01*
X57314331Y-110423093D01*
X57302895Y-110460793D01*
X57299033Y-110500000D01*
X50375000Y-110500000D01*
X50375000Y-97551776D01*
X52551776Y-95375000D01*
X56998886Y-95375000D01*
X57014531Y-95398414D01*
G37*
X57014531Y-95398414D02*
X57101586Y-95485469D01*
X57203952Y-95553868D01*
X57317694Y-95600981D01*
X57438443Y-95625000D01*
X57561557Y-95625000D01*
X57682306Y-95600981D01*
X57796048Y-95553868D01*
X57898414Y-95485469D01*
X57985469Y-95398414D01*
X58000000Y-95376667D01*
X58014531Y-95398414D01*
X58101586Y-95485469D01*
X58203952Y-95553868D01*
X58317694Y-95600981D01*
X58438443Y-95625000D01*
X58561557Y-95625000D01*
X58682306Y-95600981D01*
X58796048Y-95553868D01*
X58898414Y-95485469D01*
X58985469Y-95398414D01*
X59000000Y-95376667D01*
X59014531Y-95398414D01*
X59101586Y-95485469D01*
X59203952Y-95553868D01*
X59317694Y-95600981D01*
X59438443Y-95625000D01*
X59561557Y-95625000D01*
X59682306Y-95600981D01*
X59796048Y-95553868D01*
X59898414Y-95485469D01*
X59985469Y-95398414D01*
X60000000Y-95376667D01*
X60014531Y-95398414D01*
X60101586Y-95485469D01*
X60203952Y-95553868D01*
X60317694Y-95600981D01*
X60438443Y-95625000D01*
X60561557Y-95625000D01*
X60682306Y-95600981D01*
X60796048Y-95553868D01*
X60898414Y-95485469D01*
X60985469Y-95398414D01*
X61000000Y-95376667D01*
X61014531Y-95398414D01*
X61101586Y-95485469D01*
X61203952Y-95553868D01*
X61317694Y-95600981D01*
X61438443Y-95625000D01*
X61561557Y-95625000D01*
X61682306Y-95600981D01*
X61796048Y-95553868D01*
X61898414Y-95485469D01*
X61985469Y-95398414D01*
X62000000Y-95376667D01*
X62014531Y-95398414D01*
X62101586Y-95485469D01*
X62203952Y-95553868D01*
X62317694Y-95600981D01*
X62438443Y-95625000D01*
X62561557Y-95625000D01*
X62682306Y-95600981D01*
X62796048Y-95553868D01*
X62898414Y-95485469D01*
X62985469Y-95398414D01*
X63001114Y-95375000D01*
X84498886Y-95375000D01*
X84514531Y-95398414D01*
X84601586Y-95485469D01*
X84703952Y-95553868D01*
X84817694Y-95600981D01*
X84938443Y-95625000D01*
X85061557Y-95625000D01*
X85182306Y-95600981D01*
X85296048Y-95553868D01*
X85398414Y-95485469D01*
X85485469Y-95398414D01*
X85500000Y-95376667D01*
X85514531Y-95398414D01*
X85601586Y-95485469D01*
X85703952Y-95553868D01*
X85817694Y-95600981D01*
X85938443Y-95625000D01*
X86061557Y-95625000D01*
X86182306Y-95600981D01*
X86296048Y-95553868D01*
X86398414Y-95485469D01*
X86485469Y-95398414D01*
X86500000Y-95376667D01*
X86514531Y-95398414D01*
X86601586Y-95485469D01*
X86703952Y-95553868D01*
X86817694Y-95600981D01*
X86938443Y-95625000D01*
X87061557Y-95625000D01*
X87182306Y-95600981D01*
X87296048Y-95553868D01*
X87398414Y-95485469D01*
X87485469Y-95398414D01*
X87500000Y-95376667D01*
X87514531Y-95398414D01*
X87601586Y-95485469D01*
X87703952Y-95553868D01*
X87817694Y-95600981D01*
X87938443Y-95625000D01*
X88061557Y-95625000D01*
X88182306Y-95600981D01*
X88296048Y-95553868D01*
X88398414Y-95485469D01*
X88485469Y-95398414D01*
X88500000Y-95376667D01*
X88514531Y-95398414D01*
X88601586Y-95485469D01*
X88703952Y-95553868D01*
X88817694Y-95600981D01*
X88938443Y-95625000D01*
X89061557Y-95625000D01*
X89182306Y-95600981D01*
X89296048Y-95553868D01*
X89398414Y-95485469D01*
X89485469Y-95398414D01*
X89500000Y-95376667D01*
X89514531Y-95398414D01*
X89601586Y-95485469D01*
X89703952Y-95553868D01*
X89817694Y-95600981D01*
X89938443Y-95625000D01*
X90061557Y-95625000D01*
X90182306Y-95600981D01*
X90296048Y-95553868D01*
X90398414Y-95485469D01*
X90485469Y-95398414D01*
X90501114Y-95375000D01*
X114498886Y-95375000D01*
X114514531Y-95398414D01*
X114601586Y-95485469D01*
X114703952Y-95553868D01*
X114817694Y-95600981D01*
X114938443Y-95625000D01*
X115061557Y-95625000D01*
X115182306Y-95600981D01*
X115296048Y-95553868D01*
X115398414Y-95485469D01*
X115485469Y-95398414D01*
X115500000Y-95376667D01*
X115514531Y-95398414D01*
X115601586Y-95485469D01*
X115703952Y-95553868D01*
X115817694Y-95600981D01*
X115938443Y-95625000D01*
X116061557Y-95625000D01*
X116182306Y-95600981D01*
X116296048Y-95553868D01*
X116398414Y-95485469D01*
X116485469Y-95398414D01*
X116500000Y-95376667D01*
X116514531Y-95398414D01*
X116601586Y-95485469D01*
X116703952Y-95553868D01*
X116817694Y-95600981D01*
X116938443Y-95625000D01*
X117061557Y-95625000D01*
X117182306Y-95600981D01*
X117296048Y-95553868D01*
X117398414Y-95485469D01*
X117485469Y-95398414D01*
X117500000Y-95376667D01*
X117514531Y-95398414D01*
X117601586Y-95485469D01*
X117703952Y-95553868D01*
X117817694Y-95600981D01*
X117938443Y-95625000D01*
X118061557Y-95625000D01*
X118182306Y-95600981D01*
X118296048Y-95553868D01*
X118398414Y-95485469D01*
X118485469Y-95398414D01*
X118500000Y-95376667D01*
X118514531Y-95398414D01*
X118601586Y-95485469D01*
X118703952Y-95553868D01*
X118817694Y-95600981D01*
X118938443Y-95625000D01*
X119061557Y-95625000D01*
X119182306Y-95600981D01*
X119296048Y-95553868D01*
X119398414Y-95485469D01*
X119485469Y-95398414D01*
X119500000Y-95376667D01*
X119514531Y-95398414D01*
X119601586Y-95485469D01*
X119703952Y-95553868D01*
X119817694Y-95600981D01*
X119938443Y-95625000D01*
X120061557Y-95625000D01*
X120182306Y-95600981D01*
X120296048Y-95553868D01*
X120398414Y-95485469D01*
X120485469Y-95398414D01*
X120501114Y-95375000D01*
X122448224Y-95375000D01*
X124625000Y-97551776D01*
X124625000Y-133125000D01*
X50375000Y-133125000D01*
X50375000Y-110500000D01*
X57299033Y-110500000D01*
X57300001Y-110509827D01*
X57300000Y-125490183D01*
X57299033Y-125500000D01*
X57302895Y-125539207D01*
X57314331Y-125576907D01*
X57332902Y-125611651D01*
X57357895Y-125642105D01*
X57388349Y-125667098D01*
X57423093Y-125685669D01*
X57460793Y-125697105D01*
X57500000Y-125700967D01*
X57509817Y-125700000D01*
X117490183Y-125700000D01*
X117500000Y-125700967D01*
X117539207Y-125697105D01*
X117576907Y-125685669D01*
X117611651Y-125667098D01*
X117642105Y-125642105D01*
X117667098Y-125611651D01*
X117685669Y-125576907D01*
X117697105Y-125539207D01*
X117700000Y-125509817D01*
X117700000Y-125509816D01*
X117700967Y-125500000D01*
X117700000Y-125490183D01*
X117700000Y-110509817D01*
X117700967Y-110500000D01*
X117697105Y-110460793D01*
X117685669Y-110423093D01*
X117667098Y-110388349D01*
X117642105Y-110357895D01*
X117611651Y-110332902D01*
X117576907Y-110314331D01*
X117539207Y-110302895D01*
X117509817Y-110300000D01*
X117500000Y-110299033D01*
X117490183Y-110300000D01*
X57509817Y-110300000D01*
X57500000Y-110299033D01*
X57490183Y-110300000D01*
X57460793Y-110302895D01*
X57423093Y-110314331D01*
X57388349Y-110332902D01*
X57357895Y-110357895D01*
X57332902Y-110388349D01*
X57314331Y-110423093D01*
X57302895Y-110460793D01*
X57299033Y-110500000D01*
X50375000Y-110500000D01*
X50375000Y-97551776D01*
X52551776Y-95375000D01*
X56998886Y-95375000D01*
X57014531Y-95398414D01*
G36*
X124625000Y-52551776D02*
G01*
X124625000Y-88125000D01*
X120501114Y-88125000D01*
X120485469Y-88101586D01*
X120398414Y-88014531D01*
X120296048Y-87946132D01*
X120182306Y-87899019D01*
X120061557Y-87875000D01*
X119938443Y-87875000D01*
X119817694Y-87899019D01*
X119703952Y-87946132D01*
X119601586Y-88014531D01*
X119514531Y-88101586D01*
X119500000Y-88123333D01*
X119485469Y-88101586D01*
X119398414Y-88014531D01*
X119296048Y-87946132D01*
X119182306Y-87899019D01*
X119061557Y-87875000D01*
X118938443Y-87875000D01*
X118817694Y-87899019D01*
X118703952Y-87946132D01*
X118601586Y-88014531D01*
X118514531Y-88101586D01*
X118500000Y-88123333D01*
X118485469Y-88101586D01*
X118398414Y-88014531D01*
X118296048Y-87946132D01*
X118182306Y-87899019D01*
X118061557Y-87875000D01*
X117938443Y-87875000D01*
X117817694Y-87899019D01*
X117703952Y-87946132D01*
X117601586Y-88014531D01*
X117514531Y-88101586D01*
X117500000Y-88123333D01*
X117485469Y-88101586D01*
X117398414Y-88014531D01*
X117296048Y-87946132D01*
X117182306Y-87899019D01*
X117061557Y-87875000D01*
X116938443Y-87875000D01*
X116817694Y-87899019D01*
X116703952Y-87946132D01*
X116601586Y-88014531D01*
X116514531Y-88101586D01*
X116500000Y-88123333D01*
X116485469Y-88101586D01*
X116398414Y-88014531D01*
X116296048Y-87946132D01*
X116182306Y-87899019D01*
X116061557Y-87875000D01*
X115938443Y-87875000D01*
X115817694Y-87899019D01*
X115703952Y-87946132D01*
X115601586Y-88014531D01*
X115514531Y-88101586D01*
X115500000Y-88123333D01*
X115485469Y-88101586D01*
X115398414Y-88014531D01*
X115296048Y-87946132D01*
X115182306Y-87899019D01*
X115061557Y-87875000D01*
X114938443Y-87875000D01*
X114817694Y-87899019D01*
X114703952Y-87946132D01*
X114601586Y-88014531D01*
X114514531Y-88101586D01*
X114498886Y-88125000D01*
X90555338Y-88125000D01*
X90553868Y-88121452D01*
X90485469Y-88019086D01*
X90398414Y-87932031D01*
X90296048Y-87863632D01*
X90182306Y-87816519D01*
X90061557Y-87792500D01*
X89938443Y-87792500D01*
X89817694Y-87816519D01*
X89703952Y-87863632D01*
X89601586Y-87932031D01*
X89514531Y-88019086D01*
X89500000Y-88040833D01*
X89485469Y-88019086D01*
X89398414Y-87932031D01*
X89296048Y-87863632D01*
X89182306Y-87816519D01*
X89061557Y-87792500D01*
X88938443Y-87792500D01*
X88817694Y-87816519D01*
X88703952Y-87863632D01*
X88601586Y-87932031D01*
X88514531Y-88019086D01*
X88500000Y-88040833D01*
X88485469Y-88019086D01*
X88398414Y-87932031D01*
X88296048Y-87863632D01*
X88182306Y-87816519D01*
X88061557Y-87792500D01*
X87938443Y-87792500D01*
X87817694Y-87816519D01*
X87703952Y-87863632D01*
X87601586Y-87932031D01*
X87514531Y-88019086D01*
X87500000Y-88040833D01*
X87485469Y-88019086D01*
X87398414Y-87932031D01*
X87296048Y-87863632D01*
X87182306Y-87816519D01*
X87061557Y-87792500D01*
X86938443Y-87792500D01*
X86817694Y-87816519D01*
X86703952Y-87863632D01*
X86601586Y-87932031D01*
X86514531Y-88019086D01*
X86500000Y-88040833D01*
X86485469Y-88019086D01*
X86398414Y-87932031D01*
X86296048Y-87863632D01*
X86182306Y-87816519D01*
X86061557Y-87792500D01*
X85938443Y-87792500D01*
X85817694Y-87816519D01*
X85703952Y-87863632D01*
X85601586Y-87932031D01*
X85514531Y-88019086D01*
X85500000Y-88040833D01*
X85485469Y-88019086D01*
X85398414Y-87932031D01*
X85296048Y-87863632D01*
X85182306Y-87816519D01*
X85061557Y-87792500D01*
X84938443Y-87792500D01*
X84817694Y-87816519D01*
X84703952Y-87863632D01*
X84601586Y-87932031D01*
X84514531Y-88019086D01*
X84446132Y-88121452D01*
X84444662Y-88125000D01*
X63001114Y-88125000D01*
X62985469Y-88101586D01*
X62898414Y-88014531D01*
X62796048Y-87946132D01*
X62682306Y-87899019D01*
X62561557Y-87875000D01*
X62438443Y-87875000D01*
X62317694Y-87899019D01*
X62203952Y-87946132D01*
X62101586Y-88014531D01*
X62014531Y-88101586D01*
X62000000Y-88123333D01*
X61985469Y-88101586D01*
X61898414Y-88014531D01*
X61796048Y-87946132D01*
X61682306Y-87899019D01*
X61561557Y-87875000D01*
X61438443Y-87875000D01*
X61317694Y-87899019D01*
X61203952Y-87946132D01*
X61101586Y-88014531D01*
X61014531Y-88101586D01*
X61000000Y-88123333D01*
X60985469Y-88101586D01*
X60898414Y-88014531D01*
X60796048Y-87946132D01*
X60682306Y-87899019D01*
X60561557Y-87875000D01*
X60438443Y-87875000D01*
X60317694Y-87899019D01*
X60203952Y-87946132D01*
X60101586Y-88014531D01*
X60014531Y-88101586D01*
X60000000Y-88123333D01*
X59985469Y-88101586D01*
X59898414Y-88014531D01*
X59796048Y-87946132D01*
X59682306Y-87899019D01*
X59561557Y-87875000D01*
X59438443Y-87875000D01*
X59317694Y-87899019D01*
X59203952Y-87946132D01*
X59101586Y-88014531D01*
X59014531Y-88101586D01*
X59000000Y-88123333D01*
X58985469Y-88101586D01*
X58898414Y-88014531D01*
X58796048Y-87946132D01*
X58682306Y-87899019D01*
X58561557Y-87875000D01*
X58438443Y-87875000D01*
X58317694Y-87899019D01*
X58203952Y-87946132D01*
X58101586Y-88014531D01*
X58014531Y-88101586D01*
X58000000Y-88123333D01*
X57985469Y-88101586D01*
X57898414Y-88014531D01*
X57796048Y-87946132D01*
X57682306Y-87899019D01*
X57561557Y-87875000D01*
X57438443Y-87875000D01*
X57317694Y-87899019D01*
X57203952Y-87946132D01*
X57101586Y-88014531D01*
X57014531Y-88101586D01*
X56998886Y-88125000D01*
X50375000Y-88125000D01*
X50375000Y-69426288D01*
X56675000Y-69426288D01*
X56675000Y-70573712D01*
X56898851Y-71699090D01*
X57337952Y-72759172D01*
X57975427Y-73713221D01*
X58786779Y-74524573D01*
X59740828Y-75162048D01*
X60800910Y-75601149D01*
X61926288Y-75825000D01*
X63073712Y-75825000D01*
X64199090Y-75601149D01*
X65259172Y-75162048D01*
X66213221Y-74524573D01*
X67024573Y-73713221D01*
X67662048Y-72759172D01*
X68101149Y-71699090D01*
X68325000Y-70573712D01*
X68325000Y-69426288D01*
X68101149Y-68300910D01*
X67976508Y-68000000D01*
X76799033Y-68000000D01*
X76800000Y-68009817D01*
X76800001Y-83490173D01*
X76799033Y-83500000D01*
X76802895Y-83539207D01*
X76814331Y-83576907D01*
X76832902Y-83611651D01*
X76857895Y-83642105D01*
X76888349Y-83667098D01*
X76923093Y-83685669D01*
X76960793Y-83697105D01*
X76990183Y-83700000D01*
X77000000Y-83700967D01*
X77009817Y-83700000D01*
X103490183Y-83700000D01*
X103500000Y-83700967D01*
X103509817Y-83700000D01*
X103539207Y-83697105D01*
X103576907Y-83685669D01*
X103611651Y-83667098D01*
X103642105Y-83642105D01*
X103667098Y-83611651D01*
X103685669Y-83576907D01*
X103697105Y-83539207D01*
X103700967Y-83500000D01*
X103700000Y-83490183D01*
X103700000Y-68009817D01*
X103700967Y-68000000D01*
X103697105Y-67960793D01*
X103685669Y-67923093D01*
X103667098Y-67888349D01*
X103642105Y-67857895D01*
X103611651Y-67832902D01*
X103576907Y-67814331D01*
X103539207Y-67802895D01*
X103509817Y-67800000D01*
X103500000Y-67799033D01*
X103490183Y-67800000D01*
X77009817Y-67800000D01*
X77000000Y-67799033D01*
X76990183Y-67800000D01*
X76960793Y-67802895D01*
X76923093Y-67814331D01*
X76888349Y-67832902D01*
X76857895Y-67857895D01*
X76832902Y-67888349D01*
X76814331Y-67923093D01*
X76802895Y-67960793D01*
X76799033Y-68000000D01*
X67976508Y-68000000D01*
X67662048Y-67240828D01*
X67024573Y-66286779D01*
X66213221Y-65475427D01*
X65259172Y-64837952D01*
X64199090Y-64398851D01*
X63073712Y-64175000D01*
X61926288Y-64175000D01*
X60800910Y-64398851D01*
X59740828Y-64837952D01*
X58786779Y-65475427D01*
X57975427Y-66286779D01*
X57337952Y-67240828D01*
X56898851Y-68300910D01*
X56675000Y-69426288D01*
X50375000Y-69426288D01*
X50375000Y-52801776D01*
X52801776Y-50375000D01*
X122448224Y-50375000D01*
X124625000Y-52551776D01*
G37*
X124625000Y-52551776D02*
X124625000Y-88125000D01*
X120501114Y-88125000D01*
X120485469Y-88101586D01*
X120398414Y-88014531D01*
X120296048Y-87946132D01*
X120182306Y-87899019D01*
X120061557Y-87875000D01*
X119938443Y-87875000D01*
X119817694Y-87899019D01*
X119703952Y-87946132D01*
X119601586Y-88014531D01*
X119514531Y-88101586D01*
X119500000Y-88123333D01*
X119485469Y-88101586D01*
X119398414Y-88014531D01*
X119296048Y-87946132D01*
X119182306Y-87899019D01*
X119061557Y-87875000D01*
X118938443Y-87875000D01*
X118817694Y-87899019D01*
X118703952Y-87946132D01*
X118601586Y-88014531D01*
X118514531Y-88101586D01*
X118500000Y-88123333D01*
X118485469Y-88101586D01*
X118398414Y-88014531D01*
X118296048Y-87946132D01*
X118182306Y-87899019D01*
X118061557Y-87875000D01*
X117938443Y-87875000D01*
X117817694Y-87899019D01*
X117703952Y-87946132D01*
X117601586Y-88014531D01*
X117514531Y-88101586D01*
X117500000Y-88123333D01*
X117485469Y-88101586D01*
X117398414Y-88014531D01*
X117296048Y-87946132D01*
X117182306Y-87899019D01*
X117061557Y-87875000D01*
X116938443Y-87875000D01*
X116817694Y-87899019D01*
X116703952Y-87946132D01*
X116601586Y-88014531D01*
X116514531Y-88101586D01*
X116500000Y-88123333D01*
X116485469Y-88101586D01*
X116398414Y-88014531D01*
X116296048Y-87946132D01*
X116182306Y-87899019D01*
X116061557Y-87875000D01*
X115938443Y-87875000D01*
X115817694Y-87899019D01*
X115703952Y-87946132D01*
X115601586Y-88014531D01*
X115514531Y-88101586D01*
X115500000Y-88123333D01*
X115485469Y-88101586D01*
X115398414Y-88014531D01*
X115296048Y-87946132D01*
X115182306Y-87899019D01*
X115061557Y-87875000D01*
X114938443Y-87875000D01*
X114817694Y-87899019D01*
X114703952Y-87946132D01*
X114601586Y-88014531D01*
X114514531Y-88101586D01*
X114498886Y-88125000D01*
X90555338Y-88125000D01*
X90553868Y-88121452D01*
X90485469Y-88019086D01*
X90398414Y-87932031D01*
X90296048Y-87863632D01*
X90182306Y-87816519D01*
X90061557Y-87792500D01*
X89938443Y-87792500D01*
X89817694Y-87816519D01*
X89703952Y-87863632D01*
X89601586Y-87932031D01*
X89514531Y-88019086D01*
X89500000Y-88040833D01*
X89485469Y-88019086D01*
X89398414Y-87932031D01*
X89296048Y-87863632D01*
X89182306Y-87816519D01*
X89061557Y-87792500D01*
X88938443Y-87792500D01*
X88817694Y-87816519D01*
X88703952Y-87863632D01*
X88601586Y-87932031D01*
X88514531Y-88019086D01*
X88500000Y-88040833D01*
X88485469Y-88019086D01*
X88398414Y-87932031D01*
X88296048Y-87863632D01*
X88182306Y-87816519D01*
X88061557Y-87792500D01*
X87938443Y-87792500D01*
X87817694Y-87816519D01*
X87703952Y-87863632D01*
X87601586Y-87932031D01*
X87514531Y-88019086D01*
X87500000Y-88040833D01*
X87485469Y-88019086D01*
X87398414Y-87932031D01*
X87296048Y-87863632D01*
X87182306Y-87816519D01*
X87061557Y-87792500D01*
X86938443Y-87792500D01*
X86817694Y-87816519D01*
X86703952Y-87863632D01*
X86601586Y-87932031D01*
X86514531Y-88019086D01*
X86500000Y-88040833D01*
X86485469Y-88019086D01*
X86398414Y-87932031D01*
X86296048Y-87863632D01*
X86182306Y-87816519D01*
X86061557Y-87792500D01*
X85938443Y-87792500D01*
X85817694Y-87816519D01*
X85703952Y-87863632D01*
X85601586Y-87932031D01*
X85514531Y-88019086D01*
X85500000Y-88040833D01*
X85485469Y-88019086D01*
X85398414Y-87932031D01*
X85296048Y-87863632D01*
X85182306Y-87816519D01*
X85061557Y-87792500D01*
X84938443Y-87792500D01*
X84817694Y-87816519D01*
X84703952Y-87863632D01*
X84601586Y-87932031D01*
X84514531Y-88019086D01*
X84446132Y-88121452D01*
X84444662Y-88125000D01*
X63001114Y-88125000D01*
X62985469Y-88101586D01*
X62898414Y-88014531D01*
X62796048Y-87946132D01*
X62682306Y-87899019D01*
X62561557Y-87875000D01*
X62438443Y-87875000D01*
X62317694Y-87899019D01*
X62203952Y-87946132D01*
X62101586Y-88014531D01*
X62014531Y-88101586D01*
X62000000Y-88123333D01*
X61985469Y-88101586D01*
X61898414Y-88014531D01*
X61796048Y-87946132D01*
X61682306Y-87899019D01*
X61561557Y-87875000D01*
X61438443Y-87875000D01*
X61317694Y-87899019D01*
X61203952Y-87946132D01*
X61101586Y-88014531D01*
X61014531Y-88101586D01*
X61000000Y-88123333D01*
X60985469Y-88101586D01*
X60898414Y-88014531D01*
X60796048Y-87946132D01*
X60682306Y-87899019D01*
X60561557Y-87875000D01*
X60438443Y-87875000D01*
X60317694Y-87899019D01*
X60203952Y-87946132D01*
X60101586Y-88014531D01*
X60014531Y-88101586D01*
X60000000Y-88123333D01*
X59985469Y-88101586D01*
X59898414Y-88014531D01*
X59796048Y-87946132D01*
X59682306Y-87899019D01*
X59561557Y-87875000D01*
X59438443Y-87875000D01*
X59317694Y-87899019D01*
X59203952Y-87946132D01*
X59101586Y-88014531D01*
X59014531Y-88101586D01*
X59000000Y-88123333D01*
X58985469Y-88101586D01*
X58898414Y-88014531D01*
X58796048Y-87946132D01*
X58682306Y-87899019D01*
X58561557Y-87875000D01*
X58438443Y-87875000D01*
X58317694Y-87899019D01*
X58203952Y-87946132D01*
X58101586Y-88014531D01*
X58014531Y-88101586D01*
X58000000Y-88123333D01*
X57985469Y-88101586D01*
X57898414Y-88014531D01*
X57796048Y-87946132D01*
X57682306Y-87899019D01*
X57561557Y-87875000D01*
X57438443Y-87875000D01*
X57317694Y-87899019D01*
X57203952Y-87946132D01*
X57101586Y-88014531D01*
X57014531Y-88101586D01*
X56998886Y-88125000D01*
X50375000Y-88125000D01*
X50375000Y-69426288D01*
X56675000Y-69426288D01*
X56675000Y-70573712D01*
X56898851Y-71699090D01*
X57337952Y-72759172D01*
X57975427Y-73713221D01*
X58786779Y-74524573D01*
X59740828Y-75162048D01*
X60800910Y-75601149D01*
X61926288Y-75825000D01*
X63073712Y-75825000D01*
X64199090Y-75601149D01*
X65259172Y-75162048D01*
X66213221Y-74524573D01*
X67024573Y-73713221D01*
X67662048Y-72759172D01*
X68101149Y-71699090D01*
X68325000Y-70573712D01*
X68325000Y-69426288D01*
X68101149Y-68300910D01*
X67976508Y-68000000D01*
X76799033Y-68000000D01*
X76800000Y-68009817D01*
X76800001Y-83490173D01*
X76799033Y-83500000D01*
X76802895Y-83539207D01*
X76814331Y-83576907D01*
X76832902Y-83611651D01*
X76857895Y-83642105D01*
X76888349Y-83667098D01*
X76923093Y-83685669D01*
X76960793Y-83697105D01*
X76990183Y-83700000D01*
X77000000Y-83700967D01*
X77009817Y-83700000D01*
X103490183Y-83700000D01*
X103500000Y-83700967D01*
X103509817Y-83700000D01*
X103539207Y-83697105D01*
X103576907Y-83685669D01*
X103611651Y-83667098D01*
X103642105Y-83642105D01*
X103667098Y-83611651D01*
X103685669Y-83576907D01*
X103697105Y-83539207D01*
X103700967Y-83500000D01*
X103700000Y-83490183D01*
X103700000Y-68009817D01*
X103700967Y-68000000D01*
X103697105Y-67960793D01*
X103685669Y-67923093D01*
X103667098Y-67888349D01*
X103642105Y-67857895D01*
X103611651Y-67832902D01*
X103576907Y-67814331D01*
X103539207Y-67802895D01*
X103509817Y-67800000D01*
X103500000Y-67799033D01*
X103490183Y-67800000D01*
X77009817Y-67800000D01*
X77000000Y-67799033D01*
X76990183Y-67800000D01*
X76960793Y-67802895D01*
X76923093Y-67814331D01*
X76888349Y-67832902D01*
X76857895Y-67857895D01*
X76832902Y-67888349D01*
X76814331Y-67923093D01*
X76802895Y-67960793D01*
X76799033Y-68000000D01*
X67976508Y-68000000D01*
X67662048Y-67240828D01*
X67024573Y-66286779D01*
X66213221Y-65475427D01*
X65259172Y-64837952D01*
X64199090Y-64398851D01*
X63073712Y-64175000D01*
X61926288Y-64175000D01*
X60800910Y-64398851D01*
X59740828Y-64837952D01*
X58786779Y-65475427D01*
X57975427Y-66286779D01*
X57337952Y-67240828D01*
X56898851Y-68300910D01*
X56675000Y-69426288D01*
X50375000Y-69426288D01*
X50375000Y-52801776D01*
X52801776Y-50375000D01*
X122448224Y-50375000D01*
X124625000Y-52551776D01*
M02*
