G04 #@! TF.GenerationSoftware,KiCad,Pcbnew,(5.1.5)-3*
G04 #@! TF.CreationDate,2020-02-21T13:09:46+01:00*
G04 #@! TF.ProjectId,radiointerface-panel,72616469-6f69-46e7-9465-72666163652d,rev?*
G04 #@! TF.SameCoordinates,Original*
G04 #@! TF.FileFunction,Legend,Top*
G04 #@! TF.FilePolarity,Positive*
%FSLAX46Y46*%
G04 Gerber Fmt 4.6, Leading zero omitted, Abs format (unit mm)*
G04 Created by KiCad (PCBNEW (5.1.5)-3) date 2020-02-21 13:09:46*
%MOMM*%
%LPD*%
G04 APERTURE LIST*
%ADD10C,0.225000*%
%ADD11C,0.300000*%
%ADD12C,0.400000*%
%ADD13C,0.250000*%
%ADD14C,0.010000*%
%ADD15C,0.150000*%
%ADD16C,0.500000*%
G04 APERTURE END LIST*
D10*
X71142857Y-103178571D02*
X71142857Y-102178571D01*
X71142857Y-102464285D02*
X71214285Y-102321428D01*
X71285714Y-102250000D01*
X71428571Y-102178571D01*
X71571428Y-102178571D01*
X72714285Y-103178571D02*
X72714285Y-102392857D01*
X72642857Y-102250000D01*
X72500000Y-102178571D01*
X72214285Y-102178571D01*
X72071428Y-102250000D01*
X72714285Y-103107142D02*
X72571428Y-103178571D01*
X72214285Y-103178571D01*
X72071428Y-103107142D01*
X72000000Y-102964285D01*
X72000000Y-102821428D01*
X72071428Y-102678571D01*
X72214285Y-102607142D01*
X72571428Y-102607142D01*
X72714285Y-102535714D01*
X74071428Y-103178571D02*
X74071428Y-101678571D01*
X74071428Y-103107142D02*
X73928571Y-103178571D01*
X73642857Y-103178571D01*
X73500000Y-103107142D01*
X73428571Y-103035714D01*
X73357142Y-102892857D01*
X73357142Y-102464285D01*
X73428571Y-102321428D01*
X73500000Y-102250000D01*
X73642857Y-102178571D01*
X73928571Y-102178571D01*
X74071428Y-102250000D01*
X74785714Y-103178571D02*
X74785714Y-102178571D01*
X74785714Y-101678571D02*
X74714285Y-101750000D01*
X74785714Y-101821428D01*
X74857142Y-101750000D01*
X74785714Y-101678571D01*
X74785714Y-101821428D01*
X75714285Y-103178571D02*
X75571428Y-103107142D01*
X75500000Y-103035714D01*
X75428571Y-102892857D01*
X75428571Y-102464285D01*
X75500000Y-102321428D01*
X75571428Y-102250000D01*
X75714285Y-102178571D01*
X75928571Y-102178571D01*
X76071428Y-102250000D01*
X76142857Y-102321428D01*
X76214285Y-102464285D01*
X76214285Y-102892857D01*
X76142857Y-103035714D01*
X76071428Y-103107142D01*
X75928571Y-103178571D01*
X75714285Y-103178571D01*
X76857142Y-103178571D02*
X76857142Y-102178571D01*
X76857142Y-101678571D02*
X76785714Y-101750000D01*
X76857142Y-101821428D01*
X76928571Y-101750000D01*
X76857142Y-101678571D01*
X76857142Y-101821428D01*
X77571428Y-102178571D02*
X77571428Y-103178571D01*
X77571428Y-102321428D02*
X77642857Y-102250000D01*
X77785714Y-102178571D01*
X78000000Y-102178571D01*
X78142857Y-102250000D01*
X78214285Y-102392857D01*
X78214285Y-103178571D01*
X78714285Y-102178571D02*
X79285714Y-102178571D01*
X78928571Y-101678571D02*
X78928571Y-102964285D01*
X79000000Y-103107142D01*
X79142857Y-103178571D01*
X79285714Y-103178571D01*
X80357142Y-103107142D02*
X80214285Y-103178571D01*
X79928571Y-103178571D01*
X79785714Y-103107142D01*
X79714285Y-102964285D01*
X79714285Y-102392857D01*
X79785714Y-102250000D01*
X79928571Y-102178571D01*
X80214285Y-102178571D01*
X80357142Y-102250000D01*
X80428571Y-102392857D01*
X80428571Y-102535714D01*
X79714285Y-102678571D01*
X81071428Y-103178571D02*
X81071428Y-102178571D01*
X81071428Y-102464285D02*
X81142857Y-102321428D01*
X81214285Y-102250000D01*
X81357142Y-102178571D01*
X81500000Y-102178571D01*
X81785714Y-102178571D02*
X82357142Y-102178571D01*
X82000000Y-103178571D02*
X82000000Y-101892857D01*
X82071428Y-101750000D01*
X82214285Y-101678571D01*
X82357142Y-101678571D01*
X83500000Y-103178571D02*
X83500000Y-102392857D01*
X83428571Y-102250000D01*
X83285714Y-102178571D01*
X83000000Y-102178571D01*
X82857142Y-102250000D01*
X83500000Y-103107142D02*
X83357142Y-103178571D01*
X83000000Y-103178571D01*
X82857142Y-103107142D01*
X82785714Y-102964285D01*
X82785714Y-102821428D01*
X82857142Y-102678571D01*
X83000000Y-102607142D01*
X83357142Y-102607142D01*
X83500000Y-102535714D01*
X84857142Y-103107142D02*
X84714285Y-103178571D01*
X84428571Y-103178571D01*
X84285714Y-103107142D01*
X84214285Y-103035714D01*
X84142857Y-102892857D01*
X84142857Y-102464285D01*
X84214285Y-102321428D01*
X84285714Y-102250000D01*
X84428571Y-102178571D01*
X84714285Y-102178571D01*
X84857142Y-102250000D01*
X86071428Y-103107142D02*
X85928571Y-103178571D01*
X85642857Y-103178571D01*
X85500000Y-103107142D01*
X85428571Y-102964285D01*
X85428571Y-102392857D01*
X85500000Y-102250000D01*
X85642857Y-102178571D01*
X85928571Y-102178571D01*
X86071428Y-102250000D01*
X86142857Y-102392857D01*
X86142857Y-102535714D01*
X85428571Y-102678571D01*
X86642857Y-101678571D02*
X87571428Y-101678571D01*
X87071428Y-102250000D01*
X87285714Y-102250000D01*
X87428571Y-102321428D01*
X87500000Y-102392857D01*
X87571428Y-102535714D01*
X87571428Y-102892857D01*
X87500000Y-103035714D01*
X87428571Y-103107142D01*
X87285714Y-103178571D01*
X86857142Y-103178571D01*
X86714285Y-103107142D01*
X86642857Y-103035714D01*
X88214285Y-102607142D02*
X89357142Y-102607142D01*
X90285714Y-103178571D02*
X90142857Y-103107142D01*
X90071428Y-103035714D01*
X90000000Y-102892857D01*
X90000000Y-102464285D01*
X90071428Y-102321428D01*
X90142857Y-102250000D01*
X90285714Y-102178571D01*
X90500000Y-102178571D01*
X90642857Y-102250000D01*
X90714285Y-102321428D01*
X90785714Y-102464285D01*
X90785714Y-102892857D01*
X90714285Y-103035714D01*
X90642857Y-103107142D01*
X90500000Y-103178571D01*
X90285714Y-103178571D01*
X91428571Y-103178571D02*
X91428571Y-102178571D01*
X91428571Y-102464285D02*
X91500000Y-102321428D01*
X91571428Y-102250000D01*
X91714285Y-102178571D01*
X91857142Y-102178571D01*
X93000000Y-103178571D02*
X93000000Y-102392857D01*
X92928571Y-102250000D01*
X92785714Y-102178571D01*
X92500000Y-102178571D01*
X92357142Y-102250000D01*
X93000000Y-103107142D02*
X92857142Y-103178571D01*
X92500000Y-103178571D01*
X92357142Y-103107142D01*
X92285714Y-102964285D01*
X92285714Y-102821428D01*
X92357142Y-102678571D01*
X92500000Y-102607142D01*
X92857142Y-102607142D01*
X93000000Y-102535714D01*
X93714285Y-102178571D02*
X93714285Y-103178571D01*
X93714285Y-102321428D02*
X93785714Y-102250000D01*
X93928571Y-102178571D01*
X94142857Y-102178571D01*
X94285714Y-102250000D01*
X94357142Y-102392857D01*
X94357142Y-103178571D01*
X95714285Y-102178571D02*
X95714285Y-103392857D01*
X95642857Y-103535714D01*
X95571428Y-103607142D01*
X95428571Y-103678571D01*
X95214285Y-103678571D01*
X95071428Y-103607142D01*
X95714285Y-103107142D02*
X95571428Y-103178571D01*
X95285714Y-103178571D01*
X95142857Y-103107142D01*
X95071428Y-103035714D01*
X95000000Y-102892857D01*
X95000000Y-102464285D01*
X95071428Y-102321428D01*
X95142857Y-102250000D01*
X95285714Y-102178571D01*
X95571428Y-102178571D01*
X95714285Y-102250000D01*
X97000000Y-103107142D02*
X96857142Y-103178571D01*
X96571428Y-103178571D01*
X96428571Y-103107142D01*
X96357142Y-102964285D01*
X96357142Y-102392857D01*
X96428571Y-102250000D01*
X96571428Y-102178571D01*
X96857142Y-102178571D01*
X97000000Y-102250000D01*
X97071428Y-102392857D01*
X97071428Y-102535714D01*
X96357142Y-102678571D01*
X97714285Y-102178571D02*
X97714285Y-103678571D01*
X97714285Y-102250000D02*
X97857142Y-102178571D01*
X98142857Y-102178571D01*
X98285714Y-102250000D01*
X98357142Y-102321428D01*
X98428571Y-102464285D01*
X98428571Y-102892857D01*
X98357142Y-103035714D01*
X98285714Y-103107142D01*
X98142857Y-103178571D01*
X97857142Y-103178571D01*
X97714285Y-103107142D01*
X99071428Y-103178571D02*
X99071428Y-102178571D01*
X99071428Y-101678571D02*
X99000000Y-101750000D01*
X99071428Y-101821428D01*
X99142857Y-101750000D01*
X99071428Y-101678571D01*
X99071428Y-101821428D01*
X99642857Y-102178571D02*
X100428571Y-102178571D01*
X99642857Y-103178571D01*
X100428571Y-103178571D01*
X101571428Y-103107142D02*
X101428571Y-103178571D01*
X101142857Y-103178571D01*
X101000000Y-103107142D01*
X100928571Y-102964285D01*
X100928571Y-102392857D01*
X101000000Y-102250000D01*
X101142857Y-102178571D01*
X101428571Y-102178571D01*
X101571428Y-102250000D01*
X101642857Y-102392857D01*
X101642857Y-102535714D01*
X100928571Y-102678571D01*
X102285714Y-103178571D02*
X102285714Y-102178571D01*
X102285714Y-102464285D02*
X102357142Y-102321428D01*
X102428571Y-102250000D01*
X102571428Y-102178571D01*
X102714285Y-102178571D01*
X103428571Y-103178571D02*
X103285714Y-103107142D01*
X103214285Y-103035714D01*
X103142857Y-102892857D01*
X103142857Y-102464285D01*
X103214285Y-102321428D01*
X103285714Y-102250000D01*
X103428571Y-102178571D01*
X103642857Y-102178571D01*
X103785714Y-102250000D01*
X103857142Y-102321428D01*
X103928571Y-102464285D01*
X103928571Y-102892857D01*
X103857142Y-103035714D01*
X103785714Y-103107142D01*
X103642857Y-103178571D01*
X103428571Y-103178571D01*
D11*
X75119047Y-100130952D02*
X74285714Y-98940476D01*
X73690476Y-100130952D02*
X73690476Y-97630952D01*
X74642857Y-97630952D01*
X74880952Y-97750000D01*
X75000000Y-97869047D01*
X75119047Y-98107142D01*
X75119047Y-98464285D01*
X75000000Y-98702380D01*
X74880952Y-98821428D01*
X74642857Y-98940476D01*
X73690476Y-98940476D01*
X76547619Y-100130952D02*
X76309523Y-100011904D01*
X76190476Y-99892857D01*
X76071428Y-99654761D01*
X76071428Y-98940476D01*
X76190476Y-98702380D01*
X76309523Y-98583333D01*
X76547619Y-98464285D01*
X76904761Y-98464285D01*
X77142857Y-98583333D01*
X77261904Y-98702380D01*
X77380952Y-98940476D01*
X77380952Y-99654761D01*
X77261904Y-99892857D01*
X77142857Y-100011904D01*
X76904761Y-100130952D01*
X76547619Y-100130952D01*
X78452380Y-100130952D02*
X78452380Y-97630952D01*
X78452380Y-98583333D02*
X78690476Y-98464285D01*
X79166666Y-98464285D01*
X79404761Y-98583333D01*
X79523809Y-98702380D01*
X79642857Y-98940476D01*
X79642857Y-99654761D01*
X79523809Y-99892857D01*
X79404761Y-100011904D01*
X79166666Y-100130952D01*
X78690476Y-100130952D01*
X78452380Y-100011904D01*
X80714285Y-100130952D02*
X80714285Y-98464285D01*
X80714285Y-97630952D02*
X80595238Y-97750000D01*
X80714285Y-97869047D01*
X80833333Y-97750000D01*
X80714285Y-97630952D01*
X80714285Y-97869047D01*
X81904761Y-98464285D02*
X81904761Y-100130952D01*
X81904761Y-98702380D02*
X82023809Y-98583333D01*
X82261904Y-98464285D01*
X82619047Y-98464285D01*
X82857142Y-98583333D01*
X82976190Y-98821428D01*
X82976190Y-100130952D01*
X84642857Y-97630952D02*
X85119047Y-97630952D01*
X85357142Y-97750000D01*
X85595238Y-97988095D01*
X85714285Y-98464285D01*
X85714285Y-99297619D01*
X85595238Y-99773809D01*
X85357142Y-100011904D01*
X85119047Y-100130952D01*
X84642857Y-100130952D01*
X84404761Y-100011904D01*
X84166666Y-99773809D01*
X84047619Y-99297619D01*
X84047619Y-98464285D01*
X84166666Y-97988095D01*
X84404761Y-97750000D01*
X84642857Y-97630952D01*
X87142857Y-100130952D02*
X86904761Y-100011904D01*
X86785714Y-99773809D01*
X86785714Y-97630952D01*
X89047619Y-100011904D02*
X88809523Y-100130952D01*
X88333333Y-100130952D01*
X88095238Y-100011904D01*
X87976190Y-99773809D01*
X87976190Y-98821428D01*
X88095238Y-98583333D01*
X88333333Y-98464285D01*
X88809523Y-98464285D01*
X89047619Y-98583333D01*
X89166666Y-98821428D01*
X89166666Y-99059523D01*
X87976190Y-99297619D01*
X90238095Y-98464285D02*
X90238095Y-100607142D01*
X90119047Y-100845238D01*
X89880952Y-100964285D01*
X89761904Y-100964285D01*
X90238095Y-97630952D02*
X90119047Y-97750000D01*
X90238095Y-97869047D01*
X90357142Y-97750000D01*
X90238095Y-97630952D01*
X90238095Y-97869047D01*
X91428571Y-98464285D02*
X91428571Y-100130952D01*
X91428571Y-98702380D02*
X91547619Y-98583333D01*
X91785714Y-98464285D01*
X92142857Y-98464285D01*
X92380952Y-98583333D01*
X92500000Y-98821428D01*
X92500000Y-100130952D01*
X93690476Y-100130952D02*
X93690476Y-98464285D01*
X93690476Y-97630952D02*
X93571428Y-97750000D01*
X93690476Y-97869047D01*
X93809523Y-97750000D01*
X93690476Y-97630952D01*
X93690476Y-97869047D01*
X94880952Y-100130952D02*
X94880952Y-97630952D01*
X95119047Y-99178571D02*
X95833333Y-100130952D01*
X95833333Y-98464285D02*
X94880952Y-99416666D01*
X96904761Y-99892857D02*
X97023809Y-100011904D01*
X96904761Y-100130952D01*
X96785714Y-100011904D01*
X96904761Y-99892857D01*
X96904761Y-100130952D01*
X99166666Y-100130952D02*
X99166666Y-97630952D01*
X99166666Y-100011904D02*
X98928571Y-100130952D01*
X98452380Y-100130952D01*
X98214285Y-100011904D01*
X98095238Y-99892857D01*
X97976190Y-99654761D01*
X97976190Y-98940476D01*
X98095238Y-98702380D01*
X98214285Y-98583333D01*
X98452380Y-98464285D01*
X98928571Y-98464285D01*
X99166666Y-98583333D01*
X101309523Y-100011904D02*
X101071428Y-100130952D01*
X100595238Y-100130952D01*
X100357142Y-100011904D01*
X100238095Y-99773809D01*
X100238095Y-98821428D01*
X100357142Y-98583333D01*
X100595238Y-98464285D01*
X101071428Y-98464285D01*
X101309523Y-98583333D01*
X101428571Y-98821428D01*
X101428571Y-99059523D01*
X100238095Y-99297619D01*
D12*
X99928571Y-108571428D02*
X99785714Y-108714285D01*
X99357142Y-108857142D01*
X99071428Y-108857142D01*
X98642857Y-108714285D01*
X98357142Y-108428571D01*
X98214285Y-108142857D01*
X98071428Y-107571428D01*
X98071428Y-107142857D01*
X98214285Y-106571428D01*
X98357142Y-106285714D01*
X98642857Y-106000000D01*
X99071428Y-105857142D01*
X99357142Y-105857142D01*
X99785714Y-106000000D01*
X99928571Y-106142857D01*
X82714285Y-107285714D02*
X83142857Y-107428571D01*
X83285714Y-107571428D01*
X83428571Y-107857142D01*
X83428571Y-108285714D01*
X83285714Y-108571428D01*
X83142857Y-108714285D01*
X82857142Y-108857142D01*
X81714285Y-108857142D01*
X81714285Y-105857142D01*
X82714285Y-105857142D01*
X83000000Y-106000000D01*
X83142857Y-106142857D01*
X83285714Y-106428571D01*
X83285714Y-106714285D01*
X83142857Y-107000000D01*
X83000000Y-107142857D01*
X82714285Y-107285714D01*
X81714285Y-107285714D01*
X65285714Y-108000000D02*
X66714285Y-108000000D01*
X65000000Y-108857142D02*
X66000000Y-105857142D01*
X67000000Y-108857142D01*
D11*
X59833333Y-61404761D02*
X60309523Y-63404761D01*
X60690476Y-61976190D01*
X61071428Y-63404761D01*
X61547619Y-61404761D01*
X62309523Y-63404761D02*
X62309523Y-61404761D01*
X63928571Y-62357142D02*
X63261904Y-62357142D01*
X63261904Y-63404761D02*
X63261904Y-61404761D01*
X64214285Y-61404761D01*
X64976190Y-63404761D02*
X64976190Y-61404761D01*
D13*
X113928571Y-107607142D02*
X115071428Y-107607142D01*
X114500000Y-108178571D02*
X114500000Y-107035714D01*
X107928571Y-107607142D02*
X109071428Y-107607142D01*
X107571428Y-105178571D02*
X107857142Y-105178571D01*
X108000000Y-105107142D01*
X108071428Y-105035714D01*
X108214285Y-104821428D01*
X108285714Y-104535714D01*
X108285714Y-103964285D01*
X108214285Y-103821428D01*
X108142857Y-103750000D01*
X108000000Y-103678571D01*
X107714285Y-103678571D01*
X107571428Y-103750000D01*
X107500000Y-103821428D01*
X107428571Y-103964285D01*
X107428571Y-104321428D01*
X107500000Y-104464285D01*
X107571428Y-104535714D01*
X107714285Y-104607142D01*
X108000000Y-104607142D01*
X108142857Y-104535714D01*
X108214285Y-104464285D01*
X108285714Y-104321428D01*
X108714285Y-103678571D02*
X109214285Y-105178571D01*
X109714285Y-103678571D01*
X110214285Y-104607142D02*
X111357142Y-104607142D01*
X112000000Y-103821428D02*
X112071428Y-103750000D01*
X112214285Y-103678571D01*
X112571428Y-103678571D01*
X112714285Y-103750000D01*
X112785714Y-103821428D01*
X112857142Y-103964285D01*
X112857142Y-104107142D01*
X112785714Y-104321428D01*
X111928571Y-105178571D01*
X112857142Y-105178571D01*
X114142857Y-103678571D02*
X113857142Y-103678571D01*
X113714285Y-103750000D01*
X113642857Y-103821428D01*
X113500000Y-104035714D01*
X113428571Y-104321428D01*
X113428571Y-104892857D01*
X113500000Y-105035714D01*
X113571428Y-105107142D01*
X113714285Y-105178571D01*
X114000000Y-105178571D01*
X114142857Y-105107142D01*
X114214285Y-105035714D01*
X114285714Y-104892857D01*
X114285714Y-104535714D01*
X114214285Y-104392857D01*
X114142857Y-104321428D01*
X114000000Y-104250000D01*
X113714285Y-104250000D01*
X113571428Y-104321428D01*
X113500000Y-104392857D01*
X113428571Y-104535714D01*
X114714285Y-103678571D02*
X115214285Y-105178571D01*
X115714285Y-103678571D01*
D11*
X92261904Y-65857142D02*
X92928571Y-65857142D01*
X93214285Y-66904761D02*
X92261904Y-66904761D01*
X92261904Y-64904761D01*
X93214285Y-64904761D01*
X93785714Y-64904761D02*
X94928571Y-64904761D01*
X94357142Y-66904761D02*
X94357142Y-64904761D01*
X95595238Y-66904761D02*
X95595238Y-64904761D01*
X95595238Y-65857142D02*
X96738095Y-65857142D01*
X96738095Y-66904761D02*
X96738095Y-64904761D01*
X77976190Y-64904761D02*
X77976190Y-66523809D01*
X78071428Y-66714285D01*
X78166666Y-66809523D01*
X78357142Y-66904761D01*
X78738095Y-66904761D01*
X78928571Y-66809523D01*
X79023809Y-66714285D01*
X79119047Y-66523809D01*
X79119047Y-64904761D01*
X79976190Y-66809523D02*
X80261904Y-66904761D01*
X80738095Y-66904761D01*
X80928571Y-66809523D01*
X81023809Y-66714285D01*
X81119047Y-66523809D01*
X81119047Y-66333333D01*
X81023809Y-66142857D01*
X80928571Y-66047619D01*
X80738095Y-65952380D01*
X80357142Y-65857142D01*
X80166666Y-65761904D01*
X80071428Y-65666666D01*
X79976190Y-65476190D01*
X79976190Y-65285714D01*
X80071428Y-65095238D01*
X80166666Y-65000000D01*
X80357142Y-64904761D01*
X80833333Y-64904761D01*
X81119047Y-65000000D01*
X82642857Y-65857142D02*
X82928571Y-65952380D01*
X83023809Y-66047619D01*
X83119047Y-66238095D01*
X83119047Y-66523809D01*
X83023809Y-66714285D01*
X82928571Y-66809523D01*
X82738095Y-66904761D01*
X81976190Y-66904761D01*
X81976190Y-64904761D01*
X82642857Y-64904761D01*
X82833333Y-65000000D01*
X82928571Y-65095238D01*
X83023809Y-65285714D01*
X83023809Y-65476190D01*
X82928571Y-65666666D01*
X82833333Y-65761904D01*
X82642857Y-65857142D01*
X81976190Y-65857142D01*
D14*
G36*
X115746535Y-58633172D02*
G01*
X115859117Y-59230363D01*
X116274531Y-59401610D01*
X116689944Y-59572857D01*
X117188302Y-59233978D01*
X117327868Y-59139622D01*
X117454028Y-59055375D01*
X117560895Y-58985083D01*
X117642582Y-58932592D01*
X117693201Y-58901749D01*
X117706986Y-58895098D01*
X117731820Y-58912203D01*
X117784888Y-58959489D01*
X117860240Y-59030917D01*
X117951929Y-59120445D01*
X118054007Y-59222034D01*
X118160526Y-59329643D01*
X118265536Y-59437232D01*
X118363091Y-59538760D01*
X118447242Y-59628186D01*
X118512040Y-59699471D01*
X118551538Y-59746573D01*
X118560980Y-59762337D01*
X118547391Y-59791398D01*
X118509293Y-59855066D01*
X118450694Y-59947112D01*
X118375597Y-60061309D01*
X118288009Y-60191429D01*
X118237254Y-60265646D01*
X118144745Y-60401167D01*
X118062540Y-60523461D01*
X117994630Y-60626440D01*
X117945000Y-60704018D01*
X117917640Y-60750106D01*
X117913529Y-60759792D01*
X117922849Y-60787319D01*
X117948254Y-60851473D01*
X117985911Y-60943235D01*
X118031986Y-61053584D01*
X118082646Y-61173500D01*
X118134059Y-61293964D01*
X118182389Y-61405954D01*
X118223806Y-61500452D01*
X118254474Y-61568437D01*
X118270562Y-61600888D01*
X118271511Y-61602165D01*
X118296772Y-61608362D01*
X118364046Y-61622185D01*
X118466360Y-61642277D01*
X118596741Y-61667279D01*
X118748216Y-61695831D01*
X118836594Y-61712296D01*
X118998452Y-61743114D01*
X119144649Y-61772439D01*
X119267787Y-61798666D01*
X119360469Y-61820191D01*
X119415301Y-61835410D01*
X119426323Y-61840238D01*
X119437119Y-61872919D01*
X119445829Y-61946730D01*
X119452460Y-62053037D01*
X119457018Y-62183212D01*
X119459509Y-62328621D01*
X119459938Y-62480635D01*
X119458311Y-62630622D01*
X119454635Y-62769951D01*
X119448915Y-62889990D01*
X119441158Y-62982110D01*
X119431368Y-63037677D01*
X119425496Y-63049245D01*
X119390399Y-63063110D01*
X119316028Y-63082933D01*
X119212223Y-63106384D01*
X119088819Y-63131136D01*
X119045741Y-63139143D01*
X118838047Y-63177186D01*
X118673984Y-63207824D01*
X118548130Y-63232274D01*
X118455065Y-63251754D01*
X118389367Y-63267481D01*
X118345617Y-63280673D01*
X118318392Y-63292549D01*
X118302272Y-63304325D01*
X118300017Y-63306653D01*
X118277503Y-63344145D01*
X118243158Y-63417110D01*
X118200411Y-63516612D01*
X118152692Y-63633718D01*
X118103430Y-63759493D01*
X118056055Y-63885002D01*
X118013995Y-64001310D01*
X117980680Y-64099484D01*
X117959541Y-64170588D01*
X117954005Y-64205687D01*
X117954466Y-64206917D01*
X117973223Y-64235606D01*
X118015776Y-64298730D01*
X118077653Y-64389718D01*
X118154382Y-64502000D01*
X118241491Y-64629005D01*
X118266299Y-64665098D01*
X118354753Y-64795948D01*
X118432588Y-64915336D01*
X118495566Y-65016407D01*
X118539445Y-65092304D01*
X118559985Y-65136172D01*
X118560980Y-65141562D01*
X118543722Y-65169889D01*
X118496036Y-65226006D01*
X118424050Y-65303882D01*
X118333897Y-65397485D01*
X118231705Y-65500786D01*
X118123606Y-65607751D01*
X118015728Y-65712351D01*
X117914204Y-65808554D01*
X117825162Y-65890329D01*
X117754733Y-65951645D01*
X117709047Y-65986471D01*
X117696409Y-65992157D01*
X117666991Y-65978765D01*
X117606761Y-65942644D01*
X117525530Y-65889881D01*
X117463030Y-65847412D01*
X117349785Y-65769485D01*
X117215674Y-65677729D01*
X117081155Y-65586120D01*
X117008833Y-65537091D01*
X116764038Y-65371515D01*
X116558551Y-65482620D01*
X116464936Y-65531293D01*
X116385330Y-65569126D01*
X116331467Y-65590703D01*
X116317757Y-65593706D01*
X116301270Y-65571538D01*
X116268745Y-65508894D01*
X116222609Y-65411554D01*
X116165290Y-65285294D01*
X116099216Y-65135895D01*
X116026815Y-64969133D01*
X115950516Y-64790787D01*
X115872746Y-64606636D01*
X115795934Y-64422457D01*
X115722506Y-64244030D01*
X115654892Y-64077132D01*
X115595520Y-63927542D01*
X115546816Y-63801038D01*
X115511210Y-63703399D01*
X115491130Y-63640402D01*
X115487900Y-63618766D01*
X115513496Y-63591169D01*
X115569539Y-63546370D01*
X115644311Y-63493679D01*
X115650587Y-63489510D01*
X115843845Y-63334814D01*
X115999674Y-63154336D01*
X116116724Y-62953847D01*
X116193645Y-62739119D01*
X116229086Y-62515922D01*
X116221697Y-62290026D01*
X116170127Y-62067204D01*
X116073026Y-61853224D01*
X116044458Y-61806409D01*
X115895868Y-61617363D01*
X115720327Y-61465557D01*
X115523910Y-61351779D01*
X115312693Y-61276820D01*
X115092753Y-61241467D01*
X114870163Y-61246512D01*
X114651001Y-61292744D01*
X114441342Y-61380951D01*
X114247261Y-61511924D01*
X114187226Y-61565082D01*
X114034435Y-61731484D01*
X113923097Y-61906657D01*
X113846723Y-62103011D01*
X113804187Y-62297462D01*
X113793686Y-62516087D01*
X113828701Y-62735797D01*
X113905673Y-62949165D01*
X114021047Y-63148767D01*
X114171266Y-63327174D01*
X114352773Y-63476962D01*
X114376627Y-63492751D01*
X114452201Y-63544457D01*
X114509651Y-63589257D01*
X114537117Y-63617862D01*
X114537517Y-63618766D01*
X114531620Y-63649709D01*
X114508245Y-63719936D01*
X114469821Y-63823670D01*
X114418777Y-63955135D01*
X114357542Y-64108552D01*
X114288544Y-64278146D01*
X114214214Y-64458138D01*
X114136978Y-64642753D01*
X114059268Y-64826213D01*
X113983511Y-65002741D01*
X113912137Y-65166559D01*
X113847574Y-65311892D01*
X113792252Y-65432962D01*
X113748600Y-65523992D01*
X113719046Y-65579205D01*
X113707144Y-65593706D01*
X113670777Y-65582414D01*
X113602730Y-65552130D01*
X113514737Y-65508265D01*
X113466351Y-65482620D01*
X113260863Y-65371515D01*
X113016068Y-65537091D01*
X112891106Y-65621915D01*
X112754295Y-65715261D01*
X112626089Y-65803153D01*
X112561871Y-65847412D01*
X112471551Y-65908063D01*
X112395071Y-65956126D01*
X112342407Y-65985515D01*
X112325302Y-65991727D01*
X112300405Y-65974968D01*
X112245305Y-65928181D01*
X112165343Y-65856225D01*
X112065861Y-65763957D01*
X111952200Y-65656235D01*
X111880315Y-65587071D01*
X111754551Y-65463502D01*
X111645863Y-65352979D01*
X111558645Y-65260230D01*
X111497289Y-65189982D01*
X111466191Y-65146965D01*
X111463208Y-65138235D01*
X111477053Y-65105029D01*
X111515312Y-65037887D01*
X111573742Y-64943608D01*
X111648097Y-64828990D01*
X111734135Y-64700828D01*
X111758603Y-64665098D01*
X111847755Y-64535234D01*
X111927738Y-64418314D01*
X111994080Y-64320907D01*
X112042311Y-64249584D01*
X112067957Y-64210915D01*
X112070435Y-64206917D01*
X112066729Y-64176100D01*
X112047061Y-64108344D01*
X112014860Y-64012584D01*
X111973555Y-63897754D01*
X111926575Y-63772789D01*
X111877349Y-63646624D01*
X111829308Y-63528193D01*
X111785881Y-63426430D01*
X111750496Y-63350271D01*
X111726584Y-63308649D01*
X111724884Y-63306653D01*
X111710262Y-63294758D01*
X111685565Y-63282995D01*
X111645372Y-63270146D01*
X111584263Y-63254994D01*
X111496817Y-63236321D01*
X111377612Y-63212910D01*
X111221227Y-63183542D01*
X111022243Y-63147000D01*
X110979160Y-63139143D01*
X110851471Y-63114472D01*
X110740153Y-63090338D01*
X110655045Y-63069069D01*
X110605983Y-63052993D01*
X110599405Y-63049245D01*
X110588564Y-63016018D01*
X110579753Y-62941766D01*
X110572976Y-62835121D01*
X110568240Y-62704712D01*
X110565550Y-62559172D01*
X110564913Y-62407131D01*
X110566334Y-62257221D01*
X110569820Y-62118073D01*
X110575376Y-61998317D01*
X110583008Y-61906586D01*
X110592722Y-61851511D01*
X110598578Y-61840238D01*
X110631180Y-61828868D01*
X110705418Y-61810369D01*
X110813896Y-61786347D01*
X110949217Y-61758407D01*
X111103985Y-61728153D01*
X111188308Y-61712296D01*
X111348296Y-61682389D01*
X111490967Y-61655295D01*
X111609348Y-61632376D01*
X111696465Y-61614988D01*
X111745345Y-61604492D01*
X111753390Y-61602165D01*
X111766987Y-61575931D01*
X111795729Y-61512740D01*
X111835785Y-61421622D01*
X111883324Y-61311602D01*
X111934515Y-61191710D01*
X111985526Y-61070972D01*
X112032526Y-60958416D01*
X112071684Y-60863071D01*
X112099169Y-60793962D01*
X112111149Y-60760119D01*
X112111372Y-60758640D01*
X112097791Y-60731942D01*
X112059715Y-60670505D01*
X112001147Y-60580434D01*
X111926088Y-60467835D01*
X111838540Y-60338815D01*
X111787647Y-60264706D01*
X111694909Y-60128822D01*
X111612541Y-60005454D01*
X111544561Y-59900842D01*
X111494988Y-59821228D01*
X111467842Y-59772852D01*
X111463921Y-59762007D01*
X111480775Y-59736765D01*
X111527368Y-59682869D01*
X111597749Y-59606358D01*
X111685965Y-59513268D01*
X111786065Y-59409640D01*
X111892098Y-59301509D01*
X111998111Y-59194915D01*
X112098152Y-59095895D01*
X112186270Y-59010487D01*
X112256513Y-58944730D01*
X112302928Y-58904661D01*
X112318456Y-58895098D01*
X112343739Y-58908545D01*
X112404211Y-58946320D01*
X112493992Y-59004580D01*
X112607203Y-59079479D01*
X112737964Y-59167170D01*
X112836600Y-59233978D01*
X113334957Y-59572857D01*
X113750371Y-59401610D01*
X114165784Y-59230363D01*
X114278366Y-58633172D01*
X114390949Y-58035980D01*
X115633952Y-58035980D01*
X115746535Y-58633172D01*
G37*
X115746535Y-58633172D02*
X115859117Y-59230363D01*
X116274531Y-59401610D01*
X116689944Y-59572857D01*
X117188302Y-59233978D01*
X117327868Y-59139622D01*
X117454028Y-59055375D01*
X117560895Y-58985083D01*
X117642582Y-58932592D01*
X117693201Y-58901749D01*
X117706986Y-58895098D01*
X117731820Y-58912203D01*
X117784888Y-58959489D01*
X117860240Y-59030917D01*
X117951929Y-59120445D01*
X118054007Y-59222034D01*
X118160526Y-59329643D01*
X118265536Y-59437232D01*
X118363091Y-59538760D01*
X118447242Y-59628186D01*
X118512040Y-59699471D01*
X118551538Y-59746573D01*
X118560980Y-59762337D01*
X118547391Y-59791398D01*
X118509293Y-59855066D01*
X118450694Y-59947112D01*
X118375597Y-60061309D01*
X118288009Y-60191429D01*
X118237254Y-60265646D01*
X118144745Y-60401167D01*
X118062540Y-60523461D01*
X117994630Y-60626440D01*
X117945000Y-60704018D01*
X117917640Y-60750106D01*
X117913529Y-60759792D01*
X117922849Y-60787319D01*
X117948254Y-60851473D01*
X117985911Y-60943235D01*
X118031986Y-61053584D01*
X118082646Y-61173500D01*
X118134059Y-61293964D01*
X118182389Y-61405954D01*
X118223806Y-61500452D01*
X118254474Y-61568437D01*
X118270562Y-61600888D01*
X118271511Y-61602165D01*
X118296772Y-61608362D01*
X118364046Y-61622185D01*
X118466360Y-61642277D01*
X118596741Y-61667279D01*
X118748216Y-61695831D01*
X118836594Y-61712296D01*
X118998452Y-61743114D01*
X119144649Y-61772439D01*
X119267787Y-61798666D01*
X119360469Y-61820191D01*
X119415301Y-61835410D01*
X119426323Y-61840238D01*
X119437119Y-61872919D01*
X119445829Y-61946730D01*
X119452460Y-62053037D01*
X119457018Y-62183212D01*
X119459509Y-62328621D01*
X119459938Y-62480635D01*
X119458311Y-62630622D01*
X119454635Y-62769951D01*
X119448915Y-62889990D01*
X119441158Y-62982110D01*
X119431368Y-63037677D01*
X119425496Y-63049245D01*
X119390399Y-63063110D01*
X119316028Y-63082933D01*
X119212223Y-63106384D01*
X119088819Y-63131136D01*
X119045741Y-63139143D01*
X118838047Y-63177186D01*
X118673984Y-63207824D01*
X118548130Y-63232274D01*
X118455065Y-63251754D01*
X118389367Y-63267481D01*
X118345617Y-63280673D01*
X118318392Y-63292549D01*
X118302272Y-63304325D01*
X118300017Y-63306653D01*
X118277503Y-63344145D01*
X118243158Y-63417110D01*
X118200411Y-63516612D01*
X118152692Y-63633718D01*
X118103430Y-63759493D01*
X118056055Y-63885002D01*
X118013995Y-64001310D01*
X117980680Y-64099484D01*
X117959541Y-64170588D01*
X117954005Y-64205687D01*
X117954466Y-64206917D01*
X117973223Y-64235606D01*
X118015776Y-64298730D01*
X118077653Y-64389718D01*
X118154382Y-64502000D01*
X118241491Y-64629005D01*
X118266299Y-64665098D01*
X118354753Y-64795948D01*
X118432588Y-64915336D01*
X118495566Y-65016407D01*
X118539445Y-65092304D01*
X118559985Y-65136172D01*
X118560980Y-65141562D01*
X118543722Y-65169889D01*
X118496036Y-65226006D01*
X118424050Y-65303882D01*
X118333897Y-65397485D01*
X118231705Y-65500786D01*
X118123606Y-65607751D01*
X118015728Y-65712351D01*
X117914204Y-65808554D01*
X117825162Y-65890329D01*
X117754733Y-65951645D01*
X117709047Y-65986471D01*
X117696409Y-65992157D01*
X117666991Y-65978765D01*
X117606761Y-65942644D01*
X117525530Y-65889881D01*
X117463030Y-65847412D01*
X117349785Y-65769485D01*
X117215674Y-65677729D01*
X117081155Y-65586120D01*
X117008833Y-65537091D01*
X116764038Y-65371515D01*
X116558551Y-65482620D01*
X116464936Y-65531293D01*
X116385330Y-65569126D01*
X116331467Y-65590703D01*
X116317757Y-65593706D01*
X116301270Y-65571538D01*
X116268745Y-65508894D01*
X116222609Y-65411554D01*
X116165290Y-65285294D01*
X116099216Y-65135895D01*
X116026815Y-64969133D01*
X115950516Y-64790787D01*
X115872746Y-64606636D01*
X115795934Y-64422457D01*
X115722506Y-64244030D01*
X115654892Y-64077132D01*
X115595520Y-63927542D01*
X115546816Y-63801038D01*
X115511210Y-63703399D01*
X115491130Y-63640402D01*
X115487900Y-63618766D01*
X115513496Y-63591169D01*
X115569539Y-63546370D01*
X115644311Y-63493679D01*
X115650587Y-63489510D01*
X115843845Y-63334814D01*
X115999674Y-63154336D01*
X116116724Y-62953847D01*
X116193645Y-62739119D01*
X116229086Y-62515922D01*
X116221697Y-62290026D01*
X116170127Y-62067204D01*
X116073026Y-61853224D01*
X116044458Y-61806409D01*
X115895868Y-61617363D01*
X115720327Y-61465557D01*
X115523910Y-61351779D01*
X115312693Y-61276820D01*
X115092753Y-61241467D01*
X114870163Y-61246512D01*
X114651001Y-61292744D01*
X114441342Y-61380951D01*
X114247261Y-61511924D01*
X114187226Y-61565082D01*
X114034435Y-61731484D01*
X113923097Y-61906657D01*
X113846723Y-62103011D01*
X113804187Y-62297462D01*
X113793686Y-62516087D01*
X113828701Y-62735797D01*
X113905673Y-62949165D01*
X114021047Y-63148767D01*
X114171266Y-63327174D01*
X114352773Y-63476962D01*
X114376627Y-63492751D01*
X114452201Y-63544457D01*
X114509651Y-63589257D01*
X114537117Y-63617862D01*
X114537517Y-63618766D01*
X114531620Y-63649709D01*
X114508245Y-63719936D01*
X114469821Y-63823670D01*
X114418777Y-63955135D01*
X114357542Y-64108552D01*
X114288544Y-64278146D01*
X114214214Y-64458138D01*
X114136978Y-64642753D01*
X114059268Y-64826213D01*
X113983511Y-65002741D01*
X113912137Y-65166559D01*
X113847574Y-65311892D01*
X113792252Y-65432962D01*
X113748600Y-65523992D01*
X113719046Y-65579205D01*
X113707144Y-65593706D01*
X113670777Y-65582414D01*
X113602730Y-65552130D01*
X113514737Y-65508265D01*
X113466351Y-65482620D01*
X113260863Y-65371515D01*
X113016068Y-65537091D01*
X112891106Y-65621915D01*
X112754295Y-65715261D01*
X112626089Y-65803153D01*
X112561871Y-65847412D01*
X112471551Y-65908063D01*
X112395071Y-65956126D01*
X112342407Y-65985515D01*
X112325302Y-65991727D01*
X112300405Y-65974968D01*
X112245305Y-65928181D01*
X112165343Y-65856225D01*
X112065861Y-65763957D01*
X111952200Y-65656235D01*
X111880315Y-65587071D01*
X111754551Y-65463502D01*
X111645863Y-65352979D01*
X111558645Y-65260230D01*
X111497289Y-65189982D01*
X111466191Y-65146965D01*
X111463208Y-65138235D01*
X111477053Y-65105029D01*
X111515312Y-65037887D01*
X111573742Y-64943608D01*
X111648097Y-64828990D01*
X111734135Y-64700828D01*
X111758603Y-64665098D01*
X111847755Y-64535234D01*
X111927738Y-64418314D01*
X111994080Y-64320907D01*
X112042311Y-64249584D01*
X112067957Y-64210915D01*
X112070435Y-64206917D01*
X112066729Y-64176100D01*
X112047061Y-64108344D01*
X112014860Y-64012584D01*
X111973555Y-63897754D01*
X111926575Y-63772789D01*
X111877349Y-63646624D01*
X111829308Y-63528193D01*
X111785881Y-63426430D01*
X111750496Y-63350271D01*
X111726584Y-63308649D01*
X111724884Y-63306653D01*
X111710262Y-63294758D01*
X111685565Y-63282995D01*
X111645372Y-63270146D01*
X111584263Y-63254994D01*
X111496817Y-63236321D01*
X111377612Y-63212910D01*
X111221227Y-63183542D01*
X111022243Y-63147000D01*
X110979160Y-63139143D01*
X110851471Y-63114472D01*
X110740153Y-63090338D01*
X110655045Y-63069069D01*
X110605983Y-63052993D01*
X110599405Y-63049245D01*
X110588564Y-63016018D01*
X110579753Y-62941766D01*
X110572976Y-62835121D01*
X110568240Y-62704712D01*
X110565550Y-62559172D01*
X110564913Y-62407131D01*
X110566334Y-62257221D01*
X110569820Y-62118073D01*
X110575376Y-61998317D01*
X110583008Y-61906586D01*
X110592722Y-61851511D01*
X110598578Y-61840238D01*
X110631180Y-61828868D01*
X110705418Y-61810369D01*
X110813896Y-61786347D01*
X110949217Y-61758407D01*
X111103985Y-61728153D01*
X111188308Y-61712296D01*
X111348296Y-61682389D01*
X111490967Y-61655295D01*
X111609348Y-61632376D01*
X111696465Y-61614988D01*
X111745345Y-61604492D01*
X111753390Y-61602165D01*
X111766987Y-61575931D01*
X111795729Y-61512740D01*
X111835785Y-61421622D01*
X111883324Y-61311602D01*
X111934515Y-61191710D01*
X111985526Y-61070972D01*
X112032526Y-60958416D01*
X112071684Y-60863071D01*
X112099169Y-60793962D01*
X112111149Y-60760119D01*
X112111372Y-60758640D01*
X112097791Y-60731942D01*
X112059715Y-60670505D01*
X112001147Y-60580434D01*
X111926088Y-60467835D01*
X111838540Y-60338815D01*
X111787647Y-60264706D01*
X111694909Y-60128822D01*
X111612541Y-60005454D01*
X111544561Y-59900842D01*
X111494988Y-59821228D01*
X111467842Y-59772852D01*
X111463921Y-59762007D01*
X111480775Y-59736765D01*
X111527368Y-59682869D01*
X111597749Y-59606358D01*
X111685965Y-59513268D01*
X111786065Y-59409640D01*
X111892098Y-59301509D01*
X111998111Y-59194915D01*
X112098152Y-59095895D01*
X112186270Y-59010487D01*
X112256513Y-58944730D01*
X112302928Y-58904661D01*
X112318456Y-58895098D01*
X112343739Y-58908545D01*
X112404211Y-58946320D01*
X112493992Y-59004580D01*
X112607203Y-59079479D01*
X112737964Y-59167170D01*
X112836600Y-59233978D01*
X113334957Y-59572857D01*
X113750371Y-59401610D01*
X114165784Y-59230363D01*
X114278366Y-58633172D01*
X114390949Y-58035980D01*
X115633952Y-58035980D01*
X115746535Y-58633172D01*
G36*
X118563637Y-66887472D02*
G01*
X118649290Y-66913641D01*
X118704437Y-66946707D01*
X118722401Y-66972855D01*
X118717457Y-67003852D01*
X118685372Y-67052547D01*
X118658243Y-67087035D01*
X118602317Y-67149383D01*
X118560299Y-67175615D01*
X118524480Y-67173903D01*
X118418224Y-67146863D01*
X118340189Y-67148091D01*
X118276820Y-67178735D01*
X118255546Y-67196670D01*
X118187451Y-67259779D01*
X118187451Y-68083922D01*
X117913529Y-68083922D01*
X117913529Y-66888628D01*
X118050490Y-66888628D01*
X118132719Y-66891879D01*
X118175144Y-66903426D01*
X118187445Y-66925952D01*
X118187451Y-66926620D01*
X118193260Y-66950215D01*
X118219531Y-66947138D01*
X118255931Y-66930115D01*
X118331111Y-66898439D01*
X118392158Y-66879381D01*
X118470708Y-66874496D01*
X118563637Y-66887472D01*
G37*
X118563637Y-66887472D02*
X118649290Y-66913641D01*
X118704437Y-66946707D01*
X118722401Y-66972855D01*
X118717457Y-67003852D01*
X118685372Y-67052547D01*
X118658243Y-67087035D01*
X118602317Y-67149383D01*
X118560299Y-67175615D01*
X118524480Y-67173903D01*
X118418224Y-67146863D01*
X118340189Y-67148091D01*
X118276820Y-67178735D01*
X118255546Y-67196670D01*
X118187451Y-67259779D01*
X118187451Y-68083922D01*
X117913529Y-68083922D01*
X117913529Y-66888628D01*
X118050490Y-66888628D01*
X118132719Y-66891879D01*
X118175144Y-66903426D01*
X118187445Y-66925952D01*
X118187451Y-66926620D01*
X118193260Y-66950215D01*
X118219531Y-66947138D01*
X118255931Y-66930115D01*
X118331111Y-66898439D01*
X118392158Y-66879381D01*
X118470708Y-66874496D01*
X118563637Y-66887472D01*
G36*
X113506760Y-66909199D02*
G01*
X113568736Y-66938802D01*
X113628759Y-66981561D01*
X113674486Y-67030775D01*
X113707793Y-67093544D01*
X113730555Y-67176971D01*
X113744647Y-67288159D01*
X113751942Y-67434209D01*
X113754318Y-67622223D01*
X113754355Y-67641912D01*
X113754902Y-68083922D01*
X113480980Y-68083922D01*
X113480980Y-67676435D01*
X113480785Y-67525471D01*
X113479436Y-67416056D01*
X113475788Y-67339933D01*
X113468696Y-67288848D01*
X113457013Y-67254545D01*
X113439594Y-67228768D01*
X113415329Y-67203298D01*
X113330435Y-67148571D01*
X113237761Y-67138416D01*
X113149473Y-67173017D01*
X113118770Y-67198770D01*
X113096229Y-67222982D01*
X113080046Y-67248912D01*
X113069168Y-67284708D01*
X113062542Y-67338519D01*
X113059115Y-67418493D01*
X113057834Y-67532779D01*
X113057647Y-67671907D01*
X113057647Y-68083922D01*
X112783725Y-68083922D01*
X112783725Y-66888628D01*
X112920686Y-66888628D01*
X113002916Y-66891879D01*
X113045340Y-66903426D01*
X113057641Y-66925952D01*
X113057647Y-66926620D01*
X113063354Y-66948681D01*
X113088527Y-66946177D01*
X113138578Y-66921937D01*
X113252094Y-66886271D01*
X113381945Y-66882305D01*
X113506760Y-66909199D01*
G37*
X113506760Y-66909199D02*
X113568736Y-66938802D01*
X113628759Y-66981561D01*
X113674486Y-67030775D01*
X113707793Y-67093544D01*
X113730555Y-67176971D01*
X113744647Y-67288159D01*
X113751942Y-67434209D01*
X113754318Y-67622223D01*
X113754355Y-67641912D01*
X113754902Y-68083922D01*
X113480980Y-68083922D01*
X113480980Y-67676435D01*
X113480785Y-67525471D01*
X113479436Y-67416056D01*
X113475788Y-67339933D01*
X113468696Y-67288848D01*
X113457013Y-67254545D01*
X113439594Y-67228768D01*
X113415329Y-67203298D01*
X113330435Y-67148571D01*
X113237761Y-67138416D01*
X113149473Y-67173017D01*
X113118770Y-67198770D01*
X113096229Y-67222982D01*
X113080046Y-67248912D01*
X113069168Y-67284708D01*
X113062542Y-67338519D01*
X113059115Y-67418493D01*
X113057834Y-67532779D01*
X113057647Y-67671907D01*
X113057647Y-68083922D01*
X112783725Y-68083922D01*
X112783725Y-66888628D01*
X112920686Y-66888628D01*
X113002916Y-66891879D01*
X113045340Y-66903426D01*
X113057641Y-66925952D01*
X113057647Y-66926620D01*
X113063354Y-66948681D01*
X113088527Y-66946177D01*
X113138578Y-66921937D01*
X113252094Y-66886271D01*
X113381945Y-66882305D01*
X113506760Y-66909199D01*
G36*
X120303287Y-66884355D02*
G01*
X120367051Y-66899845D01*
X120489300Y-66956569D01*
X120593834Y-67043202D01*
X120666180Y-67147074D01*
X120676119Y-67170396D01*
X120689754Y-67231484D01*
X120699298Y-67321853D01*
X120702549Y-67413190D01*
X120702549Y-67585882D01*
X120341470Y-67585882D01*
X120192546Y-67586445D01*
X120087632Y-67589864D01*
X120020937Y-67598731D01*
X119986666Y-67615641D01*
X119979028Y-67643189D01*
X119992229Y-67683968D01*
X120015877Y-67731683D01*
X120081843Y-67811314D01*
X120173512Y-67850987D01*
X120285555Y-67849695D01*
X120412472Y-67806514D01*
X120522158Y-67753224D01*
X120613173Y-67825191D01*
X120704188Y-67897157D01*
X120618563Y-67976269D01*
X120504250Y-68051017D01*
X120363666Y-68096084D01*
X120212449Y-68108696D01*
X120066236Y-68086079D01*
X120042647Y-68078405D01*
X119914141Y-68011296D01*
X119818551Y-67911247D01*
X119753861Y-67775271D01*
X119718057Y-67600380D01*
X119717640Y-67596632D01*
X119714434Y-67406032D01*
X119727393Y-67338035D01*
X119980392Y-67338035D01*
X120003627Y-67348491D01*
X120066710Y-67356500D01*
X120159706Y-67361073D01*
X120218638Y-67361765D01*
X120328537Y-67361332D01*
X120397252Y-67358578D01*
X120433405Y-67351321D01*
X120445615Y-67337376D01*
X120442504Y-67314562D01*
X120439894Y-67305735D01*
X120395344Y-67222800D01*
X120325279Y-67155960D01*
X120263446Y-67126589D01*
X120181301Y-67128362D01*
X120098062Y-67164990D01*
X120028238Y-67225634D01*
X119986337Y-67299456D01*
X119980392Y-67338035D01*
X119727393Y-67338035D01*
X119746385Y-67238395D01*
X119809773Y-67097711D01*
X119900878Y-66987974D01*
X120015978Y-66913174D01*
X120151355Y-66877304D01*
X120303287Y-66884355D01*
G37*
X120303287Y-66884355D02*
X120367051Y-66899845D01*
X120489300Y-66956569D01*
X120593834Y-67043202D01*
X120666180Y-67147074D01*
X120676119Y-67170396D01*
X120689754Y-67231484D01*
X120699298Y-67321853D01*
X120702549Y-67413190D01*
X120702549Y-67585882D01*
X120341470Y-67585882D01*
X120192546Y-67586445D01*
X120087632Y-67589864D01*
X120020937Y-67598731D01*
X119986666Y-67615641D01*
X119979028Y-67643189D01*
X119992229Y-67683968D01*
X120015877Y-67731683D01*
X120081843Y-67811314D01*
X120173512Y-67850987D01*
X120285555Y-67849695D01*
X120412472Y-67806514D01*
X120522158Y-67753224D01*
X120613173Y-67825191D01*
X120704188Y-67897157D01*
X120618563Y-67976269D01*
X120504250Y-68051017D01*
X120363666Y-68096084D01*
X120212449Y-68108696D01*
X120066236Y-68086079D01*
X120042647Y-68078405D01*
X119914141Y-68011296D01*
X119818551Y-67911247D01*
X119753861Y-67775271D01*
X119718057Y-67600380D01*
X119717640Y-67596632D01*
X119714434Y-67406032D01*
X119727393Y-67338035D01*
X119980392Y-67338035D01*
X120003627Y-67348491D01*
X120066710Y-67356500D01*
X120159706Y-67361073D01*
X120218638Y-67361765D01*
X120328537Y-67361332D01*
X120397252Y-67358578D01*
X120433405Y-67351321D01*
X120445615Y-67337376D01*
X120442504Y-67314562D01*
X120439894Y-67305735D01*
X120395344Y-67222800D01*
X120325279Y-67155960D01*
X120263446Y-67126589D01*
X120181301Y-67128362D01*
X120098062Y-67164990D01*
X120028238Y-67225634D01*
X119986337Y-67299456D01*
X119980392Y-67338035D01*
X119727393Y-67338035D01*
X119746385Y-67238395D01*
X119809773Y-67097711D01*
X119900878Y-66987974D01*
X120015978Y-66913174D01*
X120151355Y-66877304D01*
X120303287Y-66884355D01*
G36*
X119390976Y-66899056D02*
G01*
X119535256Y-66960348D01*
X119580699Y-66990185D01*
X119638779Y-67036036D01*
X119675238Y-67072089D01*
X119681568Y-67083832D01*
X119663693Y-67109889D01*
X119617950Y-67154105D01*
X119581328Y-67184965D01*
X119481088Y-67265520D01*
X119401935Y-67198918D01*
X119340769Y-67155921D01*
X119281129Y-67141079D01*
X119212872Y-67144704D01*
X119104482Y-67171652D01*
X119029872Y-67227587D01*
X118984530Y-67318014D01*
X118963947Y-67448435D01*
X118963942Y-67448517D01*
X118965722Y-67594290D01*
X118993387Y-67701245D01*
X119048571Y-67774064D01*
X119086192Y-67798723D01*
X119186105Y-67829431D01*
X119292822Y-67829449D01*
X119385669Y-67799655D01*
X119407647Y-67785098D01*
X119462765Y-67747914D01*
X119505859Y-67741820D01*
X119552335Y-67769496D01*
X119603716Y-67819205D01*
X119685046Y-67903116D01*
X119594749Y-67977546D01*
X119455236Y-68061549D01*
X119297912Y-68102947D01*
X119133503Y-68099950D01*
X119025531Y-68072500D01*
X118899331Y-68004620D01*
X118798401Y-67897831D01*
X118752548Y-67822451D01*
X118715410Y-67714297D01*
X118696827Y-67577318D01*
X118696684Y-67428864D01*
X118714865Y-67286281D01*
X118751255Y-67166918D01*
X118756987Y-67154680D01*
X118841865Y-67034655D01*
X118956782Y-66947267D01*
X119092659Y-66894329D01*
X119240417Y-66877654D01*
X119390976Y-66899056D01*
G37*
X119390976Y-66899056D02*
X119535256Y-66960348D01*
X119580699Y-66990185D01*
X119638779Y-67036036D01*
X119675238Y-67072089D01*
X119681568Y-67083832D01*
X119663693Y-67109889D01*
X119617950Y-67154105D01*
X119581328Y-67184965D01*
X119481088Y-67265520D01*
X119401935Y-67198918D01*
X119340769Y-67155921D01*
X119281129Y-67141079D01*
X119212872Y-67144704D01*
X119104482Y-67171652D01*
X119029872Y-67227587D01*
X118984530Y-67318014D01*
X118963947Y-67448435D01*
X118963942Y-67448517D01*
X118965722Y-67594290D01*
X118993387Y-67701245D01*
X119048571Y-67774064D01*
X119086192Y-67798723D01*
X119186105Y-67829431D01*
X119292822Y-67829449D01*
X119385669Y-67799655D01*
X119407647Y-67785098D01*
X119462765Y-67747914D01*
X119505859Y-67741820D01*
X119552335Y-67769496D01*
X119603716Y-67819205D01*
X119685046Y-67903116D01*
X119594749Y-67977546D01*
X119455236Y-68061549D01*
X119297912Y-68102947D01*
X119133503Y-68099950D01*
X119025531Y-68072500D01*
X118899331Y-68004620D01*
X118798401Y-67897831D01*
X118752548Y-67822451D01*
X118715410Y-67714297D01*
X118696827Y-67577318D01*
X118696684Y-67428864D01*
X118714865Y-67286281D01*
X118751255Y-67166918D01*
X118756987Y-67154680D01*
X118841865Y-67034655D01*
X118956782Y-66947267D01*
X119092659Y-66894329D01*
X119240417Y-66877654D01*
X119390976Y-66899056D01*
G36*
X116967254Y-67276245D02*
G01*
X116969608Y-67458879D01*
X116978207Y-67597600D01*
X116995360Y-67698147D01*
X117023374Y-67766254D01*
X117064557Y-67807659D01*
X117121217Y-67828097D01*
X117191372Y-67833318D01*
X117264848Y-67827468D01*
X117320657Y-67806093D01*
X117361109Y-67763458D01*
X117388509Y-67693825D01*
X117405167Y-67591460D01*
X117413389Y-67450624D01*
X117415490Y-67276245D01*
X117415490Y-66888628D01*
X117689411Y-66888628D01*
X117689411Y-68083922D01*
X117552451Y-68083922D01*
X117469884Y-68080576D01*
X117427368Y-68068826D01*
X117415490Y-68046520D01*
X117408336Y-68026654D01*
X117379865Y-68030857D01*
X117322476Y-68058971D01*
X117190945Y-68102342D01*
X117051438Y-68099270D01*
X116917765Y-68052174D01*
X116854108Y-68014971D01*
X116805553Y-67974691D01*
X116770081Y-67924291D01*
X116745674Y-67856729D01*
X116730313Y-67764965D01*
X116721982Y-67641955D01*
X116718662Y-67480659D01*
X116718235Y-67355928D01*
X116718235Y-66888628D01*
X116967254Y-66888628D01*
X116967254Y-67276245D01*
G37*
X116967254Y-67276245D02*
X116969608Y-67458879D01*
X116978207Y-67597600D01*
X116995360Y-67698147D01*
X117023374Y-67766254D01*
X117064557Y-67807659D01*
X117121217Y-67828097D01*
X117191372Y-67833318D01*
X117264848Y-67827468D01*
X117320657Y-67806093D01*
X117361109Y-67763458D01*
X117388509Y-67693825D01*
X117405167Y-67591460D01*
X117413389Y-67450624D01*
X117415490Y-67276245D01*
X117415490Y-66888628D01*
X117689411Y-66888628D01*
X117689411Y-68083922D01*
X117552451Y-68083922D01*
X117469884Y-68080576D01*
X117427368Y-68068826D01*
X117415490Y-68046520D01*
X117408336Y-68026654D01*
X117379865Y-68030857D01*
X117322476Y-68058971D01*
X117190945Y-68102342D01*
X117051438Y-68099270D01*
X116917765Y-68052174D01*
X116854108Y-68014971D01*
X116805553Y-67974691D01*
X116770081Y-67924291D01*
X116745674Y-67856729D01*
X116730313Y-67764965D01*
X116721982Y-67641955D01*
X116718662Y-67480659D01*
X116718235Y-67355928D01*
X116718235Y-66888628D01*
X116967254Y-66888628D01*
X116967254Y-67276245D01*
G36*
X116209547Y-66903364D02*
G01*
X116335502Y-66971959D01*
X116434047Y-67080245D01*
X116480478Y-67168315D01*
X116500412Y-67246101D01*
X116513328Y-67356993D01*
X116518863Y-67484738D01*
X116516654Y-67613084D01*
X116506337Y-67725779D01*
X116494286Y-67785969D01*
X116453634Y-67868311D01*
X116383230Y-67955770D01*
X116298382Y-68032251D01*
X116214397Y-68081655D01*
X116212349Y-68082439D01*
X116108134Y-68104027D01*
X115984627Y-68104562D01*
X115867261Y-68084908D01*
X115821942Y-68069155D01*
X115705220Y-68002966D01*
X115621624Y-67916246D01*
X115566701Y-67801438D01*
X115535995Y-67650982D01*
X115529047Y-67572173D01*
X115529933Y-67473145D01*
X115796862Y-67473145D01*
X115805854Y-67617645D01*
X115831736Y-67727760D01*
X115872868Y-67798116D01*
X115902172Y-67818235D01*
X115977251Y-67832265D01*
X116066494Y-67828111D01*
X116143650Y-67807922D01*
X116163883Y-67796815D01*
X116217265Y-67732123D01*
X116252500Y-67633119D01*
X116267498Y-67512632D01*
X116260172Y-67383494D01*
X116243799Y-67305775D01*
X116196790Y-67215771D01*
X116122582Y-67159509D01*
X116033209Y-67140057D01*
X115940707Y-67160481D01*
X115869653Y-67210437D01*
X115832312Y-67251655D01*
X115810518Y-67292281D01*
X115800130Y-67347264D01*
X115797006Y-67431549D01*
X115796862Y-67473145D01*
X115529933Y-67473145D01*
X115530930Y-67361874D01*
X115565180Y-67189423D01*
X115631802Y-67054814D01*
X115730799Y-66958040D01*
X115862175Y-66899094D01*
X115890385Y-66892259D01*
X116059926Y-66876213D01*
X116209547Y-66903364D01*
G37*
X116209547Y-66903364D02*
X116335502Y-66971959D01*
X116434047Y-67080245D01*
X116480478Y-67168315D01*
X116500412Y-67246101D01*
X116513328Y-67356993D01*
X116518863Y-67484738D01*
X116516654Y-67613084D01*
X116506337Y-67725779D01*
X116494286Y-67785969D01*
X116453634Y-67868311D01*
X116383230Y-67955770D01*
X116298382Y-68032251D01*
X116214397Y-68081655D01*
X116212349Y-68082439D01*
X116108134Y-68104027D01*
X115984627Y-68104562D01*
X115867261Y-68084908D01*
X115821942Y-68069155D01*
X115705220Y-68002966D01*
X115621624Y-67916246D01*
X115566701Y-67801438D01*
X115535995Y-67650982D01*
X115529047Y-67572173D01*
X115529933Y-67473145D01*
X115796862Y-67473145D01*
X115805854Y-67617645D01*
X115831736Y-67727760D01*
X115872868Y-67798116D01*
X115902172Y-67818235D01*
X115977251Y-67832265D01*
X116066494Y-67828111D01*
X116143650Y-67807922D01*
X116163883Y-67796815D01*
X116217265Y-67732123D01*
X116252500Y-67633119D01*
X116267498Y-67512632D01*
X116260172Y-67383494D01*
X116243799Y-67305775D01*
X116196790Y-67215771D01*
X116122582Y-67159509D01*
X116033209Y-67140057D01*
X115940707Y-67160481D01*
X115869653Y-67210437D01*
X115832312Y-67251655D01*
X115810518Y-67292281D01*
X115800130Y-67347264D01*
X115797006Y-67431549D01*
X115796862Y-67473145D01*
X115529933Y-67473145D01*
X115530930Y-67361874D01*
X115565180Y-67189423D01*
X115631802Y-67054814D01*
X115730799Y-66958040D01*
X115862175Y-66899094D01*
X115890385Y-66892259D01*
X116059926Y-66876213D01*
X116209547Y-66903364D01*
G36*
X115027759Y-66884345D02*
G01*
X115122059Y-66902229D01*
X115219890Y-66939633D01*
X115230343Y-66944402D01*
X115304531Y-66983412D01*
X115355910Y-67019664D01*
X115372517Y-67042887D01*
X115356702Y-67080761D01*
X115318288Y-67136644D01*
X115301237Y-67157505D01*
X115230969Y-67239618D01*
X115140379Y-67186168D01*
X115054164Y-67150561D01*
X114954549Y-67131529D01*
X114859019Y-67130326D01*
X114785061Y-67148210D01*
X114767312Y-67159373D01*
X114733512Y-67210553D01*
X114729404Y-67269509D01*
X114754696Y-67315567D01*
X114769656Y-67324499D01*
X114814486Y-67335592D01*
X114893286Y-67348630D01*
X114990426Y-67361088D01*
X115008346Y-67363042D01*
X115164365Y-67390030D01*
X115277523Y-67435873D01*
X115352569Y-67504803D01*
X115394253Y-67601054D01*
X115407238Y-67718617D01*
X115389299Y-67852254D01*
X115331050Y-67957195D01*
X115232255Y-68033630D01*
X115092682Y-68081748D01*
X114937745Y-68100732D01*
X114811398Y-68100504D01*
X114708913Y-68083262D01*
X114638921Y-68059457D01*
X114550483Y-68017978D01*
X114468754Y-67969842D01*
X114439705Y-67948655D01*
X114365000Y-67887676D01*
X114455098Y-67796508D01*
X114545196Y-67705339D01*
X114647632Y-67773128D01*
X114750374Y-67824042D01*
X114860087Y-67850673D01*
X114965551Y-67853483D01*
X115055546Y-67832935D01*
X115118854Y-67789493D01*
X115139296Y-67752838D01*
X115136229Y-67694053D01*
X115085434Y-67649099D01*
X114987048Y-67618057D01*
X114879256Y-67603710D01*
X114713365Y-67576337D01*
X114590124Y-67524693D01*
X114507886Y-67447266D01*
X114465001Y-67342544D01*
X114459060Y-67218387D01*
X114488406Y-67088702D01*
X114555309Y-66990677D01*
X114660371Y-66923866D01*
X114804190Y-66887820D01*
X114910738Y-66880754D01*
X115027759Y-66884345D01*
G37*
X115027759Y-66884345D02*
X115122059Y-66902229D01*
X115219890Y-66939633D01*
X115230343Y-66944402D01*
X115304531Y-66983412D01*
X115355910Y-67019664D01*
X115372517Y-67042887D01*
X115356702Y-67080761D01*
X115318288Y-67136644D01*
X115301237Y-67157505D01*
X115230969Y-67239618D01*
X115140379Y-67186168D01*
X115054164Y-67150561D01*
X114954549Y-67131529D01*
X114859019Y-67130326D01*
X114785061Y-67148210D01*
X114767312Y-67159373D01*
X114733512Y-67210553D01*
X114729404Y-67269509D01*
X114754696Y-67315567D01*
X114769656Y-67324499D01*
X114814486Y-67335592D01*
X114893286Y-67348630D01*
X114990426Y-67361088D01*
X115008346Y-67363042D01*
X115164365Y-67390030D01*
X115277523Y-67435873D01*
X115352569Y-67504803D01*
X115394253Y-67601054D01*
X115407238Y-67718617D01*
X115389299Y-67852254D01*
X115331050Y-67957195D01*
X115232255Y-68033630D01*
X115092682Y-68081748D01*
X114937745Y-68100732D01*
X114811398Y-68100504D01*
X114708913Y-68083262D01*
X114638921Y-68059457D01*
X114550483Y-68017978D01*
X114468754Y-67969842D01*
X114439705Y-67948655D01*
X114365000Y-67887676D01*
X114455098Y-67796508D01*
X114545196Y-67705339D01*
X114647632Y-67773128D01*
X114750374Y-67824042D01*
X114860087Y-67850673D01*
X114965551Y-67853483D01*
X115055546Y-67832935D01*
X115118854Y-67789493D01*
X115139296Y-67752838D01*
X115136229Y-67694053D01*
X115085434Y-67649099D01*
X114987048Y-67618057D01*
X114879256Y-67603710D01*
X114713365Y-67576337D01*
X114590124Y-67524693D01*
X114507886Y-67447266D01*
X114465001Y-67342544D01*
X114459060Y-67218387D01*
X114488406Y-67088702D01*
X114555309Y-66990677D01*
X114660371Y-66923866D01*
X114804190Y-66887820D01*
X114910738Y-66880754D01*
X115027759Y-66884345D01*
G36*
X112313204Y-66916354D02*
G01*
X112338019Y-66928037D01*
X112423906Y-66990951D01*
X112505121Y-67082769D01*
X112565764Y-67183868D01*
X112583012Y-67230349D01*
X112598749Y-67313376D01*
X112608133Y-67413713D01*
X112609272Y-67455147D01*
X112609411Y-67585882D01*
X111856953Y-67585882D01*
X111872993Y-67654363D01*
X111912363Y-67735355D01*
X111981194Y-67805351D01*
X112063081Y-67850441D01*
X112115263Y-67859804D01*
X112186029Y-67848441D01*
X112270460Y-67819943D01*
X112299142Y-67806831D01*
X112405209Y-67753858D01*
X112495728Y-67822901D01*
X112547961Y-67869597D01*
X112575753Y-67908140D01*
X112577160Y-67919452D01*
X112552332Y-67946868D01*
X112497917Y-67988532D01*
X112448528Y-68021037D01*
X112315252Y-68079468D01*
X112165839Y-68105915D01*
X112017751Y-68099039D01*
X111899705Y-68063096D01*
X111778018Y-67986101D01*
X111691540Y-67884728D01*
X111637441Y-67753570D01*
X111612891Y-67587224D01*
X111610714Y-67511108D01*
X111619427Y-67336685D01*
X111620497Y-67331611D01*
X111869827Y-67331611D01*
X111876694Y-67347968D01*
X111904917Y-67356988D01*
X111963127Y-67360854D01*
X112059958Y-67361749D01*
X112097243Y-67361765D01*
X112210683Y-67360413D01*
X112282622Y-67355505D01*
X112321313Y-67345760D01*
X112335005Y-67329899D01*
X112335490Y-67324805D01*
X112319863Y-67284326D01*
X112280753Y-67227621D01*
X112263939Y-67207766D01*
X112201519Y-67151611D01*
X112136453Y-67129532D01*
X112101397Y-67127686D01*
X112006558Y-67150766D01*
X111927027Y-67212759D01*
X111876577Y-67302802D01*
X111875683Y-67305735D01*
X111869827Y-67331611D01*
X111620497Y-67331611D01*
X111648399Y-67199343D01*
X111700590Y-67089461D01*
X111764421Y-67011461D01*
X111882433Y-66926882D01*
X112021158Y-66881686D01*
X112168710Y-66877600D01*
X112313204Y-66916354D01*
G37*
X112313204Y-66916354D02*
X112338019Y-66928037D01*
X112423906Y-66990951D01*
X112505121Y-67082769D01*
X112565764Y-67183868D01*
X112583012Y-67230349D01*
X112598749Y-67313376D01*
X112608133Y-67413713D01*
X112609272Y-67455147D01*
X112609411Y-67585882D01*
X111856953Y-67585882D01*
X111872993Y-67654363D01*
X111912363Y-67735355D01*
X111981194Y-67805351D01*
X112063081Y-67850441D01*
X112115263Y-67859804D01*
X112186029Y-67848441D01*
X112270460Y-67819943D01*
X112299142Y-67806831D01*
X112405209Y-67753858D01*
X112495728Y-67822901D01*
X112547961Y-67869597D01*
X112575753Y-67908140D01*
X112577160Y-67919452D01*
X112552332Y-67946868D01*
X112497917Y-67988532D01*
X112448528Y-68021037D01*
X112315252Y-68079468D01*
X112165839Y-68105915D01*
X112017751Y-68099039D01*
X111899705Y-68063096D01*
X111778018Y-67986101D01*
X111691540Y-67884728D01*
X111637441Y-67753570D01*
X111612891Y-67587224D01*
X111610714Y-67511108D01*
X111619427Y-67336685D01*
X111620497Y-67331611D01*
X111869827Y-67331611D01*
X111876694Y-67347968D01*
X111904917Y-67356988D01*
X111963127Y-67360854D01*
X112059958Y-67361749D01*
X112097243Y-67361765D01*
X112210683Y-67360413D01*
X112282622Y-67355505D01*
X112321313Y-67345760D01*
X112335005Y-67329899D01*
X112335490Y-67324805D01*
X112319863Y-67284326D01*
X112280753Y-67227621D01*
X112263939Y-67207766D01*
X112201519Y-67151611D01*
X112136453Y-67129532D01*
X112101397Y-67127686D01*
X112006558Y-67150766D01*
X111927027Y-67212759D01*
X111876577Y-67302802D01*
X111875683Y-67305735D01*
X111869827Y-67331611D01*
X111620497Y-67331611D01*
X111648399Y-67199343D01*
X111700590Y-67089461D01*
X111764421Y-67011461D01*
X111882433Y-66926882D01*
X112021158Y-66881686D01*
X112168710Y-66877600D01*
X112313204Y-66916354D01*
G36*
X109973247Y-66901568D02*
G01*
X110103522Y-66959163D01*
X110202419Y-67055334D01*
X110270082Y-67190229D01*
X110306655Y-67363996D01*
X110309276Y-67391126D01*
X110311330Y-67582408D01*
X110284699Y-67750073D01*
X110231001Y-67885967D01*
X110202247Y-67929681D01*
X110102091Y-68022198D01*
X109974537Y-68082119D01*
X109831837Y-68106985D01*
X109686240Y-68094339D01*
X109575562Y-68055391D01*
X109480384Y-67989755D01*
X109402594Y-67903699D01*
X109401249Y-67901685D01*
X109369657Y-67848570D01*
X109349127Y-67795160D01*
X109336695Y-67727754D01*
X109329397Y-67632653D01*
X109326182Y-67554666D01*
X109324844Y-67483944D01*
X109573814Y-67483944D01*
X109576247Y-67554348D01*
X109585080Y-67648068D01*
X109600664Y-67708214D01*
X109628766Y-67751006D01*
X109655086Y-67776002D01*
X109748392Y-67828338D01*
X109846020Y-67835333D01*
X109936942Y-67797676D01*
X109982402Y-67755479D01*
X110015162Y-67712956D01*
X110034323Y-67672267D01*
X110042733Y-67619314D01*
X110043237Y-67539997D01*
X110040645Y-67466950D01*
X110035071Y-67362601D01*
X110026234Y-67294920D01*
X110010307Y-67250774D01*
X109983462Y-67217031D01*
X109962189Y-67197746D01*
X109873206Y-67147086D01*
X109777211Y-67144560D01*
X109696719Y-67174567D01*
X109628053Y-67237231D01*
X109587144Y-67340168D01*
X109573814Y-67483944D01*
X109324844Y-67483944D01*
X109323246Y-67399582D01*
X109328260Y-67283600D01*
X109343283Y-67196367D01*
X109370376Y-67127530D01*
X109411600Y-67066737D01*
X109426885Y-67048686D01*
X109522454Y-66958746D01*
X109624961Y-66906211D01*
X109750321Y-66884201D01*
X109811450Y-66882402D01*
X109973247Y-66901568D01*
G37*
X109973247Y-66901568D02*
X110103522Y-66959163D01*
X110202419Y-67055334D01*
X110270082Y-67190229D01*
X110306655Y-67363996D01*
X110309276Y-67391126D01*
X110311330Y-67582408D01*
X110284699Y-67750073D01*
X110231001Y-67885967D01*
X110202247Y-67929681D01*
X110102091Y-68022198D01*
X109974537Y-68082119D01*
X109831837Y-68106985D01*
X109686240Y-68094339D01*
X109575562Y-68055391D01*
X109480384Y-67989755D01*
X109402594Y-67903699D01*
X109401249Y-67901685D01*
X109369657Y-67848570D01*
X109349127Y-67795160D01*
X109336695Y-67727754D01*
X109329397Y-67632653D01*
X109326182Y-67554666D01*
X109324844Y-67483944D01*
X109573814Y-67483944D01*
X109576247Y-67554348D01*
X109585080Y-67648068D01*
X109600664Y-67708214D01*
X109628766Y-67751006D01*
X109655086Y-67776002D01*
X109748392Y-67828338D01*
X109846020Y-67835333D01*
X109936942Y-67797676D01*
X109982402Y-67755479D01*
X110015162Y-67712956D01*
X110034323Y-67672267D01*
X110042733Y-67619314D01*
X110043237Y-67539997D01*
X110040645Y-67466950D01*
X110035071Y-67362601D01*
X110026234Y-67294920D01*
X110010307Y-67250774D01*
X109983462Y-67217031D01*
X109962189Y-67197746D01*
X109873206Y-67147086D01*
X109777211Y-67144560D01*
X109696719Y-67174567D01*
X109628053Y-67237231D01*
X109587144Y-67340168D01*
X109573814Y-67483944D01*
X109324844Y-67483944D01*
X109323246Y-67399582D01*
X109328260Y-67283600D01*
X109343283Y-67196367D01*
X109370376Y-67127530D01*
X109411600Y-67066737D01*
X109426885Y-67048686D01*
X109522454Y-66958746D01*
X109624961Y-66906211D01*
X109750321Y-66884201D01*
X109811450Y-66882402D01*
X109973247Y-66901568D01*
G36*
X119025307Y-68762784D02*
G01*
X119144337Y-68793731D01*
X119244021Y-68857600D01*
X119292288Y-68905313D01*
X119371408Y-69018106D01*
X119416752Y-69148950D01*
X119432330Y-69309792D01*
X119432410Y-69322794D01*
X119432549Y-69453530D01*
X118680091Y-69453530D01*
X118696130Y-69522010D01*
X118725091Y-69584031D01*
X118775778Y-69648654D01*
X118786379Y-69658971D01*
X118877494Y-69714805D01*
X118981400Y-69724275D01*
X119101000Y-69687540D01*
X119121274Y-69677647D01*
X119183456Y-69647574D01*
X119225106Y-69630440D01*
X119232373Y-69628855D01*
X119257740Y-69644242D01*
X119306120Y-69681887D01*
X119330679Y-69702459D01*
X119381570Y-69749714D01*
X119398281Y-69780917D01*
X119386683Y-69809620D01*
X119380483Y-69817468D01*
X119338493Y-69851819D01*
X119269206Y-69893565D01*
X119220882Y-69917935D01*
X119083711Y-69960873D01*
X118931847Y-69974786D01*
X118788024Y-69958300D01*
X118747745Y-69946496D01*
X118623078Y-69879689D01*
X118530671Y-69776892D01*
X118469990Y-69637105D01*
X118440498Y-69459330D01*
X118437260Y-69366373D01*
X118446714Y-69231033D01*
X118685490Y-69231033D01*
X118708584Y-69241038D01*
X118770662Y-69248888D01*
X118860914Y-69253521D01*
X118922058Y-69254314D01*
X119032040Y-69253549D01*
X119101457Y-69249970D01*
X119139538Y-69241649D01*
X119155515Y-69226657D01*
X119158627Y-69204903D01*
X119137278Y-69137892D01*
X119083529Y-69071664D01*
X119012822Y-69020832D01*
X118942089Y-69000038D01*
X118846016Y-69018484D01*
X118762849Y-69071811D01*
X118705186Y-69148677D01*
X118685490Y-69231033D01*
X118446714Y-69231033D01*
X118451028Y-69169291D01*
X118493520Y-69012271D01*
X118565635Y-68894069D01*
X118668273Y-68813440D01*
X118802332Y-68769139D01*
X118874957Y-68760607D01*
X119025307Y-68762784D01*
G37*
X119025307Y-68762784D02*
X119144337Y-68793731D01*
X119244021Y-68857600D01*
X119292288Y-68905313D01*
X119371408Y-69018106D01*
X119416752Y-69148950D01*
X119432330Y-69309792D01*
X119432410Y-69322794D01*
X119432549Y-69453530D01*
X118680091Y-69453530D01*
X118696130Y-69522010D01*
X118725091Y-69584031D01*
X118775778Y-69648654D01*
X118786379Y-69658971D01*
X118877494Y-69714805D01*
X118981400Y-69724275D01*
X119101000Y-69687540D01*
X119121274Y-69677647D01*
X119183456Y-69647574D01*
X119225106Y-69630440D01*
X119232373Y-69628855D01*
X119257740Y-69644242D01*
X119306120Y-69681887D01*
X119330679Y-69702459D01*
X119381570Y-69749714D01*
X119398281Y-69780917D01*
X119386683Y-69809620D01*
X119380483Y-69817468D01*
X119338493Y-69851819D01*
X119269206Y-69893565D01*
X119220882Y-69917935D01*
X119083711Y-69960873D01*
X118931847Y-69974786D01*
X118788024Y-69958300D01*
X118747745Y-69946496D01*
X118623078Y-69879689D01*
X118530671Y-69776892D01*
X118469990Y-69637105D01*
X118440498Y-69459330D01*
X118437260Y-69366373D01*
X118446714Y-69231033D01*
X118685490Y-69231033D01*
X118708584Y-69241038D01*
X118770662Y-69248888D01*
X118860914Y-69253521D01*
X118922058Y-69254314D01*
X119032040Y-69253549D01*
X119101457Y-69249970D01*
X119139538Y-69241649D01*
X119155515Y-69226657D01*
X119158627Y-69204903D01*
X119137278Y-69137892D01*
X119083529Y-69071664D01*
X119012822Y-69020832D01*
X118942089Y-69000038D01*
X118846016Y-69018484D01*
X118762849Y-69071811D01*
X118705186Y-69148677D01*
X118685490Y-69231033D01*
X118446714Y-69231033D01*
X118451028Y-69169291D01*
X118493520Y-69012271D01*
X118565635Y-68894069D01*
X118668273Y-68813440D01*
X118802332Y-68769139D01*
X118874957Y-68760607D01*
X119025307Y-68762784D01*
G36*
X118238446Y-68755883D02*
G01*
X118334177Y-68774755D01*
X118388677Y-68802699D01*
X118446008Y-68849123D01*
X118364441Y-68952111D01*
X118314150Y-69014479D01*
X118280001Y-69044907D01*
X118246063Y-69049555D01*
X118196406Y-69034586D01*
X118173096Y-69026117D01*
X118078063Y-69013622D01*
X117991032Y-69040406D01*
X117927138Y-69100915D01*
X117916759Y-69120208D01*
X117905456Y-69171314D01*
X117896732Y-69265500D01*
X117890997Y-69396089D01*
X117888660Y-69556405D01*
X117888627Y-69579211D01*
X117888627Y-69976471D01*
X117614705Y-69976471D01*
X117614705Y-68756275D01*
X117751666Y-68756275D01*
X117830638Y-68758337D01*
X117871779Y-68767513D01*
X117886992Y-68788290D01*
X117888627Y-68807886D01*
X117888627Y-68859497D01*
X117954240Y-68807886D01*
X118029475Y-68772675D01*
X118130544Y-68755265D01*
X118238446Y-68755883D01*
G37*
X118238446Y-68755883D02*
X118334177Y-68774755D01*
X118388677Y-68802699D01*
X118446008Y-68849123D01*
X118364441Y-68952111D01*
X118314150Y-69014479D01*
X118280001Y-69044907D01*
X118246063Y-69049555D01*
X118196406Y-69034586D01*
X118173096Y-69026117D01*
X118078063Y-69013622D01*
X117991032Y-69040406D01*
X117927138Y-69100915D01*
X117916759Y-69120208D01*
X117905456Y-69171314D01*
X117896732Y-69265500D01*
X117890997Y-69396089D01*
X117888660Y-69556405D01*
X117888627Y-69579211D01*
X117888627Y-69976471D01*
X117614705Y-69976471D01*
X117614705Y-68756275D01*
X117751666Y-68756275D01*
X117830638Y-68758337D01*
X117871779Y-68767513D01*
X117886992Y-68788290D01*
X117888627Y-68807886D01*
X117888627Y-68859497D01*
X117954240Y-68807886D01*
X118029475Y-68772675D01*
X118130544Y-68755265D01*
X118238446Y-68755883D01*
G36*
X117056459Y-68763669D02*
G01*
X117161420Y-68789163D01*
X117191761Y-68802669D01*
X117250573Y-68838046D01*
X117295709Y-68877890D01*
X117329106Y-68929120D01*
X117352701Y-68998654D01*
X117368433Y-69093409D01*
X117378239Y-69220305D01*
X117384057Y-69386258D01*
X117386266Y-69497108D01*
X117394396Y-69976471D01*
X117255531Y-69976471D01*
X117171287Y-69972938D01*
X117127884Y-69960866D01*
X117116666Y-69940594D01*
X117110744Y-69918674D01*
X117084266Y-69922865D01*
X117048186Y-69940441D01*
X116957862Y-69967382D01*
X116841777Y-69974642D01*
X116719680Y-69962767D01*
X116611321Y-69932305D01*
X116601602Y-69928077D01*
X116502568Y-69858505D01*
X116437281Y-69761789D01*
X116407240Y-69648738D01*
X116409535Y-69608122D01*
X116654633Y-69608122D01*
X116676229Y-69662782D01*
X116740259Y-69701952D01*
X116843565Y-69722974D01*
X116898774Y-69725766D01*
X116990782Y-69718620D01*
X117051941Y-69690848D01*
X117066862Y-69677647D01*
X117107287Y-69605829D01*
X117116666Y-69540686D01*
X117116666Y-69453530D01*
X116995269Y-69453530D01*
X116854153Y-69460722D01*
X116755173Y-69483345D01*
X116692633Y-69522964D01*
X116678631Y-69540628D01*
X116654633Y-69608122D01*
X116409535Y-69608122D01*
X116413941Y-69530157D01*
X116458880Y-69416855D01*
X116520196Y-69340285D01*
X116557332Y-69307181D01*
X116593687Y-69285425D01*
X116640990Y-69272161D01*
X116710973Y-69264528D01*
X116815364Y-69259670D01*
X116856770Y-69258273D01*
X117116666Y-69249780D01*
X117116285Y-69171116D01*
X117106219Y-69088428D01*
X117069829Y-69038431D01*
X116996311Y-69006489D01*
X116994339Y-69005920D01*
X116890105Y-68993361D01*
X116788108Y-69009766D01*
X116712305Y-69049657D01*
X116681890Y-69069354D01*
X116649132Y-69066629D01*
X116598721Y-69038091D01*
X116569119Y-69017950D01*
X116511218Y-68974919D01*
X116475352Y-68942662D01*
X116469597Y-68933427D01*
X116493295Y-68885636D01*
X116563313Y-68828562D01*
X116593725Y-68809305D01*
X116681155Y-68776140D01*
X116798983Y-68757350D01*
X116929866Y-68753129D01*
X117056459Y-68763669D01*
G37*
X117056459Y-68763669D02*
X117161420Y-68789163D01*
X117191761Y-68802669D01*
X117250573Y-68838046D01*
X117295709Y-68877890D01*
X117329106Y-68929120D01*
X117352701Y-68998654D01*
X117368433Y-69093409D01*
X117378239Y-69220305D01*
X117384057Y-69386258D01*
X117386266Y-69497108D01*
X117394396Y-69976471D01*
X117255531Y-69976471D01*
X117171287Y-69972938D01*
X117127884Y-69960866D01*
X117116666Y-69940594D01*
X117110744Y-69918674D01*
X117084266Y-69922865D01*
X117048186Y-69940441D01*
X116957862Y-69967382D01*
X116841777Y-69974642D01*
X116719680Y-69962767D01*
X116611321Y-69932305D01*
X116601602Y-69928077D01*
X116502568Y-69858505D01*
X116437281Y-69761789D01*
X116407240Y-69648738D01*
X116409535Y-69608122D01*
X116654633Y-69608122D01*
X116676229Y-69662782D01*
X116740259Y-69701952D01*
X116843565Y-69722974D01*
X116898774Y-69725766D01*
X116990782Y-69718620D01*
X117051941Y-69690848D01*
X117066862Y-69677647D01*
X117107287Y-69605829D01*
X117116666Y-69540686D01*
X117116666Y-69453530D01*
X116995269Y-69453530D01*
X116854153Y-69460722D01*
X116755173Y-69483345D01*
X116692633Y-69522964D01*
X116678631Y-69540628D01*
X116654633Y-69608122D01*
X116409535Y-69608122D01*
X116413941Y-69530157D01*
X116458880Y-69416855D01*
X116520196Y-69340285D01*
X116557332Y-69307181D01*
X116593687Y-69285425D01*
X116640990Y-69272161D01*
X116710973Y-69264528D01*
X116815364Y-69259670D01*
X116856770Y-69258273D01*
X117116666Y-69249780D01*
X117116285Y-69171116D01*
X117106219Y-69088428D01*
X117069829Y-69038431D01*
X116996311Y-69006489D01*
X116994339Y-69005920D01*
X116890105Y-68993361D01*
X116788108Y-69009766D01*
X116712305Y-69049657D01*
X116681890Y-69069354D01*
X116649132Y-69066629D01*
X116598721Y-69038091D01*
X116569119Y-69017950D01*
X116511218Y-68974919D01*
X116475352Y-68942662D01*
X116469597Y-68933427D01*
X116493295Y-68885636D01*
X116563313Y-68828562D01*
X116593725Y-68809305D01*
X116681155Y-68776140D01*
X116798983Y-68757350D01*
X116929866Y-68753129D01*
X117056459Y-68763669D01*
G36*
X115557528Y-68761332D02*
G01*
X115656014Y-68768726D01*
X115784776Y-69154706D01*
X115913537Y-69540686D01*
X115953911Y-69403726D01*
X115978207Y-69319083D01*
X116010167Y-69204697D01*
X116044679Y-69078963D01*
X116062928Y-69011520D01*
X116131571Y-68756275D01*
X116414773Y-68756275D01*
X116330122Y-69023971D01*
X116288435Y-69155638D01*
X116238074Y-69314458D01*
X116185481Y-69480128D01*
X116138530Y-69627843D01*
X116031589Y-69964020D01*
X115800661Y-69979044D01*
X115738050Y-69772316D01*
X115699438Y-69643896D01*
X115657300Y-69502322D01*
X115620472Y-69377285D01*
X115619018Y-69372309D01*
X115591511Y-69287586D01*
X115567242Y-69229778D01*
X115550243Y-69207918D01*
X115546750Y-69210446D01*
X115534490Y-69244336D01*
X115511195Y-69316930D01*
X115479700Y-69419101D01*
X115442842Y-69541720D01*
X115422899Y-69609167D01*
X115314895Y-69976471D01*
X115085679Y-69976471D01*
X114902439Y-69397500D01*
X114850963Y-69235091D01*
X114804070Y-69087602D01*
X114763977Y-68961960D01*
X114732897Y-68865095D01*
X114713045Y-68803934D01*
X114707011Y-68786065D01*
X114711788Y-68767768D01*
X114749297Y-68759755D01*
X114827355Y-68760557D01*
X114839574Y-68761163D01*
X114984326Y-68768726D01*
X115079130Y-69117353D01*
X115113977Y-69244497D01*
X115145117Y-69356265D01*
X115169809Y-69442953D01*
X115185312Y-69494856D01*
X115188176Y-69503318D01*
X115200046Y-69493587D01*
X115223983Y-69443172D01*
X115257239Y-69358935D01*
X115297064Y-69247741D01*
X115330730Y-69147297D01*
X115459041Y-68753939D01*
X115557528Y-68761332D01*
G37*
X115557528Y-68761332D02*
X115656014Y-68768726D01*
X115784776Y-69154706D01*
X115913537Y-69540686D01*
X115953911Y-69403726D01*
X115978207Y-69319083D01*
X116010167Y-69204697D01*
X116044679Y-69078963D01*
X116062928Y-69011520D01*
X116131571Y-68756275D01*
X116414773Y-68756275D01*
X116330122Y-69023971D01*
X116288435Y-69155638D01*
X116238074Y-69314458D01*
X116185481Y-69480128D01*
X116138530Y-69627843D01*
X116031589Y-69964020D01*
X115800661Y-69979044D01*
X115738050Y-69772316D01*
X115699438Y-69643896D01*
X115657300Y-69502322D01*
X115620472Y-69377285D01*
X115619018Y-69372309D01*
X115591511Y-69287586D01*
X115567242Y-69229778D01*
X115550243Y-69207918D01*
X115546750Y-69210446D01*
X115534490Y-69244336D01*
X115511195Y-69316930D01*
X115479700Y-69419101D01*
X115442842Y-69541720D01*
X115422899Y-69609167D01*
X115314895Y-69976471D01*
X115085679Y-69976471D01*
X114902439Y-69397500D01*
X114850963Y-69235091D01*
X114804070Y-69087602D01*
X114763977Y-68961960D01*
X114732897Y-68865095D01*
X114713045Y-68803934D01*
X114707011Y-68786065D01*
X114711788Y-68767768D01*
X114749297Y-68759755D01*
X114827355Y-68760557D01*
X114839574Y-68761163D01*
X114984326Y-68768726D01*
X115079130Y-69117353D01*
X115113977Y-69244497D01*
X115145117Y-69356265D01*
X115169809Y-69442953D01*
X115185312Y-69494856D01*
X115188176Y-69503318D01*
X115200046Y-69493587D01*
X115223983Y-69443172D01*
X115257239Y-69358935D01*
X115297064Y-69247741D01*
X115330730Y-69147297D01*
X115459041Y-68753939D01*
X115557528Y-68761332D01*
G36*
X114601568Y-69976471D02*
G01*
X114464607Y-69976471D01*
X114385111Y-69974140D01*
X114343708Y-69964488D01*
X114328801Y-69943525D01*
X114327647Y-69929351D01*
X114325133Y-69900927D01*
X114309280Y-69895475D01*
X114267621Y-69912998D01*
X114235224Y-69929351D01*
X114110849Y-69968103D01*
X113975646Y-69970346D01*
X113865726Y-69941444D01*
X113763366Y-69871619D01*
X113685340Y-69768555D01*
X113642614Y-69646989D01*
X113641526Y-69640192D01*
X113635178Y-69566032D01*
X113632021Y-69459570D01*
X113632275Y-69379052D01*
X113904289Y-69379052D01*
X113910590Y-69486070D01*
X113924925Y-69574278D01*
X113944331Y-69624090D01*
X114017746Y-69692162D01*
X114104914Y-69716564D01*
X114194804Y-69696831D01*
X114271617Y-69637968D01*
X114300708Y-69598379D01*
X114317717Y-69551138D01*
X114325684Y-69482181D01*
X114327647Y-69378607D01*
X114324134Y-69276039D01*
X114314857Y-69185921D01*
X114301706Y-69125613D01*
X114299514Y-69120208D01*
X114246478Y-69055940D01*
X114169067Y-69020656D01*
X114082454Y-69014959D01*
X114001807Y-69039453D01*
X113942297Y-69094742D01*
X113936124Y-69105743D01*
X113916801Y-69172827D01*
X113906274Y-69269284D01*
X113904289Y-69379052D01*
X113632275Y-69379052D01*
X113632404Y-69338225D01*
X113634194Y-69272918D01*
X113646373Y-69111355D01*
X113671685Y-68990053D01*
X113713793Y-68900379D01*
X113776359Y-68833699D01*
X113837100Y-68794557D01*
X113921964Y-68767040D01*
X114027515Y-68757603D01*
X114135598Y-68765290D01*
X114228058Y-68789146D01*
X114276910Y-68817685D01*
X114327647Y-68863601D01*
X114327647Y-68283137D01*
X114601568Y-68283137D01*
X114601568Y-69976471D01*
G37*
X114601568Y-69976471D02*
X114464607Y-69976471D01*
X114385111Y-69974140D01*
X114343708Y-69964488D01*
X114328801Y-69943525D01*
X114327647Y-69929351D01*
X114325133Y-69900927D01*
X114309280Y-69895475D01*
X114267621Y-69912998D01*
X114235224Y-69929351D01*
X114110849Y-69968103D01*
X113975646Y-69970346D01*
X113865726Y-69941444D01*
X113763366Y-69871619D01*
X113685340Y-69768555D01*
X113642614Y-69646989D01*
X113641526Y-69640192D01*
X113635178Y-69566032D01*
X113632021Y-69459570D01*
X113632275Y-69379052D01*
X113904289Y-69379052D01*
X113910590Y-69486070D01*
X113924925Y-69574278D01*
X113944331Y-69624090D01*
X114017746Y-69692162D01*
X114104914Y-69716564D01*
X114194804Y-69696831D01*
X114271617Y-69637968D01*
X114300708Y-69598379D01*
X114317717Y-69551138D01*
X114325684Y-69482181D01*
X114327647Y-69378607D01*
X114324134Y-69276039D01*
X114314857Y-69185921D01*
X114301706Y-69125613D01*
X114299514Y-69120208D01*
X114246478Y-69055940D01*
X114169067Y-69020656D01*
X114082454Y-69014959D01*
X114001807Y-69039453D01*
X113942297Y-69094742D01*
X113936124Y-69105743D01*
X113916801Y-69172827D01*
X113906274Y-69269284D01*
X113904289Y-69379052D01*
X113632275Y-69379052D01*
X113632404Y-69338225D01*
X113634194Y-69272918D01*
X113646373Y-69111355D01*
X113671685Y-68990053D01*
X113713793Y-68900379D01*
X113776359Y-68833699D01*
X113837100Y-68794557D01*
X113921964Y-68767040D01*
X114027515Y-68757603D01*
X114135598Y-68765290D01*
X114228058Y-68789146D01*
X114276910Y-68817685D01*
X114327647Y-68863601D01*
X114327647Y-68283137D01*
X114601568Y-68283137D01*
X114601568Y-69976471D01*
G36*
X113032764Y-68758921D02*
G01*
X113070030Y-68770091D01*
X113082043Y-68794633D01*
X113082549Y-68805712D01*
X113084704Y-68836572D01*
X113099551Y-68841417D01*
X113139657Y-68820260D01*
X113163480Y-68805806D01*
X113238638Y-68774850D01*
X113328406Y-68759544D01*
X113422529Y-68758367D01*
X113510754Y-68769799D01*
X113582826Y-68792320D01*
X113628492Y-68824409D01*
X113637498Y-68864545D01*
X113632953Y-68875415D01*
X113599821Y-68920534D01*
X113548445Y-68976026D01*
X113539152Y-68984996D01*
X113490182Y-69026245D01*
X113447931Y-69039572D01*
X113388841Y-69030271D01*
X113365169Y-69024090D01*
X113291504Y-69009246D01*
X113239710Y-69015921D01*
X113195969Y-69039465D01*
X113155902Y-69071061D01*
X113126392Y-69110798D01*
X113105884Y-69166252D01*
X113092824Y-69245003D01*
X113085656Y-69354629D01*
X113082824Y-69502706D01*
X113082549Y-69592111D01*
X113082549Y-69976471D01*
X112833529Y-69976471D01*
X112833529Y-68756275D01*
X112958039Y-68756275D01*
X113032764Y-68758921D01*
G37*
X113032764Y-68758921D02*
X113070030Y-68770091D01*
X113082043Y-68794633D01*
X113082549Y-68805712D01*
X113084704Y-68836572D01*
X113099551Y-68841417D01*
X113139657Y-68820260D01*
X113163480Y-68805806D01*
X113238638Y-68774850D01*
X113328406Y-68759544D01*
X113422529Y-68758367D01*
X113510754Y-68769799D01*
X113582826Y-68792320D01*
X113628492Y-68824409D01*
X113637498Y-68864545D01*
X113632953Y-68875415D01*
X113599821Y-68920534D01*
X113548445Y-68976026D01*
X113539152Y-68984996D01*
X113490182Y-69026245D01*
X113447931Y-69039572D01*
X113388841Y-69030271D01*
X113365169Y-69024090D01*
X113291504Y-69009246D01*
X113239710Y-69015921D01*
X113195969Y-69039465D01*
X113155902Y-69071061D01*
X113126392Y-69110798D01*
X113105884Y-69166252D01*
X113092824Y-69245003D01*
X113085656Y-69354629D01*
X113082824Y-69502706D01*
X113082549Y-69592111D01*
X113082549Y-69976471D01*
X112833529Y-69976471D01*
X112833529Y-68756275D01*
X112958039Y-68756275D01*
X113032764Y-68758921D01*
G36*
X112258720Y-68765922D02*
G01*
X112375870Y-68797180D01*
X112465051Y-68853837D01*
X112527984Y-68928045D01*
X112547548Y-68959716D01*
X112561992Y-68992891D01*
X112572089Y-69035329D01*
X112578615Y-69094788D01*
X112582342Y-69179029D01*
X112584046Y-69295810D01*
X112584500Y-69452890D01*
X112584509Y-69494565D01*
X112584509Y-69976471D01*
X112464980Y-69976471D01*
X112388739Y-69971131D01*
X112332366Y-69957604D01*
X112318242Y-69949262D01*
X112279630Y-69934864D01*
X112240192Y-69949262D01*
X112175262Y-69967237D01*
X112080945Y-69974472D01*
X111976407Y-69971333D01*
X111880811Y-69958186D01*
X111825000Y-69941318D01*
X111716998Y-69871986D01*
X111649503Y-69775772D01*
X111619159Y-69647844D01*
X111618877Y-69644559D01*
X111621540Y-69587808D01*
X111862353Y-69587808D01*
X111883405Y-69652358D01*
X111917697Y-69688686D01*
X111986532Y-69716162D01*
X112077390Y-69727129D01*
X112170042Y-69721731D01*
X112244256Y-69700110D01*
X112265049Y-69686239D01*
X112301381Y-69622143D01*
X112310588Y-69549278D01*
X112310588Y-69453530D01*
X112172827Y-69453530D01*
X112041953Y-69463605D01*
X111942741Y-69492148D01*
X111881023Y-69536639D01*
X111862353Y-69587808D01*
X111621540Y-69587808D01*
X111625436Y-69504790D01*
X111671534Y-69394282D01*
X111758200Y-69310712D01*
X111770179Y-69303110D01*
X111821655Y-69278357D01*
X111885368Y-69263368D01*
X111974435Y-69256082D01*
X112080245Y-69254407D01*
X112310588Y-69254314D01*
X112310588Y-69157755D01*
X112300817Y-69082836D01*
X112275884Y-69032644D01*
X112272965Y-69029972D01*
X112217481Y-69008015D01*
X112133727Y-68999505D01*
X112041167Y-69003687D01*
X111959270Y-69019809D01*
X111910673Y-69043990D01*
X111884341Y-69063359D01*
X111856535Y-69067057D01*
X111818161Y-69051188D01*
X111760125Y-69011855D01*
X111673331Y-68945164D01*
X111665365Y-68938916D01*
X111669447Y-68915800D01*
X111703501Y-68877352D01*
X111755260Y-68834627D01*
X111812455Y-68798679D01*
X111830425Y-68790191D01*
X111895972Y-68773252D01*
X111992020Y-68761170D01*
X112099329Y-68756323D01*
X112104347Y-68756313D01*
X112258720Y-68765922D01*
G37*
X112258720Y-68765922D02*
X112375870Y-68797180D01*
X112465051Y-68853837D01*
X112527984Y-68928045D01*
X112547548Y-68959716D01*
X112561992Y-68992891D01*
X112572089Y-69035329D01*
X112578615Y-69094788D01*
X112582342Y-69179029D01*
X112584046Y-69295810D01*
X112584500Y-69452890D01*
X112584509Y-69494565D01*
X112584509Y-69976471D01*
X112464980Y-69976471D01*
X112388739Y-69971131D01*
X112332366Y-69957604D01*
X112318242Y-69949262D01*
X112279630Y-69934864D01*
X112240192Y-69949262D01*
X112175262Y-69967237D01*
X112080945Y-69974472D01*
X111976407Y-69971333D01*
X111880811Y-69958186D01*
X111825000Y-69941318D01*
X111716998Y-69871986D01*
X111649503Y-69775772D01*
X111619159Y-69647844D01*
X111618877Y-69644559D01*
X111621540Y-69587808D01*
X111862353Y-69587808D01*
X111883405Y-69652358D01*
X111917697Y-69688686D01*
X111986532Y-69716162D01*
X112077390Y-69727129D01*
X112170042Y-69721731D01*
X112244256Y-69700110D01*
X112265049Y-69686239D01*
X112301381Y-69622143D01*
X112310588Y-69549278D01*
X112310588Y-69453530D01*
X112172827Y-69453530D01*
X112041953Y-69463605D01*
X111942741Y-69492148D01*
X111881023Y-69536639D01*
X111862353Y-69587808D01*
X111621540Y-69587808D01*
X111625436Y-69504790D01*
X111671534Y-69394282D01*
X111758200Y-69310712D01*
X111770179Y-69303110D01*
X111821655Y-69278357D01*
X111885368Y-69263368D01*
X111974435Y-69256082D01*
X112080245Y-69254407D01*
X112310588Y-69254314D01*
X112310588Y-69157755D01*
X112300817Y-69082836D01*
X112275884Y-69032644D01*
X112272965Y-69029972D01*
X112217481Y-69008015D01*
X112133727Y-68999505D01*
X112041167Y-69003687D01*
X111959270Y-69019809D01*
X111910673Y-69043990D01*
X111884341Y-69063359D01*
X111856535Y-69067057D01*
X111818161Y-69051188D01*
X111760125Y-69011855D01*
X111673331Y-68945164D01*
X111665365Y-68938916D01*
X111669447Y-68915800D01*
X111703501Y-68877352D01*
X111755260Y-68834627D01*
X111812455Y-68798679D01*
X111830425Y-68790191D01*
X111895972Y-68773252D01*
X111992020Y-68761170D01*
X112099329Y-68756323D01*
X112104347Y-68756313D01*
X112258720Y-68765922D01*
G36*
X111219909Y-66909560D02*
G01*
X111272412Y-66935499D01*
X111337158Y-66980700D01*
X111384347Y-67029991D01*
X111416665Y-67091885D01*
X111436797Y-67174896D01*
X111447430Y-67287538D01*
X111451247Y-67438324D01*
X111451470Y-67503149D01*
X111450818Y-67645221D01*
X111448112Y-67746757D01*
X111442224Y-67817015D01*
X111432027Y-67865256D01*
X111416394Y-67900738D01*
X111400128Y-67924943D01*
X111296295Y-68027929D01*
X111174021Y-68089874D01*
X111042114Y-68108506D01*
X110909384Y-68081549D01*
X110867333Y-68062486D01*
X110766666Y-68010015D01*
X110766666Y-68832259D01*
X110840135Y-68794267D01*
X110936941Y-68764872D01*
X111055928Y-68757342D01*
X111174745Y-68771245D01*
X111264473Y-68802476D01*
X111338899Y-68861954D01*
X111402490Y-68947066D01*
X111407271Y-68955805D01*
X111427437Y-68996966D01*
X111442165Y-69038454D01*
X111452303Y-69088713D01*
X111458699Y-69156184D01*
X111462201Y-69249309D01*
X111463658Y-69376531D01*
X111463921Y-69519701D01*
X111463921Y-69976471D01*
X111190000Y-69976471D01*
X111190000Y-69134231D01*
X111113383Y-69069763D01*
X111033793Y-69018194D01*
X110958422Y-69008818D01*
X110882633Y-69032947D01*
X110842241Y-69056574D01*
X110812179Y-69090227D01*
X110790797Y-69141087D01*
X110776450Y-69216334D01*
X110767490Y-69323146D01*
X110762270Y-69468704D01*
X110760431Y-69565588D01*
X110754215Y-69964020D01*
X110623480Y-69971547D01*
X110492745Y-69979073D01*
X110492745Y-67506582D01*
X110766666Y-67506582D01*
X110773650Y-67644423D01*
X110797182Y-67740107D01*
X110841135Y-67799641D01*
X110909382Y-67829029D01*
X110978333Y-67834902D01*
X111056386Y-67828154D01*
X111108189Y-67801594D01*
X111140583Y-67766499D01*
X111166084Y-67728752D01*
X111181265Y-67686700D01*
X111188019Y-67627779D01*
X111188241Y-67539428D01*
X111185968Y-67465448D01*
X111180749Y-67354000D01*
X111172979Y-67280833D01*
X111159895Y-67234422D01*
X111138732Y-67203244D01*
X111118760Y-67185223D01*
X111035314Y-67145925D01*
X110936551Y-67139579D01*
X110879841Y-67153116D01*
X110823692Y-67201233D01*
X110786499Y-67294833D01*
X110768472Y-67433254D01*
X110766666Y-67506582D01*
X110492745Y-67506582D01*
X110492745Y-66888628D01*
X110629705Y-66888628D01*
X110711935Y-66891879D01*
X110754360Y-66903426D01*
X110766661Y-66925952D01*
X110766666Y-66926620D01*
X110772374Y-66948681D01*
X110797547Y-66946176D01*
X110847598Y-66921935D01*
X110964219Y-66884851D01*
X111095429Y-66880953D01*
X111219909Y-66909560D01*
G37*
X111219909Y-66909560D02*
X111272412Y-66935499D01*
X111337158Y-66980700D01*
X111384347Y-67029991D01*
X111416665Y-67091885D01*
X111436797Y-67174896D01*
X111447430Y-67287538D01*
X111451247Y-67438324D01*
X111451470Y-67503149D01*
X111450818Y-67645221D01*
X111448112Y-67746757D01*
X111442224Y-67817015D01*
X111432027Y-67865256D01*
X111416394Y-67900738D01*
X111400128Y-67924943D01*
X111296295Y-68027929D01*
X111174021Y-68089874D01*
X111042114Y-68108506D01*
X110909384Y-68081549D01*
X110867333Y-68062486D01*
X110766666Y-68010015D01*
X110766666Y-68832259D01*
X110840135Y-68794267D01*
X110936941Y-68764872D01*
X111055928Y-68757342D01*
X111174745Y-68771245D01*
X111264473Y-68802476D01*
X111338899Y-68861954D01*
X111402490Y-68947066D01*
X111407271Y-68955805D01*
X111427437Y-68996966D01*
X111442165Y-69038454D01*
X111452303Y-69088713D01*
X111458699Y-69156184D01*
X111462201Y-69249309D01*
X111463658Y-69376531D01*
X111463921Y-69519701D01*
X111463921Y-69976471D01*
X111190000Y-69976471D01*
X111190000Y-69134231D01*
X111113383Y-69069763D01*
X111033793Y-69018194D01*
X110958422Y-69008818D01*
X110882633Y-69032947D01*
X110842241Y-69056574D01*
X110812179Y-69090227D01*
X110790797Y-69141087D01*
X110776450Y-69216334D01*
X110767490Y-69323146D01*
X110762270Y-69468704D01*
X110760431Y-69565588D01*
X110754215Y-69964020D01*
X110623480Y-69971547D01*
X110492745Y-69979073D01*
X110492745Y-67506582D01*
X110766666Y-67506582D01*
X110773650Y-67644423D01*
X110797182Y-67740107D01*
X110841135Y-67799641D01*
X110909382Y-67829029D01*
X110978333Y-67834902D01*
X111056386Y-67828154D01*
X111108189Y-67801594D01*
X111140583Y-67766499D01*
X111166084Y-67728752D01*
X111181265Y-67686700D01*
X111188019Y-67627779D01*
X111188241Y-67539428D01*
X111185968Y-67465448D01*
X111180749Y-67354000D01*
X111172979Y-67280833D01*
X111159895Y-67234422D01*
X111138732Y-67203244D01*
X111118760Y-67185223D01*
X111035314Y-67145925D01*
X110936551Y-67139579D01*
X110879841Y-67153116D01*
X110823692Y-67201233D01*
X110786499Y-67294833D01*
X110768472Y-67433254D01*
X110766666Y-67506582D01*
X110492745Y-67506582D01*
X110492745Y-66888628D01*
X110629705Y-66888628D01*
X110711935Y-66891879D01*
X110754360Y-66903426D01*
X110766661Y-66925952D01*
X110766666Y-66926620D01*
X110772374Y-66948681D01*
X110797547Y-66946176D01*
X110847598Y-66921935D01*
X110964219Y-66884851D01*
X111095429Y-66880953D01*
X111219909Y-66909560D01*
D15*
X112175000Y-106825000D02*
G75*
G03X112250000Y-108250000I-675000J-750000D01*
G01*
D16*
X111675000Y-107575000D02*
G75*
G03X111675000Y-107575000I-175000J0D01*
G01*
D15*
X115425000Y-107575000D02*
G75*
G03X115425000Y-107575000I-925000J0D01*
G01*
X109425000Y-107575000D02*
G75*
G03X109425000Y-107575000I-925000J0D01*
G01*
X109500000Y-107575000D02*
X110400000Y-107575000D01*
X111500000Y-107575000D02*
X113500000Y-107575000D01*
D14*
G36*
X108890337Y-78635258D02*
G01*
X108929819Y-78635659D01*
X109045508Y-78638451D01*
X109142397Y-78646742D01*
X109223789Y-78661424D01*
X109292985Y-78683385D01*
X109353288Y-78713514D01*
X109408000Y-78752702D01*
X109427541Y-78769724D01*
X109459958Y-78809555D01*
X109489188Y-78863605D01*
X109511717Y-78923515D01*
X109524029Y-78980931D01*
X109525308Y-79002148D01*
X109517291Y-79060961D01*
X109495809Y-79125205D01*
X109464709Y-79186013D01*
X109427842Y-79234522D01*
X109421854Y-79240374D01*
X109371129Y-79281513D01*
X109315583Y-79313627D01*
X109252012Y-79337557D01*
X109177214Y-79354145D01*
X109087986Y-79364233D01*
X108981126Y-79368661D01*
X108932180Y-79369037D01*
X108869946Y-79368737D01*
X108826180Y-79367484D01*
X108796777Y-79364746D01*
X108777629Y-79359993D01*
X108764631Y-79352693D01*
X108757663Y-79346459D01*
X108751082Y-79338886D01*
X108745920Y-79329116D01*
X108742005Y-79314532D01*
X108739165Y-79292518D01*
X108737228Y-79260456D01*
X108736024Y-79215728D01*
X108735380Y-79155718D01*
X108735125Y-79077809D01*
X108735086Y-79002148D01*
X108734838Y-78901233D01*
X108734891Y-78820619D01*
X108735851Y-78782014D01*
X108881841Y-78782014D01*
X108881841Y-79222281D01*
X108974974Y-79222196D01*
X109031015Y-79220588D01*
X109089709Y-79216448D01*
X109138680Y-79210656D01*
X109140170Y-79210418D01*
X109219316Y-79191282D01*
X109280706Y-79161479D01*
X109327403Y-79119070D01*
X109357073Y-79073153D01*
X109375355Y-79022218D01*
X109373937Y-78974392D01*
X109352720Y-78923125D01*
X109311219Y-78870091D01*
X109253710Y-78830792D01*
X109178958Y-78804523D01*
X109129000Y-78795227D01*
X109072292Y-78788699D01*
X109012189Y-78783974D01*
X108961069Y-78782009D01*
X108958041Y-78782000D01*
X108881841Y-78782014D01*
X108735851Y-78782014D01*
X108736448Y-78758043D01*
X108740710Y-78711247D01*
X108748878Y-78677970D01*
X108762152Y-78655951D01*
X108781734Y-78642931D01*
X108808825Y-78636649D01*
X108844626Y-78634845D01*
X108890337Y-78635258D01*
G37*
X108890337Y-78635258D02*
X108929819Y-78635659D01*
X109045508Y-78638451D01*
X109142397Y-78646742D01*
X109223789Y-78661424D01*
X109292985Y-78683385D01*
X109353288Y-78713514D01*
X109408000Y-78752702D01*
X109427541Y-78769724D01*
X109459958Y-78809555D01*
X109489188Y-78863605D01*
X109511717Y-78923515D01*
X109524029Y-78980931D01*
X109525308Y-79002148D01*
X109517291Y-79060961D01*
X109495809Y-79125205D01*
X109464709Y-79186013D01*
X109427842Y-79234522D01*
X109421854Y-79240374D01*
X109371129Y-79281513D01*
X109315583Y-79313627D01*
X109252012Y-79337557D01*
X109177214Y-79354145D01*
X109087986Y-79364233D01*
X108981126Y-79368661D01*
X108932180Y-79369037D01*
X108869946Y-79368737D01*
X108826180Y-79367484D01*
X108796777Y-79364746D01*
X108777629Y-79359993D01*
X108764631Y-79352693D01*
X108757663Y-79346459D01*
X108751082Y-79338886D01*
X108745920Y-79329116D01*
X108742005Y-79314532D01*
X108739165Y-79292518D01*
X108737228Y-79260456D01*
X108736024Y-79215728D01*
X108735380Y-79155718D01*
X108735125Y-79077809D01*
X108735086Y-79002148D01*
X108734838Y-78901233D01*
X108734891Y-78820619D01*
X108735851Y-78782014D01*
X108881841Y-78782014D01*
X108881841Y-79222281D01*
X108974974Y-79222196D01*
X109031015Y-79220588D01*
X109089709Y-79216448D01*
X109138680Y-79210656D01*
X109140170Y-79210418D01*
X109219316Y-79191282D01*
X109280706Y-79161479D01*
X109327403Y-79119070D01*
X109357073Y-79073153D01*
X109375355Y-79022218D01*
X109373937Y-78974392D01*
X109352720Y-78923125D01*
X109311219Y-78870091D01*
X109253710Y-78830792D01*
X109178958Y-78804523D01*
X109129000Y-78795227D01*
X109072292Y-78788699D01*
X109012189Y-78783974D01*
X108961069Y-78782009D01*
X108958041Y-78782000D01*
X108881841Y-78782014D01*
X108735851Y-78782014D01*
X108736448Y-78758043D01*
X108740710Y-78711247D01*
X108748878Y-78677970D01*
X108762152Y-78655951D01*
X108781734Y-78642931D01*
X108808825Y-78636649D01*
X108844626Y-78634845D01*
X108890337Y-78635258D01*
G36*
X110298914Y-78635338D02*
G01*
X110368322Y-78635710D01*
X110420711Y-78636577D01*
X110458861Y-78638138D01*
X110485549Y-78640595D01*
X110503555Y-78644149D01*
X110515659Y-78649002D01*
X110524639Y-78655353D01*
X110527890Y-78658276D01*
X110547665Y-78689334D01*
X110551226Y-78725020D01*
X110538217Y-78756702D01*
X110532202Y-78763105D01*
X110522473Y-78769313D01*
X110506807Y-78774102D01*
X110482300Y-78777706D01*
X110446047Y-78780356D01*
X110395143Y-78782287D01*
X110326682Y-78783731D01*
X110264091Y-78784610D01*
X110016374Y-78787659D01*
X110012989Y-78852570D01*
X110009603Y-78917481D01*
X110177750Y-78917481D01*
X110250749Y-78918111D01*
X110304191Y-78920745D01*
X110341080Y-78926501D01*
X110364420Y-78936496D01*
X110377214Y-78951848D01*
X110382466Y-78973674D01*
X110383263Y-78993930D01*
X110380785Y-79018784D01*
X110371431Y-79037098D01*
X110352325Y-79049829D01*
X110320590Y-79057933D01*
X110273349Y-79062368D01*
X110207725Y-79064091D01*
X110171907Y-79064237D01*
X110010730Y-79064237D01*
X110010730Y-79222281D01*
X110259086Y-79222281D01*
X110340495Y-79222394D01*
X110402366Y-79222904D01*
X110447740Y-79224062D01*
X110479654Y-79226122D01*
X110501149Y-79229338D01*
X110515265Y-79233964D01*
X110525040Y-79240251D01*
X110530019Y-79244859D01*
X110547098Y-79271752D01*
X110552597Y-79295659D01*
X110544745Y-79324859D01*
X110530019Y-79346459D01*
X110522162Y-79353258D01*
X110512020Y-79358538D01*
X110496864Y-79362490D01*
X110473967Y-79365305D01*
X110440599Y-79367174D01*
X110394033Y-79368290D01*
X110331541Y-79368843D01*
X110250394Y-79369025D01*
X110208286Y-79369037D01*
X110118110Y-79368957D01*
X110047784Y-79368590D01*
X109994579Y-79367744D01*
X109955768Y-79366228D01*
X109928621Y-79363851D01*
X109910410Y-79360421D01*
X109898408Y-79355746D01*
X109889886Y-79349636D01*
X109886552Y-79346459D01*
X109879953Y-79338862D01*
X109874781Y-79329062D01*
X109870862Y-79314431D01*
X109868024Y-79292344D01*
X109866093Y-79260174D01*
X109864896Y-79215295D01*
X109864260Y-79155081D01*
X109864011Y-79076905D01*
X109863974Y-79004115D01*
X109864008Y-78910899D01*
X109864243Y-78837623D01*
X109864878Y-78781650D01*
X109866114Y-78740343D01*
X109868152Y-78711064D01*
X109871191Y-78691176D01*
X109875431Y-78678042D01*
X109881073Y-78669024D01*
X109888317Y-78661485D01*
X109890102Y-78659804D01*
X109898763Y-78652364D01*
X109908826Y-78646601D01*
X109923083Y-78642304D01*
X109944325Y-78639256D01*
X109975344Y-78637243D01*
X110018931Y-78636052D01*
X110077877Y-78635467D01*
X110154974Y-78635275D01*
X110209707Y-78635259D01*
X110298914Y-78635338D01*
G37*
X110298914Y-78635338D02*
X110368322Y-78635710D01*
X110420711Y-78636577D01*
X110458861Y-78638138D01*
X110485549Y-78640595D01*
X110503555Y-78644149D01*
X110515659Y-78649002D01*
X110524639Y-78655353D01*
X110527890Y-78658276D01*
X110547665Y-78689334D01*
X110551226Y-78725020D01*
X110538217Y-78756702D01*
X110532202Y-78763105D01*
X110522473Y-78769313D01*
X110506807Y-78774102D01*
X110482300Y-78777706D01*
X110446047Y-78780356D01*
X110395143Y-78782287D01*
X110326682Y-78783731D01*
X110264091Y-78784610D01*
X110016374Y-78787659D01*
X110012989Y-78852570D01*
X110009603Y-78917481D01*
X110177750Y-78917481D01*
X110250749Y-78918111D01*
X110304191Y-78920745D01*
X110341080Y-78926501D01*
X110364420Y-78936496D01*
X110377214Y-78951848D01*
X110382466Y-78973674D01*
X110383263Y-78993930D01*
X110380785Y-79018784D01*
X110371431Y-79037098D01*
X110352325Y-79049829D01*
X110320590Y-79057933D01*
X110273349Y-79062368D01*
X110207725Y-79064091D01*
X110171907Y-79064237D01*
X110010730Y-79064237D01*
X110010730Y-79222281D01*
X110259086Y-79222281D01*
X110340495Y-79222394D01*
X110402366Y-79222904D01*
X110447740Y-79224062D01*
X110479654Y-79226122D01*
X110501149Y-79229338D01*
X110515265Y-79233964D01*
X110525040Y-79240251D01*
X110530019Y-79244859D01*
X110547098Y-79271752D01*
X110552597Y-79295659D01*
X110544745Y-79324859D01*
X110530019Y-79346459D01*
X110522162Y-79353258D01*
X110512020Y-79358538D01*
X110496864Y-79362490D01*
X110473967Y-79365305D01*
X110440599Y-79367174D01*
X110394033Y-79368290D01*
X110331541Y-79368843D01*
X110250394Y-79369025D01*
X110208286Y-79369037D01*
X110118110Y-79368957D01*
X110047784Y-79368590D01*
X109994579Y-79367744D01*
X109955768Y-79366228D01*
X109928621Y-79363851D01*
X109910410Y-79360421D01*
X109898408Y-79355746D01*
X109889886Y-79349636D01*
X109886552Y-79346459D01*
X109879953Y-79338862D01*
X109874781Y-79329062D01*
X109870862Y-79314431D01*
X109868024Y-79292344D01*
X109866093Y-79260174D01*
X109864896Y-79215295D01*
X109864260Y-79155081D01*
X109864011Y-79076905D01*
X109863974Y-79004115D01*
X109864008Y-78910899D01*
X109864243Y-78837623D01*
X109864878Y-78781650D01*
X109866114Y-78740343D01*
X109868152Y-78711064D01*
X109871191Y-78691176D01*
X109875431Y-78678042D01*
X109881073Y-78669024D01*
X109888317Y-78661485D01*
X109890102Y-78659804D01*
X109898763Y-78652364D01*
X109908826Y-78646601D01*
X109923083Y-78642304D01*
X109944325Y-78639256D01*
X109975344Y-78637243D01*
X110018931Y-78636052D01*
X110077877Y-78635467D01*
X110154974Y-78635275D01*
X110209707Y-78635259D01*
X110298914Y-78635338D01*
G36*
X111320005Y-78636543D02*
G01*
X111394820Y-78641773D01*
X111464402Y-78649942D01*
X111524706Y-78660742D01*
X111571688Y-78673865D01*
X111601302Y-78689005D01*
X111605848Y-78693461D01*
X111621654Y-78728042D01*
X111616861Y-78763543D01*
X111592344Y-78793917D01*
X111591174Y-78794788D01*
X111576754Y-78804146D01*
X111561700Y-78809068D01*
X111540703Y-78809665D01*
X111508451Y-78806053D01*
X111459635Y-78798346D01*
X111455708Y-78797697D01*
X111382969Y-78788761D01*
X111304491Y-78784353D01*
X111225781Y-78784311D01*
X111152347Y-78788471D01*
X111089697Y-78796671D01*
X111043338Y-78808749D01*
X111040292Y-78809963D01*
X111006660Y-78828807D01*
X110994844Y-78847877D01*
X111004094Y-78866631D01*
X111033661Y-78884529D01*
X111082797Y-78901029D01*
X111150751Y-78915588D01*
X111196063Y-78922598D01*
X111290252Y-78936081D01*
X111365164Y-78948406D01*
X111423991Y-78960641D01*
X111469923Y-78973853D01*
X111506153Y-78989109D01*
X111535870Y-79007477D01*
X111562266Y-79030023D01*
X111583478Y-79052163D01*
X111608643Y-79083011D01*
X111621027Y-79109537D01*
X111624900Y-79142218D01*
X111625041Y-79154187D01*
X111622132Y-79193904D01*
X111610506Y-79223451D01*
X111590385Y-79249678D01*
X111549492Y-79289768D01*
X111503891Y-79320341D01*
X111450195Y-79342395D01*
X111385016Y-79356927D01*
X111304964Y-79364933D01*
X111206651Y-79367410D01*
X111190419Y-79367369D01*
X111124859Y-79366010D01*
X111059842Y-79362922D01*
X111002456Y-79358548D01*
X110959786Y-79353332D01*
X110956336Y-79352733D01*
X110913912Y-79342683D01*
X110877928Y-79329988D01*
X110857558Y-79318382D01*
X110838601Y-79287764D01*
X110837281Y-79252110D01*
X110853623Y-79220336D01*
X110857279Y-79216743D01*
X110872393Y-79206068D01*
X110891293Y-79201468D01*
X110920546Y-79202251D01*
X110956057Y-79206319D01*
X110995738Y-79209954D01*
X111051363Y-79213020D01*
X111116302Y-79215245D01*
X111183923Y-79216356D01*
X111201708Y-79216429D01*
X111269580Y-79216156D01*
X111319254Y-79214838D01*
X111355098Y-79212019D01*
X111381484Y-79207242D01*
X111402782Y-79200049D01*
X111415582Y-79194059D01*
X111443708Y-79177425D01*
X111461640Y-79162360D01*
X111464261Y-79158089D01*
X111458732Y-79140455D01*
X111432448Y-79123384D01*
X111387230Y-79107650D01*
X111324900Y-79094030D01*
X111306537Y-79090996D01*
X111210618Y-79075930D01*
X111134067Y-79063338D01*
X111073928Y-79052303D01*
X111027248Y-79041912D01*
X110991071Y-79031248D01*
X110962443Y-79019397D01*
X110938410Y-79005443D01*
X110916016Y-78988473D01*
X110892306Y-78967570D01*
X110884328Y-78960241D01*
X110856355Y-78932891D01*
X110841548Y-78911221D01*
X110835756Y-78886424D01*
X110834819Y-78855175D01*
X110845133Y-78793897D01*
X110875956Y-78741832D01*
X110927113Y-78699150D01*
X110998425Y-78666017D01*
X111049308Y-78651156D01*
X111104608Y-78641558D01*
X111170855Y-78636128D01*
X111244002Y-78634559D01*
X111320005Y-78636543D01*
G37*
X111320005Y-78636543D02*
X111394820Y-78641773D01*
X111464402Y-78649942D01*
X111524706Y-78660742D01*
X111571688Y-78673865D01*
X111601302Y-78689005D01*
X111605848Y-78693461D01*
X111621654Y-78728042D01*
X111616861Y-78763543D01*
X111592344Y-78793917D01*
X111591174Y-78794788D01*
X111576754Y-78804146D01*
X111561700Y-78809068D01*
X111540703Y-78809665D01*
X111508451Y-78806053D01*
X111459635Y-78798346D01*
X111455708Y-78797697D01*
X111382969Y-78788761D01*
X111304491Y-78784353D01*
X111225781Y-78784311D01*
X111152347Y-78788471D01*
X111089697Y-78796671D01*
X111043338Y-78808749D01*
X111040292Y-78809963D01*
X111006660Y-78828807D01*
X110994844Y-78847877D01*
X111004094Y-78866631D01*
X111033661Y-78884529D01*
X111082797Y-78901029D01*
X111150751Y-78915588D01*
X111196063Y-78922598D01*
X111290252Y-78936081D01*
X111365164Y-78948406D01*
X111423991Y-78960641D01*
X111469923Y-78973853D01*
X111506153Y-78989109D01*
X111535870Y-79007477D01*
X111562266Y-79030023D01*
X111583478Y-79052163D01*
X111608643Y-79083011D01*
X111621027Y-79109537D01*
X111624900Y-79142218D01*
X111625041Y-79154187D01*
X111622132Y-79193904D01*
X111610506Y-79223451D01*
X111590385Y-79249678D01*
X111549492Y-79289768D01*
X111503891Y-79320341D01*
X111450195Y-79342395D01*
X111385016Y-79356927D01*
X111304964Y-79364933D01*
X111206651Y-79367410D01*
X111190419Y-79367369D01*
X111124859Y-79366010D01*
X111059842Y-79362922D01*
X111002456Y-79358548D01*
X110959786Y-79353332D01*
X110956336Y-79352733D01*
X110913912Y-79342683D01*
X110877928Y-79329988D01*
X110857558Y-79318382D01*
X110838601Y-79287764D01*
X110837281Y-79252110D01*
X110853623Y-79220336D01*
X110857279Y-79216743D01*
X110872393Y-79206068D01*
X110891293Y-79201468D01*
X110920546Y-79202251D01*
X110956057Y-79206319D01*
X110995738Y-79209954D01*
X111051363Y-79213020D01*
X111116302Y-79215245D01*
X111183923Y-79216356D01*
X111201708Y-79216429D01*
X111269580Y-79216156D01*
X111319254Y-79214838D01*
X111355098Y-79212019D01*
X111381484Y-79207242D01*
X111402782Y-79200049D01*
X111415582Y-79194059D01*
X111443708Y-79177425D01*
X111461640Y-79162360D01*
X111464261Y-79158089D01*
X111458732Y-79140455D01*
X111432448Y-79123384D01*
X111387230Y-79107650D01*
X111324900Y-79094030D01*
X111306537Y-79090996D01*
X111210618Y-79075930D01*
X111134067Y-79063338D01*
X111073928Y-79052303D01*
X111027248Y-79041912D01*
X110991071Y-79031248D01*
X110962443Y-79019397D01*
X110938410Y-79005443D01*
X110916016Y-78988473D01*
X110892306Y-78967570D01*
X110884328Y-78960241D01*
X110856355Y-78932891D01*
X110841548Y-78911221D01*
X110835756Y-78886424D01*
X110834819Y-78855175D01*
X110845133Y-78793897D01*
X110875956Y-78741832D01*
X110927113Y-78699150D01*
X110998425Y-78666017D01*
X111049308Y-78651156D01*
X111104608Y-78641558D01*
X111170855Y-78636128D01*
X111244002Y-78634559D01*
X111320005Y-78636543D01*
G36*
X112087886Y-78657837D02*
G01*
X112094466Y-78665410D01*
X112099629Y-78675179D01*
X112103544Y-78689763D01*
X112106384Y-78711777D01*
X112108321Y-78743840D01*
X112109525Y-78788567D01*
X112110169Y-78848577D01*
X112110424Y-78926486D01*
X112110463Y-79002148D01*
X112110394Y-79095994D01*
X112110070Y-79169881D01*
X112109322Y-79226424D01*
X112107976Y-79268241D01*
X112105862Y-79297949D01*
X112102808Y-79318165D01*
X112098642Y-79331506D01*
X112093192Y-79340590D01*
X112087886Y-79346459D01*
X112054882Y-79366139D01*
X112019717Y-79364373D01*
X111988253Y-79342909D01*
X111981024Y-79334529D01*
X111975374Y-79324806D01*
X111971109Y-79311053D01*
X111968035Y-79290581D01*
X111965956Y-79260704D01*
X111964678Y-79218733D01*
X111964007Y-79161981D01*
X111963749Y-79087759D01*
X111963708Y-79003729D01*
X111963708Y-78690677D01*
X111991417Y-78662968D01*
X112025571Y-78639655D01*
X112058702Y-78638815D01*
X112087886Y-78657837D01*
G37*
X112087886Y-78657837D02*
X112094466Y-78665410D01*
X112099629Y-78675179D01*
X112103544Y-78689763D01*
X112106384Y-78711777D01*
X112108321Y-78743840D01*
X112109525Y-78788567D01*
X112110169Y-78848577D01*
X112110424Y-78926486D01*
X112110463Y-79002148D01*
X112110394Y-79095994D01*
X112110070Y-79169881D01*
X112109322Y-79226424D01*
X112107976Y-79268241D01*
X112105862Y-79297949D01*
X112102808Y-79318165D01*
X112098642Y-79331506D01*
X112093192Y-79340590D01*
X112087886Y-79346459D01*
X112054882Y-79366139D01*
X112019717Y-79364373D01*
X111988253Y-79342909D01*
X111981024Y-79334529D01*
X111975374Y-79324806D01*
X111971109Y-79311053D01*
X111968035Y-79290581D01*
X111965956Y-79260704D01*
X111964678Y-79218733D01*
X111964007Y-79161981D01*
X111963749Y-79087759D01*
X111963708Y-79003729D01*
X111963708Y-78690677D01*
X111991417Y-78662968D01*
X112025571Y-78639655D01*
X112058702Y-78638815D01*
X112087886Y-78657837D01*
G36*
X113061627Y-78640791D02*
G01*
X113130143Y-78652287D01*
X113182765Y-78670159D01*
X113217000Y-78693691D01*
X113226329Y-78707116D01*
X113235815Y-78738340D01*
X113229431Y-78766587D01*
X113209278Y-78793374D01*
X113177963Y-78805905D01*
X113132525Y-78804888D01*
X113097382Y-78798098D01*
X113019289Y-78785163D01*
X112939482Y-78783934D01*
X112850153Y-78794433D01*
X112825479Y-78798882D01*
X112742417Y-78822300D01*
X112677435Y-78857137D01*
X112631247Y-78902796D01*
X112604563Y-78958686D01*
X112599045Y-78987580D01*
X112602657Y-79046204D01*
X112625979Y-79098071D01*
X112666884Y-79142170D01*
X112723249Y-79177491D01*
X112792948Y-79203021D01*
X112873856Y-79217751D01*
X112963848Y-79220670D01*
X113060798Y-79210767D01*
X113066272Y-79209833D01*
X113104833Y-79202651D01*
X113126214Y-79195713D01*
X113135481Y-79185419D01*
X113137702Y-79168168D01*
X113137752Y-79159033D01*
X113137752Y-79120681D01*
X113069277Y-79120681D01*
X113008808Y-79116539D01*
X112967543Y-79103339D01*
X112943533Y-79079922D01*
X112934831Y-79045128D01*
X112934725Y-79040586D01*
X112939816Y-79010846D01*
X112957275Y-78989611D01*
X112989769Y-78975558D01*
X113039965Y-78967365D01*
X113088585Y-78964353D01*
X113159252Y-78962625D01*
X113210510Y-78965262D01*
X113245469Y-78974992D01*
X113267238Y-78994545D01*
X113278928Y-79026648D01*
X113283648Y-79074030D01*
X113284508Y-79136263D01*
X113283099Y-79205727D01*
X113278860Y-79252978D01*
X113271772Y-79278204D01*
X113270397Y-79280180D01*
X113231480Y-79311700D01*
X113174422Y-79336662D01*
X113102839Y-79354532D01*
X113020350Y-79364778D01*
X112930569Y-79366865D01*
X112837116Y-79360260D01*
X112782152Y-79352148D01*
X112695942Y-79327746D01*
X112615816Y-79287854D01*
X112548731Y-79236079D01*
X112538535Y-79225731D01*
X112505406Y-79182227D01*
X112475514Y-79128310D01*
X112452351Y-79071784D01*
X112439410Y-79020451D01*
X112437850Y-79000736D01*
X112444490Y-78959611D01*
X112462140Y-78908444D01*
X112487411Y-78854586D01*
X112516919Y-78805387D01*
X112542989Y-78772526D01*
X112603943Y-78723644D01*
X112682739Y-78684737D01*
X112776551Y-78656686D01*
X112882558Y-78640371D01*
X112979708Y-78636384D01*
X113061627Y-78640791D01*
G37*
X113061627Y-78640791D02*
X113130143Y-78652287D01*
X113182765Y-78670159D01*
X113217000Y-78693691D01*
X113226329Y-78707116D01*
X113235815Y-78738340D01*
X113229431Y-78766587D01*
X113209278Y-78793374D01*
X113177963Y-78805905D01*
X113132525Y-78804888D01*
X113097382Y-78798098D01*
X113019289Y-78785163D01*
X112939482Y-78783934D01*
X112850153Y-78794433D01*
X112825479Y-78798882D01*
X112742417Y-78822300D01*
X112677435Y-78857137D01*
X112631247Y-78902796D01*
X112604563Y-78958686D01*
X112599045Y-78987580D01*
X112602657Y-79046204D01*
X112625979Y-79098071D01*
X112666884Y-79142170D01*
X112723249Y-79177491D01*
X112792948Y-79203021D01*
X112873856Y-79217751D01*
X112963848Y-79220670D01*
X113060798Y-79210767D01*
X113066272Y-79209833D01*
X113104833Y-79202651D01*
X113126214Y-79195713D01*
X113135481Y-79185419D01*
X113137702Y-79168168D01*
X113137752Y-79159033D01*
X113137752Y-79120681D01*
X113069277Y-79120681D01*
X113008808Y-79116539D01*
X112967543Y-79103339D01*
X112943533Y-79079922D01*
X112934831Y-79045128D01*
X112934725Y-79040586D01*
X112939816Y-79010846D01*
X112957275Y-78989611D01*
X112989769Y-78975558D01*
X113039965Y-78967365D01*
X113088585Y-78964353D01*
X113159252Y-78962625D01*
X113210510Y-78965262D01*
X113245469Y-78974992D01*
X113267238Y-78994545D01*
X113278928Y-79026648D01*
X113283648Y-79074030D01*
X113284508Y-79136263D01*
X113283099Y-79205727D01*
X113278860Y-79252978D01*
X113271772Y-79278204D01*
X113270397Y-79280180D01*
X113231480Y-79311700D01*
X113174422Y-79336662D01*
X113102839Y-79354532D01*
X113020350Y-79364778D01*
X112930569Y-79366865D01*
X112837116Y-79360260D01*
X112782152Y-79352148D01*
X112695942Y-79327746D01*
X112615816Y-79287854D01*
X112548731Y-79236079D01*
X112538535Y-79225731D01*
X112505406Y-79182227D01*
X112475514Y-79128310D01*
X112452351Y-79071784D01*
X112439410Y-79020451D01*
X112437850Y-79000736D01*
X112444490Y-78959611D01*
X112462140Y-78908444D01*
X112487411Y-78854586D01*
X112516919Y-78805387D01*
X112542989Y-78772526D01*
X112603943Y-78723644D01*
X112682739Y-78684737D01*
X112776551Y-78656686D01*
X112882558Y-78640371D01*
X112979708Y-78636384D01*
X113061627Y-78640791D01*
G36*
X113711594Y-78639640D02*
G01*
X113735160Y-78653465D01*
X113765973Y-78676073D01*
X113805630Y-78708530D01*
X113855728Y-78751900D01*
X113917865Y-78807250D01*
X113993636Y-78875643D01*
X114080374Y-78954276D01*
X114260997Y-79118070D01*
X114266641Y-78898221D01*
X114268679Y-78822543D01*
X114270645Y-78766186D01*
X114272974Y-78725898D01*
X114276102Y-78698427D01*
X114280463Y-78680521D01*
X114286492Y-78668929D01*
X114294624Y-78660400D01*
X114298936Y-78656815D01*
X114333467Y-78637862D01*
X114366325Y-78640633D01*
X114392390Y-78656825D01*
X114419041Y-78678391D01*
X114422356Y-78993343D01*
X114423273Y-79085971D01*
X114423740Y-79158736D01*
X114423595Y-79214353D01*
X114422676Y-79255534D01*
X114420821Y-79284995D01*
X114417869Y-79305447D01*
X114413658Y-79319605D01*
X114408026Y-79330183D01*
X114401781Y-79338666D01*
X114388269Y-79354399D01*
X114374825Y-79364828D01*
X114359584Y-79368831D01*
X114340682Y-79365286D01*
X114316253Y-79353071D01*
X114284435Y-79331063D01*
X114243360Y-79298141D01*
X114191166Y-79253183D01*
X114125986Y-79195067D01*
X114052152Y-79128291D01*
X113786863Y-78887650D01*
X113781219Y-79106781D01*
X113779177Y-79182320D01*
X113777206Y-79238546D01*
X113774869Y-79278716D01*
X113771727Y-79306088D01*
X113767344Y-79323920D01*
X113761284Y-79335471D01*
X113753108Y-79343999D01*
X113748924Y-79347474D01*
X113711943Y-79366564D01*
X113677000Y-79363685D01*
X113646572Y-79339292D01*
X113639611Y-79329478D01*
X113634185Y-79318018D01*
X113630105Y-79302160D01*
X113627179Y-79279155D01*
X113625216Y-79246254D01*
X113624025Y-79200708D01*
X113623416Y-79139765D01*
X113623197Y-79060678D01*
X113623174Y-79002148D01*
X113623248Y-78910599D01*
X113623595Y-78838879D01*
X113624407Y-78784237D01*
X113625875Y-78743924D01*
X113628189Y-78715190D01*
X113631541Y-78695285D01*
X113636120Y-78681460D01*
X113642119Y-78670964D01*
X113646572Y-78665003D01*
X113657858Y-78650883D01*
X113668407Y-78640221D01*
X113679815Y-78634084D01*
X113693678Y-78633535D01*
X113711594Y-78639640D01*
G37*
X113711594Y-78639640D02*
X113735160Y-78653465D01*
X113765973Y-78676073D01*
X113805630Y-78708530D01*
X113855728Y-78751900D01*
X113917865Y-78807250D01*
X113993636Y-78875643D01*
X114080374Y-78954276D01*
X114260997Y-79118070D01*
X114266641Y-78898221D01*
X114268679Y-78822543D01*
X114270645Y-78766186D01*
X114272974Y-78725898D01*
X114276102Y-78698427D01*
X114280463Y-78680521D01*
X114286492Y-78668929D01*
X114294624Y-78660400D01*
X114298936Y-78656815D01*
X114333467Y-78637862D01*
X114366325Y-78640633D01*
X114392390Y-78656825D01*
X114419041Y-78678391D01*
X114422356Y-78993343D01*
X114423273Y-79085971D01*
X114423740Y-79158736D01*
X114423595Y-79214353D01*
X114422676Y-79255534D01*
X114420821Y-79284995D01*
X114417869Y-79305447D01*
X114413658Y-79319605D01*
X114408026Y-79330183D01*
X114401781Y-79338666D01*
X114388269Y-79354399D01*
X114374825Y-79364828D01*
X114359584Y-79368831D01*
X114340682Y-79365286D01*
X114316253Y-79353071D01*
X114284435Y-79331063D01*
X114243360Y-79298141D01*
X114191166Y-79253183D01*
X114125986Y-79195067D01*
X114052152Y-79128291D01*
X113786863Y-78887650D01*
X113781219Y-79106781D01*
X113779177Y-79182320D01*
X113777206Y-79238546D01*
X113774869Y-79278716D01*
X113771727Y-79306088D01*
X113767344Y-79323920D01*
X113761284Y-79335471D01*
X113753108Y-79343999D01*
X113748924Y-79347474D01*
X113711943Y-79366564D01*
X113677000Y-79363685D01*
X113646572Y-79339292D01*
X113639611Y-79329478D01*
X113634185Y-79318018D01*
X113630105Y-79302160D01*
X113627179Y-79279155D01*
X113625216Y-79246254D01*
X113624025Y-79200708D01*
X113623416Y-79139765D01*
X113623197Y-79060678D01*
X113623174Y-79002148D01*
X113623248Y-78910599D01*
X113623595Y-78838879D01*
X113624407Y-78784237D01*
X113625875Y-78743924D01*
X113628189Y-78715190D01*
X113631541Y-78695285D01*
X113636120Y-78681460D01*
X113642119Y-78670964D01*
X113646572Y-78665003D01*
X113657858Y-78650883D01*
X113668407Y-78640221D01*
X113679815Y-78634084D01*
X113693678Y-78633535D01*
X113711594Y-78639640D01*
G36*
X115242051Y-78635452D02*
G01*
X115318409Y-78636366D01*
X115376925Y-78638503D01*
X115419963Y-78642367D01*
X115449891Y-78648459D01*
X115469076Y-78657282D01*
X115479884Y-78669338D01*
X115484681Y-78685131D01*
X115485835Y-78705162D01*
X115485841Y-78707527D01*
X115484839Y-78730184D01*
X115480104Y-78747695D01*
X115469041Y-78760766D01*
X115449056Y-78770105D01*
X115417554Y-78776419D01*
X115371940Y-78780414D01*
X115309621Y-78782798D01*
X115228001Y-78784278D01*
X115202985Y-78784606D01*
X114960908Y-78787659D01*
X114957522Y-78852570D01*
X114954137Y-78917481D01*
X115122284Y-78917481D01*
X115187974Y-78917723D01*
X115234880Y-78918748D01*
X115266791Y-78921003D01*
X115287499Y-78924934D01*
X115300792Y-78930990D01*
X115310463Y-78939616D01*
X115310525Y-78939685D01*
X115328064Y-78973304D01*
X115327430Y-79009640D01*
X115309022Y-79040615D01*
X115305379Y-79043799D01*
X115292449Y-79052004D01*
X115274732Y-79057713D01*
X115248278Y-79061354D01*
X115209140Y-79063359D01*
X115153370Y-79064156D01*
X115117702Y-79064237D01*
X114955263Y-79064237D01*
X114955263Y-79222281D01*
X115201869Y-79222281D01*
X115283288Y-79222423D01*
X115345118Y-79223006D01*
X115390345Y-79224260D01*
X115421956Y-79226419D01*
X115442939Y-79229715D01*
X115456281Y-79234381D01*
X115464969Y-79240649D01*
X115467158Y-79242925D01*
X115483322Y-79274472D01*
X115484505Y-79310360D01*
X115471244Y-79341477D01*
X115460751Y-79351463D01*
X115449837Y-79356961D01*
X115432925Y-79361214D01*
X115407341Y-79364372D01*
X115370409Y-79366584D01*
X115319454Y-79367998D01*
X115251802Y-79368764D01*
X115164777Y-79369030D01*
X115145102Y-79369037D01*
X115056619Y-79368979D01*
X114987935Y-79368659D01*
X114936272Y-79367859D01*
X114898853Y-79366359D01*
X114872898Y-79363941D01*
X114855630Y-79360386D01*
X114844270Y-79355474D01*
X114836040Y-79348987D01*
X114831525Y-79344330D01*
X114824729Y-79336081D01*
X114819420Y-79325861D01*
X114815414Y-79310992D01*
X114812529Y-79288794D01*
X114810582Y-79256585D01*
X114809389Y-79211688D01*
X114808769Y-79151420D01*
X114808537Y-79073103D01*
X114808508Y-79007186D01*
X114808579Y-78914820D01*
X114808916Y-78842309D01*
X114809706Y-78786929D01*
X114811134Y-78745957D01*
X114813387Y-78716670D01*
X114816651Y-78696345D01*
X114821112Y-78682258D01*
X114826956Y-78671687D01*
X114831905Y-78665003D01*
X114855302Y-78635259D01*
X115145482Y-78635259D01*
X115242051Y-78635452D01*
G37*
X115242051Y-78635452D02*
X115318409Y-78636366D01*
X115376925Y-78638503D01*
X115419963Y-78642367D01*
X115449891Y-78648459D01*
X115469076Y-78657282D01*
X115479884Y-78669338D01*
X115484681Y-78685131D01*
X115485835Y-78705162D01*
X115485841Y-78707527D01*
X115484839Y-78730184D01*
X115480104Y-78747695D01*
X115469041Y-78760766D01*
X115449056Y-78770105D01*
X115417554Y-78776419D01*
X115371940Y-78780414D01*
X115309621Y-78782798D01*
X115228001Y-78784278D01*
X115202985Y-78784606D01*
X114960908Y-78787659D01*
X114957522Y-78852570D01*
X114954137Y-78917481D01*
X115122284Y-78917481D01*
X115187974Y-78917723D01*
X115234880Y-78918748D01*
X115266791Y-78921003D01*
X115287499Y-78924934D01*
X115300792Y-78930990D01*
X115310463Y-78939616D01*
X115310525Y-78939685D01*
X115328064Y-78973304D01*
X115327430Y-79009640D01*
X115309022Y-79040615D01*
X115305379Y-79043799D01*
X115292449Y-79052004D01*
X115274732Y-79057713D01*
X115248278Y-79061354D01*
X115209140Y-79063359D01*
X115153370Y-79064156D01*
X115117702Y-79064237D01*
X114955263Y-79064237D01*
X114955263Y-79222281D01*
X115201869Y-79222281D01*
X115283288Y-79222423D01*
X115345118Y-79223006D01*
X115390345Y-79224260D01*
X115421956Y-79226419D01*
X115442939Y-79229715D01*
X115456281Y-79234381D01*
X115464969Y-79240649D01*
X115467158Y-79242925D01*
X115483322Y-79274472D01*
X115484505Y-79310360D01*
X115471244Y-79341477D01*
X115460751Y-79351463D01*
X115449837Y-79356961D01*
X115432925Y-79361214D01*
X115407341Y-79364372D01*
X115370409Y-79366584D01*
X115319454Y-79367998D01*
X115251802Y-79368764D01*
X115164777Y-79369030D01*
X115145102Y-79369037D01*
X115056619Y-79368979D01*
X114987935Y-79368659D01*
X114936272Y-79367859D01*
X114898853Y-79366359D01*
X114872898Y-79363941D01*
X114855630Y-79360386D01*
X114844270Y-79355474D01*
X114836040Y-79348987D01*
X114831525Y-79344330D01*
X114824729Y-79336081D01*
X114819420Y-79325861D01*
X114815414Y-79310992D01*
X114812529Y-79288794D01*
X114810582Y-79256585D01*
X114809389Y-79211688D01*
X114808769Y-79151420D01*
X114808537Y-79073103D01*
X114808508Y-79007186D01*
X114808579Y-78914820D01*
X114808916Y-78842309D01*
X114809706Y-78786929D01*
X114811134Y-78745957D01*
X114813387Y-78716670D01*
X114816651Y-78696345D01*
X114821112Y-78682258D01*
X114826956Y-78671687D01*
X114831905Y-78665003D01*
X114855302Y-78635259D01*
X115145482Y-78635259D01*
X115242051Y-78635452D01*
G36*
X116030017Y-78635467D02*
G01*
X116158996Y-78639828D01*
X116268699Y-78653053D01*
X116360934Y-78675933D01*
X116437510Y-78709262D01*
X116500235Y-78753830D01*
X116550920Y-78810428D01*
X116591371Y-78879850D01*
X116592167Y-78881543D01*
X116616309Y-78943675D01*
X116624911Y-78998701D01*
X116617939Y-79054079D01*
X116595362Y-79117265D01*
X116591080Y-79126881D01*
X116561880Y-79183158D01*
X116529064Y-79226643D01*
X116486710Y-79263609D01*
X116428898Y-79300327D01*
X116425539Y-79302244D01*
X116375212Y-79326419D01*
X116318329Y-79344474D01*
X116251235Y-79357031D01*
X116170273Y-79364714D01*
X116071790Y-79368145D01*
X116036994Y-79368443D01*
X115871302Y-79369037D01*
X115847905Y-79339292D01*
X115840965Y-79329511D01*
X115835550Y-79318089D01*
X115831473Y-79302287D01*
X115828545Y-79279367D01*
X115826575Y-79246588D01*
X115825933Y-79222281D01*
X115982552Y-79222281D01*
X116076434Y-79222281D01*
X116131372Y-79220675D01*
X116187768Y-79216447D01*
X116234053Y-79210484D01*
X116236847Y-79209982D01*
X116319056Y-79187928D01*
X116382822Y-79154792D01*
X116430160Y-79109039D01*
X116463090Y-79049131D01*
X116468816Y-79033253D01*
X116474429Y-79008525D01*
X116471999Y-78984094D01*
X116460175Y-78951592D01*
X116453048Y-78935626D01*
X116429708Y-78893198D01*
X116401588Y-78863432D01*
X116370648Y-78842703D01*
X116308674Y-78815729D01*
X116229359Y-78796190D01*
X116136961Y-78784938D01*
X116070041Y-78782462D01*
X115982552Y-78782014D01*
X115982552Y-79222281D01*
X115825933Y-79222281D01*
X115825376Y-79201213D01*
X115824758Y-79140503D01*
X115824533Y-79061718D01*
X115824508Y-79000112D01*
X115824508Y-78690677D01*
X115852217Y-78662968D01*
X115864514Y-78651736D01*
X115877811Y-78644045D01*
X115896380Y-78639232D01*
X115924494Y-78636638D01*
X115966425Y-78635602D01*
X116026445Y-78635462D01*
X116030017Y-78635467D01*
G37*
X116030017Y-78635467D02*
X116158996Y-78639828D01*
X116268699Y-78653053D01*
X116360934Y-78675933D01*
X116437510Y-78709262D01*
X116500235Y-78753830D01*
X116550920Y-78810428D01*
X116591371Y-78879850D01*
X116592167Y-78881543D01*
X116616309Y-78943675D01*
X116624911Y-78998701D01*
X116617939Y-79054079D01*
X116595362Y-79117265D01*
X116591080Y-79126881D01*
X116561880Y-79183158D01*
X116529064Y-79226643D01*
X116486710Y-79263609D01*
X116428898Y-79300327D01*
X116425539Y-79302244D01*
X116375212Y-79326419D01*
X116318329Y-79344474D01*
X116251235Y-79357031D01*
X116170273Y-79364714D01*
X116071790Y-79368145D01*
X116036994Y-79368443D01*
X115871302Y-79369037D01*
X115847905Y-79339292D01*
X115840965Y-79329511D01*
X115835550Y-79318089D01*
X115831473Y-79302287D01*
X115828545Y-79279367D01*
X115826575Y-79246588D01*
X115825933Y-79222281D01*
X115982552Y-79222281D01*
X116076434Y-79222281D01*
X116131372Y-79220675D01*
X116187768Y-79216447D01*
X116234053Y-79210484D01*
X116236847Y-79209982D01*
X116319056Y-79187928D01*
X116382822Y-79154792D01*
X116430160Y-79109039D01*
X116463090Y-79049131D01*
X116468816Y-79033253D01*
X116474429Y-79008525D01*
X116471999Y-78984094D01*
X116460175Y-78951592D01*
X116453048Y-78935626D01*
X116429708Y-78893198D01*
X116401588Y-78863432D01*
X116370648Y-78842703D01*
X116308674Y-78815729D01*
X116229359Y-78796190D01*
X116136961Y-78784938D01*
X116070041Y-78782462D01*
X115982552Y-78782014D01*
X115982552Y-79222281D01*
X115825933Y-79222281D01*
X115825376Y-79201213D01*
X115824758Y-79140503D01*
X115824533Y-79061718D01*
X115824508Y-79000112D01*
X115824508Y-78690677D01*
X115852217Y-78662968D01*
X115864514Y-78651736D01*
X115877811Y-78644045D01*
X115896380Y-78639232D01*
X115924494Y-78636638D01*
X115966425Y-78635602D01*
X116026445Y-78635462D01*
X116030017Y-78635467D01*
G36*
X118756373Y-78637226D02*
G01*
X118775963Y-78644227D01*
X118776718Y-78644569D01*
X118803321Y-78664870D01*
X118817978Y-78685753D01*
X118820846Y-78695544D01*
X118820704Y-78708553D01*
X118816669Y-78727087D01*
X118807854Y-78753449D01*
X118793377Y-78789944D01*
X118772353Y-78838879D01*
X118743896Y-78902557D01*
X118707123Y-78983285D01*
X118686883Y-79027408D01*
X118650333Y-79106177D01*
X118616023Y-79178615D01*
X118585260Y-79242072D01*
X118559356Y-79293900D01*
X118539618Y-79331451D01*
X118527358Y-79352076D01*
X118524932Y-79354925D01*
X118493891Y-79367494D01*
X118458829Y-79365811D01*
X118430708Y-79350524D01*
X118429562Y-79349281D01*
X118418376Y-79332346D01*
X118399612Y-79299362D01*
X118375583Y-79254572D01*
X118348605Y-79202224D01*
X118338909Y-79182934D01*
X118265722Y-79036342D01*
X118185948Y-79195585D01*
X118157475Y-79250607D01*
X118131058Y-79298324D01*
X118108856Y-79335085D01*
X118093027Y-79357236D01*
X118087662Y-79361933D01*
X118045965Y-79368294D01*
X118011557Y-79354925D01*
X118001436Y-79340638D01*
X117983922Y-79308884D01*
X117960443Y-79262789D01*
X117932428Y-79205477D01*
X117901307Y-79140072D01*
X117868507Y-79069699D01*
X117835458Y-78997483D01*
X117803589Y-78926547D01*
X117774327Y-78860017D01*
X117749103Y-78801018D01*
X117729344Y-78752673D01*
X117716480Y-78718107D01*
X117711939Y-78700445D01*
X117711985Y-78699805D01*
X117723034Y-78677580D01*
X117745118Y-78654945D01*
X117746418Y-78653960D01*
X117773561Y-78638617D01*
X117798666Y-78638766D01*
X117808076Y-78641658D01*
X117819542Y-78647910D01*
X117831718Y-78660206D01*
X117846065Y-78681100D01*
X117864044Y-78713141D01*
X117887115Y-78758880D01*
X117916738Y-78820869D01*
X117943453Y-78878090D01*
X117974188Y-78944418D01*
X118001729Y-79004066D01*
X118024646Y-79053917D01*
X118041506Y-79090856D01*
X118050881Y-79111765D01*
X118052248Y-79115037D01*
X118058397Y-79109689D01*
X118072530Y-79087301D01*
X118092765Y-79051138D01*
X118117223Y-79004469D01*
X118126956Y-78985214D01*
X118159925Y-78920196D01*
X118185351Y-78872846D01*
X118205320Y-78840411D01*
X118221918Y-78820138D01*
X118237232Y-78809274D01*
X118253348Y-78805067D01*
X118263851Y-78804592D01*
X118282378Y-78806234D01*
X118298612Y-78813023D01*
X118314743Y-78827758D01*
X118332959Y-78853236D01*
X118355447Y-78892253D01*
X118384397Y-78947606D01*
X118400370Y-78979095D01*
X118426278Y-79029279D01*
X118448875Y-79070896D01*
X118466166Y-79100434D01*
X118476158Y-79114381D01*
X118477517Y-79114962D01*
X118483969Y-79103985D01*
X118498416Y-79075482D01*
X118519411Y-79032436D01*
X118545505Y-78977830D01*
X118575254Y-78914646D01*
X118589888Y-78883263D01*
X118627958Y-78802270D01*
X118658613Y-78739948D01*
X118683445Y-78694263D01*
X118704045Y-78663181D01*
X118722006Y-78644670D01*
X118738918Y-78636696D01*
X118756373Y-78637226D01*
G37*
X118756373Y-78637226D02*
X118775963Y-78644227D01*
X118776718Y-78644569D01*
X118803321Y-78664870D01*
X118817978Y-78685753D01*
X118820846Y-78695544D01*
X118820704Y-78708553D01*
X118816669Y-78727087D01*
X118807854Y-78753449D01*
X118793377Y-78789944D01*
X118772353Y-78838879D01*
X118743896Y-78902557D01*
X118707123Y-78983285D01*
X118686883Y-79027408D01*
X118650333Y-79106177D01*
X118616023Y-79178615D01*
X118585260Y-79242072D01*
X118559356Y-79293900D01*
X118539618Y-79331451D01*
X118527358Y-79352076D01*
X118524932Y-79354925D01*
X118493891Y-79367494D01*
X118458829Y-79365811D01*
X118430708Y-79350524D01*
X118429562Y-79349281D01*
X118418376Y-79332346D01*
X118399612Y-79299362D01*
X118375583Y-79254572D01*
X118348605Y-79202224D01*
X118338909Y-79182934D01*
X118265722Y-79036342D01*
X118185948Y-79195585D01*
X118157475Y-79250607D01*
X118131058Y-79298324D01*
X118108856Y-79335085D01*
X118093027Y-79357236D01*
X118087662Y-79361933D01*
X118045965Y-79368294D01*
X118011557Y-79354925D01*
X118001436Y-79340638D01*
X117983922Y-79308884D01*
X117960443Y-79262789D01*
X117932428Y-79205477D01*
X117901307Y-79140072D01*
X117868507Y-79069699D01*
X117835458Y-78997483D01*
X117803589Y-78926547D01*
X117774327Y-78860017D01*
X117749103Y-78801018D01*
X117729344Y-78752673D01*
X117716480Y-78718107D01*
X117711939Y-78700445D01*
X117711985Y-78699805D01*
X117723034Y-78677580D01*
X117745118Y-78654945D01*
X117746418Y-78653960D01*
X117773561Y-78638617D01*
X117798666Y-78638766D01*
X117808076Y-78641658D01*
X117819542Y-78647910D01*
X117831718Y-78660206D01*
X117846065Y-78681100D01*
X117864044Y-78713141D01*
X117887115Y-78758880D01*
X117916738Y-78820869D01*
X117943453Y-78878090D01*
X117974188Y-78944418D01*
X118001729Y-79004066D01*
X118024646Y-79053917D01*
X118041506Y-79090856D01*
X118050881Y-79111765D01*
X118052248Y-79115037D01*
X118058397Y-79109689D01*
X118072530Y-79087301D01*
X118092765Y-79051138D01*
X118117223Y-79004469D01*
X118126956Y-78985214D01*
X118159925Y-78920196D01*
X118185351Y-78872846D01*
X118205320Y-78840411D01*
X118221918Y-78820138D01*
X118237232Y-78809274D01*
X118253348Y-78805067D01*
X118263851Y-78804592D01*
X118282378Y-78806234D01*
X118298612Y-78813023D01*
X118314743Y-78827758D01*
X118332959Y-78853236D01*
X118355447Y-78892253D01*
X118384397Y-78947606D01*
X118400370Y-78979095D01*
X118426278Y-79029279D01*
X118448875Y-79070896D01*
X118466166Y-79100434D01*
X118476158Y-79114381D01*
X118477517Y-79114962D01*
X118483969Y-79103985D01*
X118498416Y-79075482D01*
X118519411Y-79032436D01*
X118545505Y-78977830D01*
X118575254Y-78914646D01*
X118589888Y-78883263D01*
X118627958Y-78802270D01*
X118658613Y-78739948D01*
X118683445Y-78694263D01*
X118704045Y-78663181D01*
X118722006Y-78644670D01*
X118738918Y-78636696D01*
X118756373Y-78637226D01*
G36*
X119200322Y-78642069D02*
G01*
X119224035Y-78656839D01*
X119250686Y-78678419D01*
X119250686Y-78999965D01*
X119250601Y-79094022D01*
X119250237Y-79168124D01*
X119249432Y-79224896D01*
X119248021Y-79266960D01*
X119245841Y-79296940D01*
X119242729Y-79317459D01*
X119238522Y-79331141D01*
X119233056Y-79340608D01*
X119229180Y-79345274D01*
X119197742Y-79365767D01*
X119161941Y-79364931D01*
X119130581Y-79347456D01*
X119103930Y-79325876D01*
X119103930Y-78678419D01*
X119130581Y-78656839D01*
X119156302Y-78641141D01*
X119177308Y-78635259D01*
X119200322Y-78642069D01*
G37*
X119200322Y-78642069D02*
X119224035Y-78656839D01*
X119250686Y-78678419D01*
X119250686Y-78999965D01*
X119250601Y-79094022D01*
X119250237Y-79168124D01*
X119249432Y-79224896D01*
X119248021Y-79266960D01*
X119245841Y-79296940D01*
X119242729Y-79317459D01*
X119238522Y-79331141D01*
X119233056Y-79340608D01*
X119229180Y-79345274D01*
X119197742Y-79365767D01*
X119161941Y-79364931D01*
X119130581Y-79347456D01*
X119103930Y-79325876D01*
X119103930Y-78678419D01*
X119130581Y-78656839D01*
X119156302Y-78641141D01*
X119177308Y-78635259D01*
X119200322Y-78642069D01*
G36*
X119974773Y-78635355D02*
G01*
X120053480Y-78635734D01*
X120114571Y-78636525D01*
X120160525Y-78637862D01*
X120193822Y-78639875D01*
X120216944Y-78642698D01*
X120232370Y-78646461D01*
X120242579Y-78651297D01*
X120247521Y-78655014D01*
X120273165Y-78687550D01*
X120276267Y-78721330D01*
X120260419Y-78752018D01*
X120250056Y-78764281D01*
X120238904Y-78772642D01*
X120222743Y-78777849D01*
X120197350Y-78780649D01*
X120158506Y-78781788D01*
X120101988Y-78782013D01*
X120090888Y-78782014D01*
X119944952Y-78782014D01*
X119944952Y-79052948D01*
X119944856Y-79138346D01*
X119944419Y-79204056D01*
X119943420Y-79252966D01*
X119941636Y-79287965D01*
X119938845Y-79311941D01*
X119934825Y-79327785D01*
X119929353Y-79338383D01*
X119922374Y-79346459D01*
X119889442Y-79366304D01*
X119855062Y-79364740D01*
X119823884Y-79342098D01*
X119821594Y-79339292D01*
X119814137Y-79328684D01*
X119808455Y-79316273D01*
X119804309Y-79299042D01*
X119801458Y-79273976D01*
X119799662Y-79238059D01*
X119798680Y-79188275D01*
X119798272Y-79121609D01*
X119798197Y-79045781D01*
X119798197Y-78782014D01*
X119658835Y-78782014D01*
X119599030Y-78781610D01*
X119557626Y-78780032D01*
X119530456Y-78776739D01*
X119513354Y-78771184D01*
X119502151Y-78762823D01*
X119500791Y-78761370D01*
X119484433Y-78728131D01*
X119485880Y-78690554D01*
X119504686Y-78657837D01*
X119511958Y-78651490D01*
X119521335Y-78646458D01*
X119535317Y-78642588D01*
X119556404Y-78639729D01*
X119587097Y-78637727D01*
X119629897Y-78636431D01*
X119687303Y-78635690D01*
X119761818Y-78635350D01*
X119855941Y-78635260D01*
X119875968Y-78635259D01*
X119974773Y-78635355D01*
G37*
X119974773Y-78635355D02*
X120053480Y-78635734D01*
X120114571Y-78636525D01*
X120160525Y-78637862D01*
X120193822Y-78639875D01*
X120216944Y-78642698D01*
X120232370Y-78646461D01*
X120242579Y-78651297D01*
X120247521Y-78655014D01*
X120273165Y-78687550D01*
X120276267Y-78721330D01*
X120260419Y-78752018D01*
X120250056Y-78764281D01*
X120238904Y-78772642D01*
X120222743Y-78777849D01*
X120197350Y-78780649D01*
X120158506Y-78781788D01*
X120101988Y-78782013D01*
X120090888Y-78782014D01*
X119944952Y-78782014D01*
X119944952Y-79052948D01*
X119944856Y-79138346D01*
X119944419Y-79204056D01*
X119943420Y-79252966D01*
X119941636Y-79287965D01*
X119938845Y-79311941D01*
X119934825Y-79327785D01*
X119929353Y-79338383D01*
X119922374Y-79346459D01*
X119889442Y-79366304D01*
X119855062Y-79364740D01*
X119823884Y-79342098D01*
X119821594Y-79339292D01*
X119814137Y-79328684D01*
X119808455Y-79316273D01*
X119804309Y-79299042D01*
X119801458Y-79273976D01*
X119799662Y-79238059D01*
X119798680Y-79188275D01*
X119798272Y-79121609D01*
X119798197Y-79045781D01*
X119798197Y-78782014D01*
X119658835Y-78782014D01*
X119599030Y-78781610D01*
X119557626Y-78780032D01*
X119530456Y-78776739D01*
X119513354Y-78771184D01*
X119502151Y-78762823D01*
X119500791Y-78761370D01*
X119484433Y-78728131D01*
X119485880Y-78690554D01*
X119504686Y-78657837D01*
X119511958Y-78651490D01*
X119521335Y-78646458D01*
X119535317Y-78642588D01*
X119556404Y-78639729D01*
X119587097Y-78637727D01*
X119629897Y-78636431D01*
X119687303Y-78635690D01*
X119761818Y-78635350D01*
X119855941Y-78635260D01*
X119875968Y-78635259D01*
X119974773Y-78635355D01*
G36*
X121240531Y-78640725D02*
G01*
X121271910Y-78662968D01*
X121299619Y-78690677D01*
X121299619Y-79000112D01*
X121299546Y-79091991D01*
X121299203Y-79164032D01*
X121298400Y-79218972D01*
X121296949Y-79259552D01*
X121294660Y-79288509D01*
X121291344Y-79308583D01*
X121286813Y-79322513D01*
X121280877Y-79333037D01*
X121276222Y-79339292D01*
X121245491Y-79363865D01*
X121210204Y-79366533D01*
X121177953Y-79351463D01*
X121167296Y-79342566D01*
X121160172Y-79330749D01*
X121155875Y-79311718D01*
X121153699Y-79281184D01*
X121152936Y-79234854D01*
X121152863Y-79199063D01*
X121152863Y-79064237D01*
X120656152Y-79064237D01*
X120656152Y-79186892D01*
X120655639Y-79242979D01*
X120653584Y-79281525D01*
X120649216Y-79307553D01*
X120641764Y-79326089D01*
X120632755Y-79339292D01*
X120601852Y-79363796D01*
X120566904Y-79366698D01*
X120533446Y-79349281D01*
X120524312Y-79340151D01*
X120517860Y-79328047D01*
X120513605Y-79309193D01*
X120511060Y-79279812D01*
X120509737Y-79236129D01*
X120509151Y-79174367D01*
X120509083Y-79160192D01*
X120508599Y-79043823D01*
X120508349Y-78947919D01*
X120508431Y-78870369D01*
X120508939Y-78809061D01*
X120509970Y-78761882D01*
X120511621Y-78726722D01*
X120513987Y-78701468D01*
X120517165Y-78684009D01*
X120521252Y-78672233D01*
X120526342Y-78664027D01*
X120531974Y-78657837D01*
X120563836Y-78638036D01*
X120597065Y-78640725D01*
X120628443Y-78662968D01*
X120641141Y-78677318D01*
X120649234Y-78693170D01*
X120653750Y-78715746D01*
X120655714Y-78750270D01*
X120656152Y-78801968D01*
X120656152Y-78917481D01*
X121152863Y-78917481D01*
X121152863Y-78798948D01*
X121153370Y-78744340D01*
X121155406Y-78707467D01*
X121159743Y-78683499D01*
X121167155Y-78667607D01*
X121175441Y-78657837D01*
X121207302Y-78638036D01*
X121240531Y-78640725D01*
G37*
X121240531Y-78640725D02*
X121271910Y-78662968D01*
X121299619Y-78690677D01*
X121299619Y-79000112D01*
X121299546Y-79091991D01*
X121299203Y-79164032D01*
X121298400Y-79218972D01*
X121296949Y-79259552D01*
X121294660Y-79288509D01*
X121291344Y-79308583D01*
X121286813Y-79322513D01*
X121280877Y-79333037D01*
X121276222Y-79339292D01*
X121245491Y-79363865D01*
X121210204Y-79366533D01*
X121177953Y-79351463D01*
X121167296Y-79342566D01*
X121160172Y-79330749D01*
X121155875Y-79311718D01*
X121153699Y-79281184D01*
X121152936Y-79234854D01*
X121152863Y-79199063D01*
X121152863Y-79064237D01*
X120656152Y-79064237D01*
X120656152Y-79186892D01*
X120655639Y-79242979D01*
X120653584Y-79281525D01*
X120649216Y-79307553D01*
X120641764Y-79326089D01*
X120632755Y-79339292D01*
X120601852Y-79363796D01*
X120566904Y-79366698D01*
X120533446Y-79349281D01*
X120524312Y-79340151D01*
X120517860Y-79328047D01*
X120513605Y-79309193D01*
X120511060Y-79279812D01*
X120509737Y-79236129D01*
X120509151Y-79174367D01*
X120509083Y-79160192D01*
X120508599Y-79043823D01*
X120508349Y-78947919D01*
X120508431Y-78870369D01*
X120508939Y-78809061D01*
X120509970Y-78761882D01*
X120511621Y-78726722D01*
X120513987Y-78701468D01*
X120517165Y-78684009D01*
X120521252Y-78672233D01*
X120526342Y-78664027D01*
X120531974Y-78657837D01*
X120563836Y-78638036D01*
X120597065Y-78640725D01*
X120628443Y-78662968D01*
X120641141Y-78677318D01*
X120649234Y-78693170D01*
X120653750Y-78715746D01*
X120655714Y-78750270D01*
X120656152Y-78801968D01*
X120656152Y-78917481D01*
X121152863Y-78917481D01*
X121152863Y-78798948D01*
X121153370Y-78744340D01*
X121155406Y-78707467D01*
X121159743Y-78683499D01*
X121167155Y-78667607D01*
X121175441Y-78657837D01*
X121207302Y-78638036D01*
X121240531Y-78640725D01*
G36*
X112273921Y-72036490D02*
G01*
X112377027Y-72072238D01*
X112473022Y-72128507D01*
X112558753Y-72205288D01*
X112631070Y-72302573D01*
X112663555Y-72363892D01*
X112691668Y-72449660D01*
X112705295Y-72548677D01*
X112703786Y-72650471D01*
X112687031Y-72742714D01*
X112641237Y-72855432D01*
X112574832Y-72953207D01*
X112491191Y-73034115D01*
X112393688Y-73096232D01*
X112285700Y-73137634D01*
X112170601Y-73156397D01*
X112051766Y-73150598D01*
X111993189Y-73138206D01*
X111879028Y-73093797D01*
X111777635Y-73026033D01*
X111691455Y-72937001D01*
X111622934Y-72828791D01*
X111617136Y-72816973D01*
X111597096Y-72772628D01*
X111584513Y-72735280D01*
X111577681Y-72695880D01*
X111574895Y-72645381D01*
X111574432Y-72590433D01*
X111575197Y-72524415D01*
X111578648Y-72476689D01*
X111586523Y-72438103D01*
X111600557Y-72399506D01*
X111617880Y-72361426D01*
X111682495Y-72253328D01*
X111762066Y-72165803D01*
X111853440Y-72098841D01*
X111953464Y-72052436D01*
X112058988Y-72026581D01*
X112166858Y-72021268D01*
X112273921Y-72036490D01*
G37*
X112273921Y-72036490D02*
X112377027Y-72072238D01*
X112473022Y-72128507D01*
X112558753Y-72205288D01*
X112631070Y-72302573D01*
X112663555Y-72363892D01*
X112691668Y-72449660D01*
X112705295Y-72548677D01*
X112703786Y-72650471D01*
X112687031Y-72742714D01*
X112641237Y-72855432D01*
X112574832Y-72953207D01*
X112491191Y-73034115D01*
X112393688Y-73096232D01*
X112285700Y-73137634D01*
X112170601Y-73156397D01*
X112051766Y-73150598D01*
X111993189Y-73138206D01*
X111879028Y-73093797D01*
X111777635Y-73026033D01*
X111691455Y-72937001D01*
X111622934Y-72828791D01*
X111617136Y-72816973D01*
X111597096Y-72772628D01*
X111584513Y-72735280D01*
X111577681Y-72695880D01*
X111574895Y-72645381D01*
X111574432Y-72590433D01*
X111575197Y-72524415D01*
X111578648Y-72476689D01*
X111586523Y-72438103D01*
X111600557Y-72399506D01*
X111617880Y-72361426D01*
X111682495Y-72253328D01*
X111762066Y-72165803D01*
X111853440Y-72098841D01*
X111953464Y-72052436D01*
X112058988Y-72026581D01*
X112166858Y-72021268D01*
X112273921Y-72036490D01*
G36*
X121842270Y-72956825D02*
G01*
X121959041Y-72957304D01*
X121998729Y-72957545D01*
X122544486Y-72961135D01*
X122551351Y-75054919D01*
X122552258Y-75338842D01*
X122553062Y-75596640D01*
X122553815Y-75829646D01*
X122554569Y-76039194D01*
X122555375Y-76226618D01*
X122556285Y-76393250D01*
X122557351Y-76540425D01*
X122558624Y-76669477D01*
X122560156Y-76781739D01*
X122561998Y-76878544D01*
X122564203Y-76961226D01*
X122566822Y-77031119D01*
X122569906Y-77089557D01*
X122573508Y-77137872D01*
X122577678Y-77177400D01*
X122582469Y-77209473D01*
X122587931Y-77235424D01*
X122594118Y-77256589D01*
X122601080Y-77274299D01*
X122608869Y-77289889D01*
X122617537Y-77304693D01*
X122627135Y-77320044D01*
X122637715Y-77337276D01*
X122639884Y-77340946D01*
X122676268Y-77403031D01*
X122150431Y-77399434D01*
X121624594Y-77395838D01*
X121617729Y-77280331D01*
X121613992Y-77224899D01*
X121610097Y-77192851D01*
X121604811Y-77180135D01*
X121596903Y-77182696D01*
X121590270Y-77190024D01*
X121561374Y-77216714D01*
X121514279Y-77251021D01*
X121455620Y-77288846D01*
X121392031Y-77326090D01*
X121330149Y-77358653D01*
X121282634Y-77380077D01*
X121171316Y-77415283D01*
X121043596Y-77440222D01*
X120908901Y-77453941D01*
X120776663Y-77455486D01*
X120656308Y-77443906D01*
X120654326Y-77443574D01*
X120489641Y-77402250D01*
X120335479Y-77336412D01*
X120193328Y-77247474D01*
X120064675Y-77136852D01*
X119951007Y-77005961D01*
X119853810Y-76856216D01*
X119774572Y-76689033D01*
X119731430Y-76565190D01*
X119702979Y-76461581D01*
X119681880Y-76361252D01*
X119667488Y-76258109D01*
X119659158Y-76146057D01*
X119656245Y-76019001D01*
X119657535Y-75915252D01*
X120670650Y-75915252D01*
X120675444Y-76089222D01*
X120690568Y-76238895D01*
X120716485Y-76365597D01*
X120753663Y-76470658D01*
X120802565Y-76555406D01*
X120863658Y-76621169D01*
X120934177Y-76667659D01*
X120970871Y-76685014D01*
X121002696Y-76695419D01*
X121038177Y-76700179D01*
X121085841Y-76700601D01*
X121137189Y-76698748D01*
X121238169Y-76689841D01*
X121318035Y-76672398D01*
X121343135Y-76663661D01*
X121400448Y-76637857D01*
X121460897Y-76605453D01*
X121487297Y-76589233D01*
X121555946Y-76544205D01*
X121555946Y-75116982D01*
X121480432Y-75071718D01*
X121375121Y-75020572D01*
X121267525Y-74990324D01*
X121161581Y-74980795D01*
X121061224Y-74991807D01*
X120970387Y-75023181D01*
X120893007Y-75074740D01*
X120868039Y-75099488D01*
X120807856Y-75180577D01*
X120759145Y-75278734D01*
X120721499Y-75395643D01*
X120694512Y-75532985D01*
X120677775Y-75692444D01*
X120670883Y-75875700D01*
X120670650Y-75915252D01*
X119657535Y-75915252D01*
X119658073Y-75872067D01*
X119669647Y-75646053D01*
X119692920Y-75442192D01*
X119728504Y-75257513D01*
X119777013Y-75089048D01*
X119839060Y-74933826D01*
X119861201Y-74887808D01*
X119950385Y-74737739D01*
X120058159Y-74604377D01*
X120181990Y-74489877D01*
X120319342Y-74396389D01*
X120467683Y-74326068D01*
X120556604Y-74297060D01*
X120643933Y-74279840D01*
X120749011Y-74269594D01*
X120863029Y-74266318D01*
X120977177Y-74270009D01*
X121082648Y-74280660D01*
X121167334Y-74297370D01*
X121268128Y-74330140D01*
X121365822Y-74372279D01*
X121451296Y-74419519D01*
X121496789Y-74451581D01*
X121528169Y-74475422D01*
X121550142Y-74489939D01*
X121555141Y-74492000D01*
X121556690Y-74478718D01*
X121558135Y-74440663D01*
X121559443Y-74380519D01*
X121560583Y-74300973D01*
X121561521Y-74204711D01*
X121562226Y-74094419D01*
X121562667Y-73972781D01*
X121562811Y-73848885D01*
X121562730Y-73690196D01*
X121562335Y-73556408D01*
X121561395Y-73444960D01*
X121559680Y-73353295D01*
X121556957Y-73278853D01*
X121552997Y-73219075D01*
X121547569Y-73171402D01*
X121540441Y-73133274D01*
X121531384Y-73102134D01*
X121520167Y-73075421D01*
X121506558Y-73050577D01*
X121490328Y-73025043D01*
X121488240Y-73021881D01*
X121467306Y-72988810D01*
X121454667Y-72966069D01*
X121452973Y-72961272D01*
X121466216Y-72959759D01*
X121504002Y-72958528D01*
X121563416Y-72957599D01*
X121641542Y-72956992D01*
X121735465Y-72956727D01*
X121842270Y-72956825D01*
G37*
X121842270Y-72956825D02*
X121959041Y-72957304D01*
X121998729Y-72957545D01*
X122544486Y-72961135D01*
X122551351Y-75054919D01*
X122552258Y-75338842D01*
X122553062Y-75596640D01*
X122553815Y-75829646D01*
X122554569Y-76039194D01*
X122555375Y-76226618D01*
X122556285Y-76393250D01*
X122557351Y-76540425D01*
X122558624Y-76669477D01*
X122560156Y-76781739D01*
X122561998Y-76878544D01*
X122564203Y-76961226D01*
X122566822Y-77031119D01*
X122569906Y-77089557D01*
X122573508Y-77137872D01*
X122577678Y-77177400D01*
X122582469Y-77209473D01*
X122587931Y-77235424D01*
X122594118Y-77256589D01*
X122601080Y-77274299D01*
X122608869Y-77289889D01*
X122617537Y-77304693D01*
X122627135Y-77320044D01*
X122637715Y-77337276D01*
X122639884Y-77340946D01*
X122676268Y-77403031D01*
X122150431Y-77399434D01*
X121624594Y-77395838D01*
X121617729Y-77280331D01*
X121613992Y-77224899D01*
X121610097Y-77192851D01*
X121604811Y-77180135D01*
X121596903Y-77182696D01*
X121590270Y-77190024D01*
X121561374Y-77216714D01*
X121514279Y-77251021D01*
X121455620Y-77288846D01*
X121392031Y-77326090D01*
X121330149Y-77358653D01*
X121282634Y-77380077D01*
X121171316Y-77415283D01*
X121043596Y-77440222D01*
X120908901Y-77453941D01*
X120776663Y-77455486D01*
X120656308Y-77443906D01*
X120654326Y-77443574D01*
X120489641Y-77402250D01*
X120335479Y-77336412D01*
X120193328Y-77247474D01*
X120064675Y-77136852D01*
X119951007Y-77005961D01*
X119853810Y-76856216D01*
X119774572Y-76689033D01*
X119731430Y-76565190D01*
X119702979Y-76461581D01*
X119681880Y-76361252D01*
X119667488Y-76258109D01*
X119659158Y-76146057D01*
X119656245Y-76019001D01*
X119657535Y-75915252D01*
X120670650Y-75915252D01*
X120675444Y-76089222D01*
X120690568Y-76238895D01*
X120716485Y-76365597D01*
X120753663Y-76470658D01*
X120802565Y-76555406D01*
X120863658Y-76621169D01*
X120934177Y-76667659D01*
X120970871Y-76685014D01*
X121002696Y-76695419D01*
X121038177Y-76700179D01*
X121085841Y-76700601D01*
X121137189Y-76698748D01*
X121238169Y-76689841D01*
X121318035Y-76672398D01*
X121343135Y-76663661D01*
X121400448Y-76637857D01*
X121460897Y-76605453D01*
X121487297Y-76589233D01*
X121555946Y-76544205D01*
X121555946Y-75116982D01*
X121480432Y-75071718D01*
X121375121Y-75020572D01*
X121267525Y-74990324D01*
X121161581Y-74980795D01*
X121061224Y-74991807D01*
X120970387Y-75023181D01*
X120893007Y-75074740D01*
X120868039Y-75099488D01*
X120807856Y-75180577D01*
X120759145Y-75278734D01*
X120721499Y-75395643D01*
X120694512Y-75532985D01*
X120677775Y-75692444D01*
X120670883Y-75875700D01*
X120670650Y-75915252D01*
X119657535Y-75915252D01*
X119658073Y-75872067D01*
X119669647Y-75646053D01*
X119692920Y-75442192D01*
X119728504Y-75257513D01*
X119777013Y-75089048D01*
X119839060Y-74933826D01*
X119861201Y-74887808D01*
X119950385Y-74737739D01*
X120058159Y-74604377D01*
X120181990Y-74489877D01*
X120319342Y-74396389D01*
X120467683Y-74326068D01*
X120556604Y-74297060D01*
X120643933Y-74279840D01*
X120749011Y-74269594D01*
X120863029Y-74266318D01*
X120977177Y-74270009D01*
X121082648Y-74280660D01*
X121167334Y-74297370D01*
X121268128Y-74330140D01*
X121365822Y-74372279D01*
X121451296Y-74419519D01*
X121496789Y-74451581D01*
X121528169Y-74475422D01*
X121550142Y-74489939D01*
X121555141Y-74492000D01*
X121556690Y-74478718D01*
X121558135Y-74440663D01*
X121559443Y-74380519D01*
X121560583Y-74300973D01*
X121561521Y-74204711D01*
X121562226Y-74094419D01*
X121562667Y-73972781D01*
X121562811Y-73848885D01*
X121562730Y-73690196D01*
X121562335Y-73556408D01*
X121561395Y-73444960D01*
X121559680Y-73353295D01*
X121556957Y-73278853D01*
X121552997Y-73219075D01*
X121547569Y-73171402D01*
X121540441Y-73133274D01*
X121531384Y-73102134D01*
X121520167Y-73075421D01*
X121506558Y-73050577D01*
X121490328Y-73025043D01*
X121488240Y-73021881D01*
X121467306Y-72988810D01*
X121454667Y-72966069D01*
X121452973Y-72961272D01*
X121466216Y-72959759D01*
X121504002Y-72958528D01*
X121563416Y-72957599D01*
X121641542Y-72956992D01*
X121735465Y-72956727D01*
X121842270Y-72956825D01*
G36*
X118167505Y-74264229D02*
G01*
X118235531Y-74269378D01*
X118430163Y-74295273D01*
X118602529Y-74336575D01*
X118753470Y-74393853D01*
X118883825Y-74467674D01*
X118994434Y-74558608D01*
X119086135Y-74667222D01*
X119159770Y-74794085D01*
X119213539Y-74931352D01*
X119227187Y-74975137D01*
X119239073Y-75016141D01*
X119249334Y-75056569D01*
X119258113Y-75098630D01*
X119265548Y-75144531D01*
X119271780Y-75196480D01*
X119276950Y-75256685D01*
X119281196Y-75327352D01*
X119284660Y-75410689D01*
X119287481Y-75508905D01*
X119289800Y-75624205D01*
X119291757Y-75758799D01*
X119293491Y-75914893D01*
X119295143Y-76094695D01*
X119296324Y-76235676D01*
X119304270Y-77203622D01*
X119355756Y-77296770D01*
X119380137Y-77341645D01*
X119398280Y-77376501D01*
X119406935Y-77395054D01*
X119407243Y-77396311D01*
X119394014Y-77397749D01*
X119356326Y-77399074D01*
X119297183Y-77400249D01*
X119219586Y-77401237D01*
X119126536Y-77401999D01*
X119021035Y-77402500D01*
X118906084Y-77402701D01*
X118892378Y-77402703D01*
X118377513Y-77402703D01*
X118377513Y-77286000D01*
X118376635Y-77233260D01*
X118374292Y-77192926D01*
X118370921Y-77171300D01*
X118369431Y-77169298D01*
X118355804Y-77177683D01*
X118327757Y-77199692D01*
X118291303Y-77230601D01*
X118290485Y-77231316D01*
X118223962Y-77280843D01*
X118139948Y-77330575D01*
X118047937Y-77375626D01*
X117957421Y-77411110D01*
X117917567Y-77423236D01*
X117838255Y-77438637D01*
X117740935Y-77448465D01*
X117634516Y-77452580D01*
X117527907Y-77450841D01*
X117430017Y-77443108D01*
X117361513Y-77431981D01*
X117193520Y-77382648D01*
X117042281Y-77312342D01*
X116908782Y-77221933D01*
X116794006Y-77112295D01*
X116698937Y-76984299D01*
X116624560Y-76838818D01*
X116592474Y-76750541D01*
X116572365Y-76664739D01*
X116559038Y-76561736D01*
X116552872Y-76451034D01*
X116553074Y-76434925D01*
X117481648Y-76434925D01*
X117489348Y-76517184D01*
X117514989Y-76585546D01*
X117562378Y-76648970D01*
X117580579Y-76667567D01*
X117645282Y-76717846D01*
X117720066Y-76750056D01*
X117809662Y-76765648D01*
X117904012Y-76766796D01*
X117993501Y-76759216D01*
X118062018Y-76744389D01*
X118091775Y-76733253D01*
X118145408Y-76702904D01*
X118202235Y-76660221D01*
X118254082Y-76612317D01*
X118292778Y-76566301D01*
X118303054Y-76549421D01*
X118311042Y-76525782D01*
X118316721Y-76488168D01*
X118320356Y-76432985D01*
X118322211Y-76356640D01*
X118322594Y-76283981D01*
X118322335Y-76199270D01*
X118321287Y-76138018D01*
X118319045Y-76096227D01*
X118315206Y-76069899D01*
X118309365Y-76055035D01*
X118301118Y-76047639D01*
X118298567Y-76046461D01*
X118276400Y-76042833D01*
X118232680Y-76039866D01*
X118173311Y-76037827D01*
X118104196Y-76036983D01*
X118089189Y-76036982D01*
X117996805Y-76038457D01*
X117925432Y-76042842D01*
X117868719Y-76050738D01*
X117821872Y-76062270D01*
X117705669Y-76106215D01*
X117614543Y-76160243D01*
X117547705Y-76225219D01*
X117504365Y-76302005D01*
X117483734Y-76391467D01*
X117481648Y-76434925D01*
X116553074Y-76434925D01*
X116554244Y-76342133D01*
X116563532Y-76244536D01*
X116570777Y-76205105D01*
X116617039Y-76058701D01*
X116687384Y-75923995D01*
X116780484Y-75802280D01*
X116895012Y-75694847D01*
X117029640Y-75602988D01*
X117183040Y-75527996D01*
X117313459Y-75482458D01*
X117400623Y-75458533D01*
X117483996Y-75439943D01*
X117568976Y-75426084D01*
X117660965Y-75416351D01*
X117765362Y-75410141D01*
X117887568Y-75406851D01*
X117998055Y-75405924D01*
X118325677Y-75405027D01*
X118319401Y-75306547D01*
X118301579Y-75199695D01*
X118263667Y-75107852D01*
X118207280Y-75033310D01*
X118134031Y-74978364D01*
X118069535Y-74951552D01*
X117977123Y-74934654D01*
X117867111Y-74932227D01*
X117744656Y-74943378D01*
X117614914Y-74967210D01*
X117483042Y-75002830D01*
X117354198Y-75049343D01*
X117260566Y-75091883D01*
X117215517Y-75113728D01*
X117181156Y-75128984D01*
X117163681Y-75134937D01*
X117162733Y-75134746D01*
X117156703Y-75121412D01*
X117141645Y-75086068D01*
X117118977Y-75032101D01*
X117090115Y-74962896D01*
X117056477Y-74881840D01*
X117022284Y-74799118D01*
X116885586Y-74467803D01*
X116982820Y-74451833D01*
X117024964Y-74443820D01*
X117088319Y-74430361D01*
X117167457Y-74412679D01*
X117256951Y-74391996D01*
X117351373Y-74369532D01*
X117388973Y-74360403D01*
X117551637Y-74322674D01*
X117694050Y-74294388D01*
X117821527Y-74274972D01*
X117939384Y-74263854D01*
X118052938Y-74260464D01*
X118167505Y-74264229D01*
G37*
X118167505Y-74264229D02*
X118235531Y-74269378D01*
X118430163Y-74295273D01*
X118602529Y-74336575D01*
X118753470Y-74393853D01*
X118883825Y-74467674D01*
X118994434Y-74558608D01*
X119086135Y-74667222D01*
X119159770Y-74794085D01*
X119213539Y-74931352D01*
X119227187Y-74975137D01*
X119239073Y-75016141D01*
X119249334Y-75056569D01*
X119258113Y-75098630D01*
X119265548Y-75144531D01*
X119271780Y-75196480D01*
X119276950Y-75256685D01*
X119281196Y-75327352D01*
X119284660Y-75410689D01*
X119287481Y-75508905D01*
X119289800Y-75624205D01*
X119291757Y-75758799D01*
X119293491Y-75914893D01*
X119295143Y-76094695D01*
X119296324Y-76235676D01*
X119304270Y-77203622D01*
X119355756Y-77296770D01*
X119380137Y-77341645D01*
X119398280Y-77376501D01*
X119406935Y-77395054D01*
X119407243Y-77396311D01*
X119394014Y-77397749D01*
X119356326Y-77399074D01*
X119297183Y-77400249D01*
X119219586Y-77401237D01*
X119126536Y-77401999D01*
X119021035Y-77402500D01*
X118906084Y-77402701D01*
X118892378Y-77402703D01*
X118377513Y-77402703D01*
X118377513Y-77286000D01*
X118376635Y-77233260D01*
X118374292Y-77192926D01*
X118370921Y-77171300D01*
X118369431Y-77169298D01*
X118355804Y-77177683D01*
X118327757Y-77199692D01*
X118291303Y-77230601D01*
X118290485Y-77231316D01*
X118223962Y-77280843D01*
X118139948Y-77330575D01*
X118047937Y-77375626D01*
X117957421Y-77411110D01*
X117917567Y-77423236D01*
X117838255Y-77438637D01*
X117740935Y-77448465D01*
X117634516Y-77452580D01*
X117527907Y-77450841D01*
X117430017Y-77443108D01*
X117361513Y-77431981D01*
X117193520Y-77382648D01*
X117042281Y-77312342D01*
X116908782Y-77221933D01*
X116794006Y-77112295D01*
X116698937Y-76984299D01*
X116624560Y-76838818D01*
X116592474Y-76750541D01*
X116572365Y-76664739D01*
X116559038Y-76561736D01*
X116552872Y-76451034D01*
X116553074Y-76434925D01*
X117481648Y-76434925D01*
X117489348Y-76517184D01*
X117514989Y-76585546D01*
X117562378Y-76648970D01*
X117580579Y-76667567D01*
X117645282Y-76717846D01*
X117720066Y-76750056D01*
X117809662Y-76765648D01*
X117904012Y-76766796D01*
X117993501Y-76759216D01*
X118062018Y-76744389D01*
X118091775Y-76733253D01*
X118145408Y-76702904D01*
X118202235Y-76660221D01*
X118254082Y-76612317D01*
X118292778Y-76566301D01*
X118303054Y-76549421D01*
X118311042Y-76525782D01*
X118316721Y-76488168D01*
X118320356Y-76432985D01*
X118322211Y-76356640D01*
X118322594Y-76283981D01*
X118322335Y-76199270D01*
X118321287Y-76138018D01*
X118319045Y-76096227D01*
X118315206Y-76069899D01*
X118309365Y-76055035D01*
X118301118Y-76047639D01*
X118298567Y-76046461D01*
X118276400Y-76042833D01*
X118232680Y-76039866D01*
X118173311Y-76037827D01*
X118104196Y-76036983D01*
X118089189Y-76036982D01*
X117996805Y-76038457D01*
X117925432Y-76042842D01*
X117868719Y-76050738D01*
X117821872Y-76062270D01*
X117705669Y-76106215D01*
X117614543Y-76160243D01*
X117547705Y-76225219D01*
X117504365Y-76302005D01*
X117483734Y-76391467D01*
X117481648Y-76434925D01*
X116553074Y-76434925D01*
X116554244Y-76342133D01*
X116563532Y-76244536D01*
X116570777Y-76205105D01*
X116617039Y-76058701D01*
X116687384Y-75923995D01*
X116780484Y-75802280D01*
X116895012Y-75694847D01*
X117029640Y-75602988D01*
X117183040Y-75527996D01*
X117313459Y-75482458D01*
X117400623Y-75458533D01*
X117483996Y-75439943D01*
X117568976Y-75426084D01*
X117660965Y-75416351D01*
X117765362Y-75410141D01*
X117887568Y-75406851D01*
X117998055Y-75405924D01*
X118325677Y-75405027D01*
X118319401Y-75306547D01*
X118301579Y-75199695D01*
X118263667Y-75107852D01*
X118207280Y-75033310D01*
X118134031Y-74978364D01*
X118069535Y-74951552D01*
X117977123Y-74934654D01*
X117867111Y-74932227D01*
X117744656Y-74943378D01*
X117614914Y-74967210D01*
X117483042Y-75002830D01*
X117354198Y-75049343D01*
X117260566Y-75091883D01*
X117215517Y-75113728D01*
X117181156Y-75128984D01*
X117163681Y-75134937D01*
X117162733Y-75134746D01*
X117156703Y-75121412D01*
X117141645Y-75086068D01*
X117118977Y-75032101D01*
X117090115Y-74962896D01*
X117056477Y-74881840D01*
X117022284Y-74799118D01*
X116885586Y-74467803D01*
X116982820Y-74451833D01*
X117024964Y-74443820D01*
X117088319Y-74430361D01*
X117167457Y-74412679D01*
X117256951Y-74391996D01*
X117351373Y-74369532D01*
X117388973Y-74360403D01*
X117551637Y-74322674D01*
X117694050Y-74294388D01*
X117821527Y-74274972D01*
X117939384Y-74263854D01*
X118052938Y-74260464D01*
X118167505Y-74264229D01*
G36*
X115439962Y-73160499D02*
G01*
X115588014Y-73176707D01*
X115731452Y-73205718D01*
X115876110Y-73249045D01*
X116027824Y-73308201D01*
X116192428Y-73384700D01*
X116222071Y-73399517D01*
X116290098Y-73433031D01*
X116354256Y-73463208D01*
X116408215Y-73487166D01*
X116445640Y-73502024D01*
X116451389Y-73503895D01*
X116506486Y-73520402D01*
X116259851Y-73879201D01*
X116199552Y-73966893D01*
X116144422Y-74047012D01*
X116096336Y-74116836D01*
X116057168Y-74173647D01*
X116028794Y-74214723D01*
X116013087Y-74237346D01*
X116010536Y-74240928D01*
X116000171Y-74233438D01*
X115974660Y-74210918D01*
X115938563Y-74177461D01*
X115918642Y-74158550D01*
X115805773Y-74068778D01*
X115679014Y-74000561D01*
X115569783Y-73963195D01*
X115504214Y-73951460D01*
X115422116Y-73944308D01*
X115333144Y-73941874D01*
X115246956Y-73944288D01*
X115173205Y-73951683D01*
X115143776Y-73957347D01*
X115011133Y-74002982D01*
X114891606Y-74072663D01*
X114785283Y-74166260D01*
X114692253Y-74283649D01*
X114612605Y-74424700D01*
X114546426Y-74589286D01*
X114493806Y-74777280D01*
X114462533Y-74938217D01*
X114454374Y-75009263D01*
X114448815Y-75101046D01*
X114445802Y-75206968D01*
X114445281Y-75320434D01*
X114447200Y-75434849D01*
X114451503Y-75543617D01*
X114458137Y-75640143D01*
X114467049Y-75717831D01*
X114468979Y-75729817D01*
X114511499Y-75922892D01*
X114569433Y-76093773D01*
X114643133Y-76243224D01*
X114732951Y-76372011D01*
X114796707Y-76441639D01*
X114911286Y-76536173D01*
X115036942Y-76606246D01*
X115171557Y-76651477D01*
X115313011Y-76671484D01*
X115459183Y-76665885D01*
X115607955Y-76634300D01*
X115695911Y-76603394D01*
X115817629Y-76541506D01*
X115943080Y-76452729D01*
X116013353Y-76392694D01*
X116052811Y-76357947D01*
X116083812Y-76332454D01*
X116101458Y-76320170D01*
X116103648Y-76319795D01*
X116111524Y-76332347D01*
X116131932Y-76365516D01*
X116163132Y-76416458D01*
X116203386Y-76482331D01*
X116250957Y-76560289D01*
X116304104Y-76647490D01*
X116333687Y-76696067D01*
X116559648Y-77067215D01*
X116277527Y-77206639D01*
X116175522Y-77256719D01*
X116092889Y-77296210D01*
X116024578Y-77327073D01*
X115965537Y-77351268D01*
X115910714Y-77370758D01*
X115855060Y-77387503D01*
X115793523Y-77403465D01*
X115734540Y-77417482D01*
X115682115Y-77428329D01*
X115627288Y-77436526D01*
X115564572Y-77442528D01*
X115488477Y-77446790D01*
X115393516Y-77449767D01*
X115329513Y-77451052D01*
X115238192Y-77451930D01*
X115150627Y-77451487D01*
X115072612Y-77449852D01*
X115009942Y-77447149D01*
X114968413Y-77443505D01*
X114965952Y-77443142D01*
X114750303Y-77396487D01*
X114547793Y-77325729D01*
X114358495Y-77230914D01*
X114182479Y-77112089D01*
X114019816Y-76969300D01*
X113870578Y-76802594D01*
X113762496Y-76654433D01*
X113647434Y-76460502D01*
X113554423Y-76255699D01*
X113483013Y-76038383D01*
X113432756Y-75806912D01*
X113403201Y-75559643D01*
X113393889Y-75308559D01*
X113401548Y-75065670D01*
X113425613Y-74841570D01*
X113466852Y-74632477D01*
X113526027Y-74434613D01*
X113603904Y-74244196D01*
X113613203Y-74224468D01*
X113715648Y-74040059D01*
X113841472Y-73864576D01*
X113987112Y-73701650D01*
X114149001Y-73554914D01*
X114323576Y-73428001D01*
X114486244Y-73334905D01*
X114650573Y-73261991D01*
X114815251Y-73209174D01*
X114986652Y-73175015D01*
X115171153Y-73158078D01*
X115281459Y-73155580D01*
X115439962Y-73160499D01*
G37*
X115439962Y-73160499D02*
X115588014Y-73176707D01*
X115731452Y-73205718D01*
X115876110Y-73249045D01*
X116027824Y-73308201D01*
X116192428Y-73384700D01*
X116222071Y-73399517D01*
X116290098Y-73433031D01*
X116354256Y-73463208D01*
X116408215Y-73487166D01*
X116445640Y-73502024D01*
X116451389Y-73503895D01*
X116506486Y-73520402D01*
X116259851Y-73879201D01*
X116199552Y-73966893D01*
X116144422Y-74047012D01*
X116096336Y-74116836D01*
X116057168Y-74173647D01*
X116028794Y-74214723D01*
X116013087Y-74237346D01*
X116010536Y-74240928D01*
X116000171Y-74233438D01*
X115974660Y-74210918D01*
X115938563Y-74177461D01*
X115918642Y-74158550D01*
X115805773Y-74068778D01*
X115679014Y-74000561D01*
X115569783Y-73963195D01*
X115504214Y-73951460D01*
X115422116Y-73944308D01*
X115333144Y-73941874D01*
X115246956Y-73944288D01*
X115173205Y-73951683D01*
X115143776Y-73957347D01*
X115011133Y-74002982D01*
X114891606Y-74072663D01*
X114785283Y-74166260D01*
X114692253Y-74283649D01*
X114612605Y-74424700D01*
X114546426Y-74589286D01*
X114493806Y-74777280D01*
X114462533Y-74938217D01*
X114454374Y-75009263D01*
X114448815Y-75101046D01*
X114445802Y-75206968D01*
X114445281Y-75320434D01*
X114447200Y-75434849D01*
X114451503Y-75543617D01*
X114458137Y-75640143D01*
X114467049Y-75717831D01*
X114468979Y-75729817D01*
X114511499Y-75922892D01*
X114569433Y-76093773D01*
X114643133Y-76243224D01*
X114732951Y-76372011D01*
X114796707Y-76441639D01*
X114911286Y-76536173D01*
X115036942Y-76606246D01*
X115171557Y-76651477D01*
X115313011Y-76671484D01*
X115459183Y-76665885D01*
X115607955Y-76634300D01*
X115695911Y-76603394D01*
X115817629Y-76541506D01*
X115943080Y-76452729D01*
X116013353Y-76392694D01*
X116052811Y-76357947D01*
X116083812Y-76332454D01*
X116101458Y-76320170D01*
X116103648Y-76319795D01*
X116111524Y-76332347D01*
X116131932Y-76365516D01*
X116163132Y-76416458D01*
X116203386Y-76482331D01*
X116250957Y-76560289D01*
X116304104Y-76647490D01*
X116333687Y-76696067D01*
X116559648Y-77067215D01*
X116277527Y-77206639D01*
X116175522Y-77256719D01*
X116092889Y-77296210D01*
X116024578Y-77327073D01*
X115965537Y-77351268D01*
X115910714Y-77370758D01*
X115855060Y-77387503D01*
X115793523Y-77403465D01*
X115734540Y-77417482D01*
X115682115Y-77428329D01*
X115627288Y-77436526D01*
X115564572Y-77442528D01*
X115488477Y-77446790D01*
X115393516Y-77449767D01*
X115329513Y-77451052D01*
X115238192Y-77451930D01*
X115150627Y-77451487D01*
X115072612Y-77449852D01*
X115009942Y-77447149D01*
X114968413Y-77443505D01*
X114965952Y-77443142D01*
X114750303Y-77396487D01*
X114547793Y-77325729D01*
X114358495Y-77230914D01*
X114182479Y-77112089D01*
X114019816Y-76969300D01*
X113870578Y-76802594D01*
X113762496Y-76654433D01*
X113647434Y-76460502D01*
X113554423Y-76255699D01*
X113483013Y-76038383D01*
X113432756Y-75806912D01*
X113403201Y-75559643D01*
X113393889Y-75308559D01*
X113401548Y-75065670D01*
X113425613Y-74841570D01*
X113466852Y-74632477D01*
X113526027Y-74434613D01*
X113603904Y-74244196D01*
X113613203Y-74224468D01*
X113715648Y-74040059D01*
X113841472Y-73864576D01*
X113987112Y-73701650D01*
X114149001Y-73554914D01*
X114323576Y-73428001D01*
X114486244Y-73334905D01*
X114650573Y-73261991D01*
X114815251Y-73209174D01*
X114986652Y-73175015D01*
X115171153Y-73158078D01*
X115281459Y-73155580D01*
X115439962Y-73160499D01*
G36*
X109044257Y-72473689D02*
G01*
X109308780Y-72473725D01*
X109431912Y-72473730D01*
X111402811Y-72473730D01*
X111402811Y-72589910D01*
X111415211Y-72731291D01*
X111452636Y-72861684D01*
X111515423Y-72981862D01*
X111603906Y-73092602D01*
X111633843Y-73122511D01*
X111741534Y-73207348D01*
X111860275Y-73269221D01*
X111986540Y-73308159D01*
X112116803Y-73324190D01*
X112247535Y-73317342D01*
X112375212Y-73287643D01*
X112496305Y-73235120D01*
X112607288Y-73159803D01*
X112657132Y-73114363D01*
X112750017Y-73002952D01*
X112818127Y-72880435D01*
X112860871Y-72748215D01*
X112877653Y-72607692D01*
X112877876Y-72593867D01*
X112878756Y-72473734D01*
X112931557Y-72473732D01*
X112978396Y-72480089D01*
X113021183Y-72495556D01*
X113024011Y-72497154D01*
X113033675Y-72502168D01*
X113042549Y-72506073D01*
X113050665Y-72510007D01*
X113058057Y-72515106D01*
X113064755Y-72522508D01*
X113070792Y-72533351D01*
X113076199Y-72548772D01*
X113081010Y-72569909D01*
X113085255Y-72597899D01*
X113088968Y-72633879D01*
X113092179Y-72678987D01*
X113094922Y-72734360D01*
X113097228Y-72801137D01*
X113099129Y-72880453D01*
X113100658Y-72973447D01*
X113101846Y-73081257D01*
X113102726Y-73205019D01*
X113103330Y-73345871D01*
X113103689Y-73504950D01*
X113103835Y-73683395D01*
X113103802Y-73882342D01*
X113103620Y-74102929D01*
X113103323Y-74346293D01*
X113102941Y-74613572D01*
X113102508Y-74905903D01*
X113102055Y-75224424D01*
X113102002Y-75263230D01*
X113101596Y-75583782D01*
X113101251Y-75878012D01*
X113100931Y-76147056D01*
X113100600Y-76392052D01*
X113100221Y-76614137D01*
X113099757Y-76814447D01*
X113099172Y-76994119D01*
X113098430Y-77154290D01*
X113097494Y-77296098D01*
X113096327Y-77420679D01*
X113094893Y-77529170D01*
X113093156Y-77622707D01*
X113091078Y-77702429D01*
X113088624Y-77769472D01*
X113085756Y-77824973D01*
X113082439Y-77870068D01*
X113078636Y-77905895D01*
X113074310Y-77933591D01*
X113069425Y-77954293D01*
X113063945Y-77969137D01*
X113057832Y-77979260D01*
X113051050Y-77985800D01*
X113043563Y-77989893D01*
X113035334Y-77992676D01*
X113026327Y-77995287D01*
X113016505Y-77998862D01*
X113014106Y-77999950D01*
X113006565Y-78002396D01*
X112993944Y-78004642D01*
X112975141Y-78006698D01*
X112949053Y-78008572D01*
X112914578Y-78010271D01*
X112870615Y-78011803D01*
X112816061Y-78013177D01*
X112749815Y-78014400D01*
X112670774Y-78015481D01*
X112577837Y-78016427D01*
X112469901Y-78017247D01*
X112345864Y-78017947D01*
X112204624Y-78018538D01*
X112045079Y-78019025D01*
X111866128Y-78019419D01*
X111666668Y-78019725D01*
X111445596Y-78019953D01*
X111201812Y-78020110D01*
X110934213Y-78020205D01*
X110641697Y-78020245D01*
X110323161Y-78020238D01*
X110219979Y-78020228D01*
X109894377Y-78020176D01*
X109595119Y-78020091D01*
X109321091Y-78019963D01*
X109071176Y-78019785D01*
X108844260Y-78019548D01*
X108639227Y-78019242D01*
X108454962Y-78018860D01*
X108290350Y-78018392D01*
X108144275Y-78017830D01*
X108015624Y-78017165D01*
X107903279Y-78016388D01*
X107806126Y-78015491D01*
X107723050Y-78014465D01*
X107652936Y-78013301D01*
X107594668Y-78011991D01*
X107547131Y-78010525D01*
X107509210Y-78008896D01*
X107479790Y-78007093D01*
X107457755Y-78005110D01*
X107441990Y-78002936D01*
X107431380Y-78000563D01*
X107425596Y-77998391D01*
X107415316Y-77994056D01*
X107405878Y-77990859D01*
X107397245Y-77987665D01*
X107389381Y-77983338D01*
X107382252Y-77976744D01*
X107375821Y-77966747D01*
X107370053Y-77952212D01*
X107364911Y-77932003D01*
X107360360Y-77904985D01*
X107356365Y-77870023D01*
X107352889Y-77825981D01*
X107349898Y-77771724D01*
X107347354Y-77706117D01*
X107345223Y-77628024D01*
X107343468Y-77536310D01*
X107342055Y-77429840D01*
X107341685Y-77388973D01*
X107708116Y-77388973D01*
X109003266Y-77388973D01*
X108978345Y-77351217D01*
X108953553Y-77312417D01*
X108932560Y-77275469D01*
X108915065Y-77237788D01*
X108900770Y-77196788D01*
X108889377Y-77149883D01*
X108880587Y-77094487D01*
X108874102Y-77028016D01*
X108869623Y-76947883D01*
X108866850Y-76851502D01*
X108865487Y-76736289D01*
X108865233Y-76599657D01*
X108865791Y-76439020D01*
X108866107Y-76379382D01*
X108869675Y-75740041D01*
X109274702Y-76291449D01*
X109389446Y-76447876D01*
X109488857Y-76584088D01*
X109574010Y-76701890D01*
X109645978Y-76803084D01*
X109705834Y-76889477D01*
X109754652Y-76962874D01*
X109793505Y-77025077D01*
X109823466Y-77077893D01*
X109845609Y-77123125D01*
X109861007Y-77162578D01*
X109870734Y-77198058D01*
X109875863Y-77231368D01*
X109877468Y-77264313D01*
X109876621Y-77298697D01*
X109876405Y-77303019D01*
X109871946Y-77389031D01*
X111291308Y-77388973D01*
X111185735Y-77282522D01*
X111157087Y-77253406D01*
X111129910Y-77225076D01*
X111103011Y-77195968D01*
X111075197Y-77164520D01*
X111045275Y-77129169D01*
X111012054Y-77088354D01*
X110974339Y-77040511D01*
X110930940Y-76984079D01*
X110880662Y-76917494D01*
X110822312Y-76839195D01*
X110754700Y-76747619D01*
X110676631Y-76641204D01*
X110586912Y-76518387D01*
X110484352Y-76377605D01*
X110367758Y-76217297D01*
X110272191Y-76085798D01*
X110152251Y-75920596D01*
X110047620Y-75776152D01*
X109957352Y-75651094D01*
X109880497Y-75544052D01*
X109816109Y-75453654D01*
X109763239Y-75378529D01*
X109720940Y-75317304D01*
X109688264Y-75268610D01*
X109664262Y-75231074D01*
X109647987Y-75203325D01*
X109638492Y-75183992D01*
X109634827Y-75171703D01*
X109635929Y-75165242D01*
X109649276Y-75148048D01*
X109678134Y-75111655D01*
X109720760Y-75058224D01*
X109775415Y-74989919D01*
X109840356Y-74908903D01*
X109913842Y-74817340D01*
X109994132Y-74717392D01*
X110079485Y-74611224D01*
X110168160Y-74500997D01*
X110258414Y-74388876D01*
X110308056Y-74327244D01*
X111540627Y-74327244D01*
X111591854Y-74419919D01*
X111643081Y-74512595D01*
X111643081Y-77203622D01*
X111591854Y-77296298D01*
X111540627Y-77388973D01*
X112146604Y-77388973D01*
X112291266Y-77388931D01*
X112410756Y-77388741D01*
X112507358Y-77388308D01*
X112583358Y-77387536D01*
X112641043Y-77386330D01*
X112682699Y-77384594D01*
X112710611Y-77382232D01*
X112727065Y-77379150D01*
X112734348Y-77375251D01*
X112734745Y-77370440D01*
X112730542Y-77364622D01*
X112730499Y-77364574D01*
X112713187Y-77339532D01*
X112690264Y-77298815D01*
X112670019Y-77258168D01*
X112631621Y-77176162D01*
X112623789Y-74327244D01*
X111540627Y-74327244D01*
X110308056Y-74327244D01*
X110348507Y-74277024D01*
X110436698Y-74167604D01*
X110521246Y-74062778D01*
X110600408Y-73964711D01*
X110672444Y-73875566D01*
X110735613Y-73797505D01*
X110788173Y-73732692D01*
X110828383Y-73683290D01*
X110852000Y-73654487D01*
X110943710Y-73546778D01*
X111031940Y-73449580D01*
X111113597Y-73366076D01*
X111185590Y-73299448D01*
X111236681Y-73258599D01*
X111297093Y-73215135D01*
X109907702Y-73215135D01*
X109908092Y-73296666D01*
X109904209Y-73356606D01*
X109889610Y-73412177D01*
X109867012Y-73464855D01*
X109852322Y-73494615D01*
X109836528Y-73524103D01*
X109818186Y-73555276D01*
X109795855Y-73590093D01*
X109768091Y-73630510D01*
X109733451Y-73678486D01*
X109690493Y-73735978D01*
X109637773Y-73804943D01*
X109573849Y-73887339D01*
X109497279Y-73985124D01*
X109406619Y-74100255D01*
X109300426Y-74234690D01*
X109288432Y-74249859D01*
X108869675Y-74779412D01*
X108865622Y-74192922D01*
X108864805Y-74017251D01*
X108864979Y-73868532D01*
X108866151Y-73746275D01*
X108868331Y-73649989D01*
X108871526Y-73579183D01*
X108875744Y-73533369D01*
X108877162Y-73524679D01*
X108899409Y-73433135D01*
X108928557Y-73350608D01*
X108961818Y-73284253D01*
X108981800Y-73256110D01*
X109016278Y-73215135D01*
X108362086Y-73215135D01*
X108206031Y-73215269D01*
X108075533Y-73215703D01*
X107968690Y-73216489D01*
X107883602Y-73217676D01*
X107818365Y-73219317D01*
X107771079Y-73221461D01*
X107739843Y-73224159D01*
X107722754Y-73227462D01*
X107717912Y-73231421D01*
X107718247Y-73232298D01*
X107732115Y-73253231D01*
X107755268Y-73286412D01*
X107767246Y-73303193D01*
X107779631Y-73319940D01*
X107790763Y-73334915D01*
X107800712Y-73349594D01*
X107809549Y-73365449D01*
X107817343Y-73383955D01*
X107824165Y-73406585D01*
X107830084Y-73434813D01*
X107835171Y-73470113D01*
X107839496Y-73513958D01*
X107843129Y-73567822D01*
X107846140Y-73633180D01*
X107848599Y-73711504D01*
X107850577Y-73804268D01*
X107852142Y-73912947D01*
X107853366Y-74039013D01*
X107854319Y-74183942D01*
X107855070Y-74349206D01*
X107855689Y-74536279D01*
X107856248Y-74746635D01*
X107856815Y-74981748D01*
X107857345Y-75197741D01*
X107857845Y-75438535D01*
X107858105Y-75668274D01*
X107858132Y-75885493D01*
X107857933Y-76088722D01*
X107857514Y-76276496D01*
X107856882Y-76447345D01*
X107856044Y-76599803D01*
X107855008Y-76732403D01*
X107853780Y-76843676D01*
X107852367Y-76932156D01*
X107850775Y-76996375D01*
X107849013Y-77034865D01*
X107848679Y-77038933D01*
X107836534Y-77132248D01*
X107817573Y-77207190D01*
X107788698Y-77272594D01*
X107746810Y-77337293D01*
X107741571Y-77344352D01*
X107708116Y-77388973D01*
X107341685Y-77388973D01*
X107340946Y-77307479D01*
X107340107Y-77168090D01*
X107339502Y-77010539D01*
X107339095Y-76833691D01*
X107338850Y-76636410D01*
X107338733Y-76417560D01*
X107338705Y-76176007D01*
X107338733Y-75910615D01*
X107338780Y-75620249D01*
X107338810Y-75303773D01*
X107338811Y-75240946D01*
X107338828Y-74921137D01*
X107338888Y-74627661D01*
X107338998Y-74359390D01*
X107339167Y-74115198D01*
X107339403Y-73893957D01*
X107339716Y-73694540D01*
X107340115Y-73515820D01*
X107340607Y-73356671D01*
X107341203Y-73215966D01*
X107341910Y-73092576D01*
X107342737Y-72985376D01*
X107343693Y-72893238D01*
X107344787Y-72815035D01*
X107346027Y-72749641D01*
X107347422Y-72695928D01*
X107348982Y-72652769D01*
X107350714Y-72619037D01*
X107352628Y-72593605D01*
X107354732Y-72575347D01*
X107357034Y-72563134D01*
X107359545Y-72555841D01*
X107359637Y-72555659D01*
X107364808Y-72544518D01*
X107369115Y-72534431D01*
X107373879Y-72525346D01*
X107380422Y-72517212D01*
X107390065Y-72509976D01*
X107404129Y-72503586D01*
X107423937Y-72497989D01*
X107450809Y-72493133D01*
X107486067Y-72488966D01*
X107531032Y-72485436D01*
X107587026Y-72482491D01*
X107655371Y-72480077D01*
X107737386Y-72478144D01*
X107834395Y-72476638D01*
X107947718Y-72475508D01*
X108078677Y-72474702D01*
X108228593Y-72474166D01*
X108398787Y-72473849D01*
X108590582Y-72473699D01*
X108805298Y-72473663D01*
X109044257Y-72473689D01*
G37*
X109044257Y-72473689D02*
X109308780Y-72473725D01*
X109431912Y-72473730D01*
X111402811Y-72473730D01*
X111402811Y-72589910D01*
X111415211Y-72731291D01*
X111452636Y-72861684D01*
X111515423Y-72981862D01*
X111603906Y-73092602D01*
X111633843Y-73122511D01*
X111741534Y-73207348D01*
X111860275Y-73269221D01*
X111986540Y-73308159D01*
X112116803Y-73324190D01*
X112247535Y-73317342D01*
X112375212Y-73287643D01*
X112496305Y-73235120D01*
X112607288Y-73159803D01*
X112657132Y-73114363D01*
X112750017Y-73002952D01*
X112818127Y-72880435D01*
X112860871Y-72748215D01*
X112877653Y-72607692D01*
X112877876Y-72593867D01*
X112878756Y-72473734D01*
X112931557Y-72473732D01*
X112978396Y-72480089D01*
X113021183Y-72495556D01*
X113024011Y-72497154D01*
X113033675Y-72502168D01*
X113042549Y-72506073D01*
X113050665Y-72510007D01*
X113058057Y-72515106D01*
X113064755Y-72522508D01*
X113070792Y-72533351D01*
X113076199Y-72548772D01*
X113081010Y-72569909D01*
X113085255Y-72597899D01*
X113088968Y-72633879D01*
X113092179Y-72678987D01*
X113094922Y-72734360D01*
X113097228Y-72801137D01*
X113099129Y-72880453D01*
X113100658Y-72973447D01*
X113101846Y-73081257D01*
X113102726Y-73205019D01*
X113103330Y-73345871D01*
X113103689Y-73504950D01*
X113103835Y-73683395D01*
X113103802Y-73882342D01*
X113103620Y-74102929D01*
X113103323Y-74346293D01*
X113102941Y-74613572D01*
X113102508Y-74905903D01*
X113102055Y-75224424D01*
X113102002Y-75263230D01*
X113101596Y-75583782D01*
X113101251Y-75878012D01*
X113100931Y-76147056D01*
X113100600Y-76392052D01*
X113100221Y-76614137D01*
X113099757Y-76814447D01*
X113099172Y-76994119D01*
X113098430Y-77154290D01*
X113097494Y-77296098D01*
X113096327Y-77420679D01*
X113094893Y-77529170D01*
X113093156Y-77622707D01*
X113091078Y-77702429D01*
X113088624Y-77769472D01*
X113085756Y-77824973D01*
X113082439Y-77870068D01*
X113078636Y-77905895D01*
X113074310Y-77933591D01*
X113069425Y-77954293D01*
X113063945Y-77969137D01*
X113057832Y-77979260D01*
X113051050Y-77985800D01*
X113043563Y-77989893D01*
X113035334Y-77992676D01*
X113026327Y-77995287D01*
X113016505Y-77998862D01*
X113014106Y-77999950D01*
X113006565Y-78002396D01*
X112993944Y-78004642D01*
X112975141Y-78006698D01*
X112949053Y-78008572D01*
X112914578Y-78010271D01*
X112870615Y-78011803D01*
X112816061Y-78013177D01*
X112749815Y-78014400D01*
X112670774Y-78015481D01*
X112577837Y-78016427D01*
X112469901Y-78017247D01*
X112345864Y-78017947D01*
X112204624Y-78018538D01*
X112045079Y-78019025D01*
X111866128Y-78019419D01*
X111666668Y-78019725D01*
X111445596Y-78019953D01*
X111201812Y-78020110D01*
X110934213Y-78020205D01*
X110641697Y-78020245D01*
X110323161Y-78020238D01*
X110219979Y-78020228D01*
X109894377Y-78020176D01*
X109595119Y-78020091D01*
X109321091Y-78019963D01*
X109071176Y-78019785D01*
X108844260Y-78019548D01*
X108639227Y-78019242D01*
X108454962Y-78018860D01*
X108290350Y-78018392D01*
X108144275Y-78017830D01*
X108015624Y-78017165D01*
X107903279Y-78016388D01*
X107806126Y-78015491D01*
X107723050Y-78014465D01*
X107652936Y-78013301D01*
X107594668Y-78011991D01*
X107547131Y-78010525D01*
X107509210Y-78008896D01*
X107479790Y-78007093D01*
X107457755Y-78005110D01*
X107441990Y-78002936D01*
X107431380Y-78000563D01*
X107425596Y-77998391D01*
X107415316Y-77994056D01*
X107405878Y-77990859D01*
X107397245Y-77987665D01*
X107389381Y-77983338D01*
X107382252Y-77976744D01*
X107375821Y-77966747D01*
X107370053Y-77952212D01*
X107364911Y-77932003D01*
X107360360Y-77904985D01*
X107356365Y-77870023D01*
X107352889Y-77825981D01*
X107349898Y-77771724D01*
X107347354Y-77706117D01*
X107345223Y-77628024D01*
X107343468Y-77536310D01*
X107342055Y-77429840D01*
X107341685Y-77388973D01*
X107708116Y-77388973D01*
X109003266Y-77388973D01*
X108978345Y-77351217D01*
X108953553Y-77312417D01*
X108932560Y-77275469D01*
X108915065Y-77237788D01*
X108900770Y-77196788D01*
X108889377Y-77149883D01*
X108880587Y-77094487D01*
X108874102Y-77028016D01*
X108869623Y-76947883D01*
X108866850Y-76851502D01*
X108865487Y-76736289D01*
X108865233Y-76599657D01*
X108865791Y-76439020D01*
X108866107Y-76379382D01*
X108869675Y-75740041D01*
X109274702Y-76291449D01*
X109389446Y-76447876D01*
X109488857Y-76584088D01*
X109574010Y-76701890D01*
X109645978Y-76803084D01*
X109705834Y-76889477D01*
X109754652Y-76962874D01*
X109793505Y-77025077D01*
X109823466Y-77077893D01*
X109845609Y-77123125D01*
X109861007Y-77162578D01*
X109870734Y-77198058D01*
X109875863Y-77231368D01*
X109877468Y-77264313D01*
X109876621Y-77298697D01*
X109876405Y-77303019D01*
X109871946Y-77389031D01*
X111291308Y-77388973D01*
X111185735Y-77282522D01*
X111157087Y-77253406D01*
X111129910Y-77225076D01*
X111103011Y-77195968D01*
X111075197Y-77164520D01*
X111045275Y-77129169D01*
X111012054Y-77088354D01*
X110974339Y-77040511D01*
X110930940Y-76984079D01*
X110880662Y-76917494D01*
X110822312Y-76839195D01*
X110754700Y-76747619D01*
X110676631Y-76641204D01*
X110586912Y-76518387D01*
X110484352Y-76377605D01*
X110367758Y-76217297D01*
X110272191Y-76085798D01*
X110152251Y-75920596D01*
X110047620Y-75776152D01*
X109957352Y-75651094D01*
X109880497Y-75544052D01*
X109816109Y-75453654D01*
X109763239Y-75378529D01*
X109720940Y-75317304D01*
X109688264Y-75268610D01*
X109664262Y-75231074D01*
X109647987Y-75203325D01*
X109638492Y-75183992D01*
X109634827Y-75171703D01*
X109635929Y-75165242D01*
X109649276Y-75148048D01*
X109678134Y-75111655D01*
X109720760Y-75058224D01*
X109775415Y-74989919D01*
X109840356Y-74908903D01*
X109913842Y-74817340D01*
X109994132Y-74717392D01*
X110079485Y-74611224D01*
X110168160Y-74500997D01*
X110258414Y-74388876D01*
X110308056Y-74327244D01*
X111540627Y-74327244D01*
X111591854Y-74419919D01*
X111643081Y-74512595D01*
X111643081Y-77203622D01*
X111591854Y-77296298D01*
X111540627Y-77388973D01*
X112146604Y-77388973D01*
X112291266Y-77388931D01*
X112410756Y-77388741D01*
X112507358Y-77388308D01*
X112583358Y-77387536D01*
X112641043Y-77386330D01*
X112682699Y-77384594D01*
X112710611Y-77382232D01*
X112727065Y-77379150D01*
X112734348Y-77375251D01*
X112734745Y-77370440D01*
X112730542Y-77364622D01*
X112730499Y-77364574D01*
X112713187Y-77339532D01*
X112690264Y-77298815D01*
X112670019Y-77258168D01*
X112631621Y-77176162D01*
X112623789Y-74327244D01*
X111540627Y-74327244D01*
X110308056Y-74327244D01*
X110348507Y-74277024D01*
X110436698Y-74167604D01*
X110521246Y-74062778D01*
X110600408Y-73964711D01*
X110672444Y-73875566D01*
X110735613Y-73797505D01*
X110788173Y-73732692D01*
X110828383Y-73683290D01*
X110852000Y-73654487D01*
X110943710Y-73546778D01*
X111031940Y-73449580D01*
X111113597Y-73366076D01*
X111185590Y-73299448D01*
X111236681Y-73258599D01*
X111297093Y-73215135D01*
X109907702Y-73215135D01*
X109908092Y-73296666D01*
X109904209Y-73356606D01*
X109889610Y-73412177D01*
X109867012Y-73464855D01*
X109852322Y-73494615D01*
X109836528Y-73524103D01*
X109818186Y-73555276D01*
X109795855Y-73590093D01*
X109768091Y-73630510D01*
X109733451Y-73678486D01*
X109690493Y-73735978D01*
X109637773Y-73804943D01*
X109573849Y-73887339D01*
X109497279Y-73985124D01*
X109406619Y-74100255D01*
X109300426Y-74234690D01*
X109288432Y-74249859D01*
X108869675Y-74779412D01*
X108865622Y-74192922D01*
X108864805Y-74017251D01*
X108864979Y-73868532D01*
X108866151Y-73746275D01*
X108868331Y-73649989D01*
X108871526Y-73579183D01*
X108875744Y-73533369D01*
X108877162Y-73524679D01*
X108899409Y-73433135D01*
X108928557Y-73350608D01*
X108961818Y-73284253D01*
X108981800Y-73256110D01*
X109016278Y-73215135D01*
X108362086Y-73215135D01*
X108206031Y-73215269D01*
X108075533Y-73215703D01*
X107968690Y-73216489D01*
X107883602Y-73217676D01*
X107818365Y-73219317D01*
X107771079Y-73221461D01*
X107739843Y-73224159D01*
X107722754Y-73227462D01*
X107717912Y-73231421D01*
X107718247Y-73232298D01*
X107732115Y-73253231D01*
X107755268Y-73286412D01*
X107767246Y-73303193D01*
X107779631Y-73319940D01*
X107790763Y-73334915D01*
X107800712Y-73349594D01*
X107809549Y-73365449D01*
X107817343Y-73383955D01*
X107824165Y-73406585D01*
X107830084Y-73434813D01*
X107835171Y-73470113D01*
X107839496Y-73513958D01*
X107843129Y-73567822D01*
X107846140Y-73633180D01*
X107848599Y-73711504D01*
X107850577Y-73804268D01*
X107852142Y-73912947D01*
X107853366Y-74039013D01*
X107854319Y-74183942D01*
X107855070Y-74349206D01*
X107855689Y-74536279D01*
X107856248Y-74746635D01*
X107856815Y-74981748D01*
X107857345Y-75197741D01*
X107857845Y-75438535D01*
X107858105Y-75668274D01*
X107858132Y-75885493D01*
X107857933Y-76088722D01*
X107857514Y-76276496D01*
X107856882Y-76447345D01*
X107856044Y-76599803D01*
X107855008Y-76732403D01*
X107853780Y-76843676D01*
X107852367Y-76932156D01*
X107850775Y-76996375D01*
X107849013Y-77034865D01*
X107848679Y-77038933D01*
X107836534Y-77132248D01*
X107817573Y-77207190D01*
X107788698Y-77272594D01*
X107746810Y-77337293D01*
X107741571Y-77344352D01*
X107708116Y-77388973D01*
X107341685Y-77388973D01*
X107340946Y-77307479D01*
X107340107Y-77168090D01*
X107339502Y-77010539D01*
X107339095Y-76833691D01*
X107338850Y-76636410D01*
X107338733Y-76417560D01*
X107338705Y-76176007D01*
X107338733Y-75910615D01*
X107338780Y-75620249D01*
X107338810Y-75303773D01*
X107338811Y-75240946D01*
X107338828Y-74921137D01*
X107338888Y-74627661D01*
X107338998Y-74359390D01*
X107339167Y-74115198D01*
X107339403Y-73893957D01*
X107339716Y-73694540D01*
X107340115Y-73515820D01*
X107340607Y-73356671D01*
X107341203Y-73215966D01*
X107341910Y-73092576D01*
X107342737Y-72985376D01*
X107343693Y-72893238D01*
X107344787Y-72815035D01*
X107346027Y-72749641D01*
X107347422Y-72695928D01*
X107348982Y-72652769D01*
X107350714Y-72619037D01*
X107352628Y-72593605D01*
X107354732Y-72575347D01*
X107357034Y-72563134D01*
X107359545Y-72555841D01*
X107359637Y-72555659D01*
X107364808Y-72544518D01*
X107369115Y-72534431D01*
X107373879Y-72525346D01*
X107380422Y-72517212D01*
X107390065Y-72509976D01*
X107404129Y-72503586D01*
X107423937Y-72497989D01*
X107450809Y-72493133D01*
X107486067Y-72488966D01*
X107531032Y-72485436D01*
X107587026Y-72482491D01*
X107655371Y-72480077D01*
X107737386Y-72478144D01*
X107834395Y-72476638D01*
X107947718Y-72475508D01*
X108078677Y-72474702D01*
X108228593Y-72474166D01*
X108398787Y-72473849D01*
X108590582Y-72473699D01*
X108805298Y-72473663D01*
X109044257Y-72473689D01*
M02*
